<?xml version="1.0" encoding="utf-8"?>
<!-- Generator: Adobe Illustrator 16.0.0, SVG Export Plug-In . SVG Version: 6.00 Build 0)  -->
<!DOCTYPE svg PUBLIC "-//W3C//DTD SVG 1.1//EN" "http://www.w3.org/Graphics/SVG/1.1/DTD/svg11.dtd">
<svg version="1.1" xmlns="http://www.w3.org/2000/svg" xmlns:xlink="http://www.w3.org/1999/xlink" x="0px" y="0px" viewBox="0 0 768 1024" enable-background="new 0 0 768 1024" xml:space="preserve">
<g id="Layer_1" display="none">
	
		<image display="inline" overflow="visible" width="1000" height="1418" xlink:href="MediaProjectStuff/kerros-1.png"  transform="matrix(0.7221 0 0 0.7221 0.0215 0.0215)">
	</image>
</g>
<g id="WC">
	<rect x="275.057" y="163.712" fill="none" stroke="#000000" stroke-miterlimit="10" width="16.667" height="15.667"/>
	<rect x="287.724" y="355.713" fill="none" stroke="#000000" stroke-miterlimit="10" width="20.333" height="18.667"/>
	<rect x="287.724" y="374.379" fill="none" stroke="#000000" stroke-miterlimit="10" width="20.333" height="19.667"/>
	<rect x="112.056" y="539.713" fill="none" stroke="#000000" stroke-miterlimit="10" width="10.333" height="17.336"/>
	<rect x="122.39" y="539.713" fill="none" stroke="#000000" stroke-miterlimit="10" width="11.333" height="17.336"/>
	<rect x="352.428" y="679.713" fill="none" stroke="#000000" stroke-miterlimit="10" width="6.592" height="20"/>
	<rect x="388.057" y="735.381" fill="none" stroke="#000000" stroke-miterlimit="10" width="12.668" height="26"/>
	<rect x="400.725" y="735.381" fill="none" stroke="#000000" stroke-miterlimit="10" width="14" height="26"/>
	<rect x="357.473" y="848.646" fill="none" stroke="#000000" stroke-miterlimit="10" width="25.75" height="12.066"/>
	<rect x="357.473" y="860.713" fill="none" stroke="#000000" stroke-miterlimit="10" width="25.75" height="12"/>
	<rect x="477.223" y="846.463" fill="none" stroke="#000000" stroke-miterlimit="10" width="25" height="12.25"/>
	<rect x="477.223" y="858.713" fill="none" stroke="#000000" stroke-miterlimit="10" width="25" height="12.25"/>
	<rect x="532.473" y="733.189" fill="none" stroke="#000000" stroke-miterlimit="10" width="12.375" height="12.773"/>
	<polygon fill="none" stroke="#000000" stroke-miterlimit="10" points="509.057,624.934 513.184,588.51 524.059,589.291 
		519.416,625.713 	"/>
	<polyline fill="none" stroke="#000000" stroke-miterlimit="10" points="588.359,690.082 540.473,683.713 540.473,690.082 
		587.529,696.254 588.359,690.082 	"/>
	<polyline fill="none" stroke="#000000" stroke-miterlimit="10" points="540.473,683.713 541.723,669.213 555.336,671.178 
		554.213,685.541 561.189,686.469 562.754,672.248 569.543,673.229 567.473,686.469 575.068,687.176 576.297,674.203 
		583.33,675.219 581.973,688.301 	"/>
	<polyline fill="none" stroke="#000000" stroke-miterlimit="10" points="586.637,708.381 579.307,707.074 580.969,695.326 
		573.197,694.32 572.785,705.463 565.977,704.754 567.238,693.594 540.473,690.082 538.055,699.713 	"/>
	<rect x="477.223" y="734.213" fill="none" stroke="#000000" stroke-miterlimit="10" width="23.5" height="25.5"/>
	<rect x="446.723" y="734.213" fill="none" stroke="#000000" stroke-miterlimit="10" width="12.5" height="25.5"/>
	<rect x="459.223" y="734.213" fill="none" stroke="#000000" stroke-miterlimit="10" width="12" height="25.5"/>
	<rect x="357.473" y="735.381" fill="none" stroke="#000000" stroke-miterlimit="10" width="25.75" height="26"/>
	<rect x="357.473" y="772.963" fill="none" stroke="#000000" stroke-miterlimit="10" width="25.75" height="13.092"/>
	<rect x="383.223" y="772.963" fill="none" width="24.501" height="13.092"/>
	<rect x="252.723" y="201.712" fill="none" stroke="#000000" stroke-miterlimit="10" width="39" height="15.334"/>
	<rect x="275.057" y="139.213" fill="none" stroke="#000000" stroke-miterlimit="10" width="31.917" height="24.5"/>
	<rect x="306.973" y="139.213" fill="none" stroke="#000000" stroke-miterlimit="10" width="17.75" height="24.835"/>
	<rect x="291.723" y="163.712" fill="none" stroke="#000000" stroke-miterlimit="10" width="15.25" height="53.334"/>
	<rect x="112.056" y="519.047" fill="none" stroke="#000000" stroke-miterlimit="10" width="21.667" height="20.666"/>
	<rect x="133.723" y="519.047" fill="none" stroke="#000000" stroke-miterlimit="10" width="18.166" height="38.002"/>
	<rect x="357.473" y="772.963" fill="none" stroke="#000000" stroke-miterlimit="10" width="144.75" height="137"/>
	<rect x="287.724" y="339.38" fill="none" stroke="#000000" stroke-miterlimit="10" width="20.333" height="16.333"/>
	<rect x="289.39" y="417.213" fill="none" stroke="#000000" stroke-miterlimit="10" width="17.833" height="13.5"/>
	<line fill="none" stroke="#000000" stroke-miterlimit="10" x1="300.557" y1="394.046" x2="300.557" y2="417.213"/>
	<polyline fill="none" stroke="#000000" stroke-miterlimit="10" points="307.223,430.713 307.223,443.379 300.557,443.379 
		300.557,460.046 	"/>
	<line fill="none" stroke="#000000" stroke-miterlimit="10" x1="362.723" y1="358.048" x2="363.556" y2="407.379"/>
	<line fill="none" stroke="#000000" stroke-miterlimit="10" x1="363.14" y1="413.045" x2="363.556" y2="434.378"/>
	<path fill="#808080" stroke="#000000" stroke-miterlimit="10" d="M307.223,365.711c0,2.025-1.642,3.667-3.667,3.667h-10.5
		c-2.025,0-3.667-1.642-3.667-3.667l0,0c0-2.025,1.642-3.667,3.667-3.667h10.5C305.582,362.044,307.223,363.686,307.223,365.711
		L307.223,365.711z"/>
	<path fill="#808080" stroke="#000000" stroke-miterlimit="10" d="M308.057,384.628c0,1.887-1.53,3.417-3.417,3.417h-11.834
		c-1.887,0-3.417-1.53-3.417-3.417l0,0c0-1.887,1.53-3.417,3.417-3.417h11.834C306.527,381.211,308.057,382.741,308.057,384.628
		L308.057,384.628z"/>
	<path fill="#808080" stroke="#000000" stroke-miterlimit="10" d="M131.06,553.799c0,1.795-1.455,3.25-3.25,3.25l0,0
		c-1.795,0-3.25-1.455-3.25-3.25v-9.67c0-1.795,1.455-3.25,3.25-3.25l0,0c1.795,0,3.25,1.455,3.25,3.25V553.799z"/>
	<path fill="#808080" stroke="#000000" stroke-miterlimit="10" d="M120.56,552.545c0,1.934-1.567,3.5-3.5,3.5l0,0
		c-1.933,0-3.5-1.566-3.5-3.5v-8.166c0-1.932,1.567-3.5,3.5-3.5l0,0c1.933,0,3.5,1.568,3.5,3.5V552.545z"/>
	<path fill="#808080" stroke="#000000" stroke-miterlimit="10" d="M291.015,173.338c0,1.496-1.213,2.708-2.708,2.708h-9.373
		c-1.496,0-2.708-1.212-2.708-2.708l0,0c0-1.496,1.212-2.708,2.708-2.708h9.373C289.802,170.63,291.015,171.842,291.015,173.338
		L291.015,173.338z"/>
	<path fill="#808080" stroke="#000000" stroke-miterlimit="10" d="M519.02,616.182c-0.252,1.674-2.047,2.789-4.006,2.494l0,0
		c-1.963-0.297-3.348-1.891-3.096-3.564l2.178-14.461c0.252-1.672,2.045-2.789,4.008-2.492l0,0c1.959,0.295,3.346,1.889,3.094,3.562
		L519.02,616.182z"/>
	<path fill="#808080" stroke="#000000" stroke-miterlimit="10" d="M359.369,696.074c0,1.664-1.554,3.016-3.471,3.016l0,0
		c-1.917,0-3.471-1.352-3.471-3.016v-12.068c0-1.666,1.554-3.016,3.471-3.016l0,0c1.917,0,3.471,1.35,3.471,3.016V696.074z"/>
	<path fill="#808080" stroke="#000000" stroke-miterlimit="10" d="M397.723,754.713c0,1.934-1.566,3.5-3.5,3.5l0,0
		c-1.934,0-3.5-1.566-3.5-3.5v-12.5c0-1.932,1.566-3.5,3.5-3.5l0,0c1.934,0,3.5,1.568,3.5,3.5V754.713z"/>
	<path fill="#808080" stroke="#000000" stroke-miterlimit="10" d="M380.223,854.963c0,2.07-1.679,3.75-3.75,3.75h-12.001
		c-2.071,0-3.75-1.68-3.75-3.75l0,0c0-2.07,1.679-3.75,3.75-3.75h12.001C378.544,851.213,380.223,852.893,380.223,854.963
		L380.223,854.963z"/>
	<path fill="#808080" stroke="#000000" stroke-miterlimit="10" d="M380.223,866.963c0,2.209-1.791,4-4,4h-11.5c-2.209,0-4-1.791-4-4
		l0,0c0-2.209,1.791-4,4-4h11.5C378.432,862.963,380.223,864.754,380.223,866.963L380.223,866.963z"/>
	<path fill="#808080" stroke="#000000" stroke-miterlimit="10" d="M500.723,852.43c0,2.09-1.693,3.783-3.783,3.783h-12.684
		c-2.09,0-3.783-1.693-3.783-3.783l0,0c0-2.09,1.693-3.783,3.783-3.783h12.684C499.029,848.646,500.723,850.34,500.723,852.43
		L500.723,852.43z"/>
	<path fill="#808080" stroke="#000000" stroke-miterlimit="10" d="M500.723,865.088c0,2.002-1.623,3.625-3.625,3.625h-13
		c-2.002,0-3.625-1.623-3.625-3.625l0,0c0-2.002,1.623-3.625,3.625-3.625h13C499.1,861.463,500.723,863.086,500.723,865.088
		L500.723,865.088z"/>
	<rect x="293.306" y="363.377" fill="none" width="11.502" height="7.167"/>
	<text transform="matrix(1 0 0 1 293.3062 367.6367)" fill="#FFFFFF" font-family="'MyriadPro-Regular'" font-size="6">WC</text>
	<rect x="292.473" y="382.877" fill="none" width="11.502" height="7.167"/>
	<text transform="matrix(1 0 0 1 292.4731 387.1367)" fill="#FFFFFF" font-family="'MyriadPro-Regular'" font-size="6">WC</text>
	<rect x="365.222" y="852.629" fill="none" width="11.502" height="7.168"/>
	<text transform="matrix(1 0 0 1 365.2222 856.8887)" fill="#FFFFFF" font-family="'MyriadPro-Regular'" font-size="6">WC</text>
	<rect x="365.222" y="865.129" fill="none" width="11.502" height="7.168"/>
	<text transform="matrix(1 0 0 1 365.2222 869.3887)" fill="#FFFFFF" font-family="'MyriadPro-Regular'" font-size="6">WC</text>
	<rect x="484.305" y="862.482" fill="none" width="11.502" height="7.168"/>
	<text transform="matrix(1 0 0 1 484.3047 866.7422)" fill="#FFFFFF" font-family="'MyriadPro-Regular'" font-size="6">WC</text>
	<rect x="484.305" y="851.096" fill="none" width="11.502" height="7.168"/>
	<text transform="matrix(1 0 0 1 484.3047 855.3555)" fill="#FFFFFF" font-family="'MyriadPro-Regular'" font-size="6">WC</text>
	
		<rect x="510.806" y="605.53" transform="matrix(0.1513 -0.9885 0.9885 0.1513 -163.0015 1026.989)" fill="none" width="11.503" height="5.773"/>
	
		<text transform="matrix(0.1514 -0.9885 0.9885 0.1514 517.043 614.3105)" fill="#FFFFFF" font-family="'MyriadPro-Regular'" font-size="6">WC</text>
	<rect x="279.014" y="171.629" fill="none" width="11.502" height="7.167"/>
	<text transform="matrix(1 0 0 1 279.0142 175.8887)" fill="#FFFFFF" font-family="'MyriadPro-Regular'" font-size="6">WC</text>
	<rect x="127.972" y="579.588" fill="none" width="11.502" height="7.168"/>
	<text transform="matrix(1 0 0 1 127.9722 583.8477)" fill="#FFFFFF" font-family="'MyriadPro-Regular'" font-size="6">WC</text>
	
		<rect x="124.336" y="544.879" transform="matrix(0.0091 -1 1 0.0091 -419.5346 673.5624)" fill="none" width="11.502" height="7.167"/>
	<text transform="matrix(0.0091 -1 1 0.0091 130.7109 554.2197)" fill="#FFFFFF" font-family="'MyriadPro-Regular'" font-size="6">WC</text>
	
		<rect x="113.003" y="544.797" transform="matrix(0.0091 -1 1 0.0091 -430.6831 662.1481)" fill="none" width="11.502" height="7.167"/>
	<text transform="matrix(0.0091 -1 1 0.0091 119.3774 554.1377)" fill="#FFFFFF" font-family="'MyriadPro-Regular'" font-size="6">WC</text>
	
		<rect x="389.722" y="743.38" transform="matrix(0.0092 -1 1 0.0092 -355.0841 1135.5708)" fill="none" width="11.502" height="7.166"/>
	<text transform="matrix(0.0091 -1 1 0.0091 396.0967 752.7197)" fill="#FFFFFF" font-family="'MyriadPro-Regular'" font-size="6">WC</text>
	
		<rect x="352.305" y="684.585" transform="matrix(0.0091 -1 1 0.0091 -333.5296 1040.0166)" fill="none" width="11.356" height="7.417"/>
	<text transform="matrix(0.0091 -1 1 0.0091 358.4829 693.9756)" fill="#FFFFFF" font-family="'MyriadPro-Regular'" font-size="6">WC</text>
	<path fill="#808080" stroke="#000000" stroke-miterlimit="10" d="M409.764,754.809c0,1.795-1.455,3.25-3.25,3.25l0,0
		c-1.795,0-3.25-1.455-3.25-3.25v-13c0-1.795,1.455-3.25,3.25-3.25l0,0c1.795,0,3.25,1.455,3.25,3.25V754.809z"/>
	
		<rect x="401.349" y="743.7" transform="matrix(0.0092 -1 1 0.0092 -343.8841 1147.5146)" fill="none" width="11.502" height="7.166"/>
	<text transform="matrix(0.0091 -1 1 0.0091 407.7236 753.04)" fill="#FFFFFF" font-family="'MyriadPro-Regular'" font-size="6">WC</text>
	<path fill="#666666" stroke="#000000" stroke-miterlimit="10" d="M542.15,742.775c0,1.928-1.562,3.49-3.49,3.49l0,0
		c-1.926,0-3.488-1.562-3.488-3.49v-6.398c0-1.926,1.562-3.488,3.488-3.488l0,0c1.928,0,3.49,1.562,3.49,3.488V742.775z"/>
	<rect x="537.141" y="734.076" fill="none" width="6.666" height="11"/>
	
		<text transform="matrix(4.489659e-11 -1 1 4.489659e-11 541.4004 745.0771)" fill="#FFFFFF" font-family="'MyriadPro-Regular'" font-size="6">WC</text>
	<rect x="295.057" y="420.464" fill="none" width="15" height="12"/>
	<text transform="matrix(1 0 0 1 295.0571 428.2744)" font-family="'MyriadPro-Regular'" font-size="11">E</text>
	
		<rect x="422.489" y="690.353" transform="matrix(-0.9994 0.035 -0.035 -0.9994 879.9937 1374.8777)" fill="none" stroke="#000000" stroke-miterlimit="10" width="10.929" height="9.59"/>
	
		<rect x="426.021" y="692.57" transform="matrix(0.9994 -0.0348 0.0348 0.9994 -24.0181 15.427)" fill="none" width="9.193" height="8.525"/>
	<text transform="matrix(0.8623 -0.0301 0.0349 0.9994 426.0693 698.2773)" font-family="'MyriadPro-Regular'" font-size="7.8136">E</text>
	<path fill="none" stroke="#000000" stroke-miterlimit="10" d="M293.223,633.963"/>
	<polyline fill="none" stroke="#000000" stroke-miterlimit="10" points="411.141,691.209 422.324,690.547 422.324,694.004 
		410.736,694.004 410.994,696.254 422.324,696.254 422.324,697.963 410.943,697.963 	"/>
</g>
<g id="B112">
	<polygon fill="none" stroke="#000000" stroke-miterlimit="10" points="319.057,164.048 324.724,164.048 324.724,156.048 
		341.39,156.048 341.39,181.381 319.057,181.381 	"/>
	<path fill="none" d="M340.223,173.275c0,2.175-1.763,3.938-3.938,3.938h-11.375c-2.175,0-3.938-1.763-3.938-3.938l0,0
		c0-2.175,1.763-3.938,3.938-3.938h11.375C338.46,169.338,340.223,171.101,340.223,173.275L340.223,173.275z"/>
	<text transform="matrix(1 0 0 1 323.0034 174.3076)" font-family="'MyriadPro-Regular'" font-size="7">B112</text>
	<path fill="none" stroke="#000000" stroke-miterlimit="10" d="M321.307,172.069c0-1.853,1.502-3.354,3.354-3.354h11.4
		c1.852,0,3.354,1.502,3.354,3.354l0,0c0,1.852-1.502,3.354-3.354,3.354h-11.4C322.809,175.423,321.307,173.921,321.307,172.069
		L321.307,172.069z"/>
</g>
<g id="B111">
	<rect x="319.057" y="181.381" fill="none" stroke="#000000" stroke-miterlimit="10" width="32" height="18.667"/>
	<path fill="none" stroke="#000000" stroke-miterlimit="10" d="M346.723,191.9c0,2.037-1.651,3.688-3.688,3.688h-14.625
		c-2.037,0-3.688-1.651-3.688-3.688l0,0c0-2.037,1.651-3.688,3.688-3.688h14.625C345.072,188.213,346.723,189.864,346.723,191.9
		L346.723,191.9z"/>
	<rect x="327.723" y="188.92" fill="none" width="16" height="6.668"/>
	<text transform="matrix(1 0 0 1 327.7231 193.8896)" font-family="'MyriadPro-Regular'" font-size="7">B111</text>
</g>
<g id="B110">
	<path fill="none" d="M378.848,191.213c0,2.071-1.679,3.75-3.75,3.75h-13.75c-2.071,0-3.75-1.679-3.75-3.75l0,0
		c0-2.071,1.679-3.75,3.75-3.75h13.75C377.169,187.463,378.848,189.142,378.848,191.213L378.848,191.213z"/>
	<text transform="matrix(1 0 0 1 359.4902 192.4326)" font-family="'MyriadPro-Regular'" font-size="7">B110</text>
	<rect x="351.057" y="181.381" fill="none" stroke="#000000" stroke-miterlimit="10" width="33.333" height="18.667"/>
	<path fill="none" stroke="#000000" stroke-miterlimit="10" d="M356.473,191.213c0-2.071,1.679-3.75,3.75-3.75h14.875
		c2.071,0,3.75,1.679,3.75,3.75l0,0c0,2.071-1.679,3.75-3.75,3.75h-14.875C358.152,194.963,356.473,193.284,356.473,191.213
		L356.473,191.213z"/>
</g>
<g id="B115">
	<rect x="324.724" y="200.048" fill="none" stroke="#000000" stroke-miterlimit="10" width="59.667" height="59"/>
	<rect x="324.724" y="259.048" fill="none" stroke="#000000" stroke-miterlimit="10" width="59.667" height="40.667"/>
	<path fill="none" d="M364.39,281.13c0,1.979-1.604,3.583-3.583,3.583h-12.667c-1.979,0-3.583-1.604-3.583-3.583l0,0
		c0-1.979,1.604-3.583,3.583-3.583h12.667C362.785,277.546,364.39,279.151,364.39,281.13L364.39,281.13z"/>
	<text transform="matrix(1 0 0 1 346.3257 282.5161)" font-family="'MyriadPro-Regular'" font-size="7">B115</text>
	<path fill="none" stroke="#000000" stroke-miterlimit="10" d="M365.223,229.881c0,2.209-1.791,4-4,4h-12.667c-2.209,0-4-1.791-4-4
		l0,0c0-2.209,1.791-4,4-4h12.667C363.432,225.881,365.223,227.672,365.223,229.881L365.223,229.881z"/>
	<rect x="346.806" y="226.506" fill="none" width="15.334" height="6.75"/>
	<text transform="matrix(1 0 0 1 346.8062 231.4756)" font-family="'MyriadPro-Regular'" font-size="7">B115</text>
	<path fill="none" stroke="#000000" stroke-miterlimit="10" d="M343.723,281.13c0-1.979,1.604-3.583,3.583-3.583h13.5
		c1.979,0,3.583,1.604,3.583,3.583l0,0c0,1.979-1.604,3.583-3.583,3.583h-13.5C345.328,284.713,343.723,283.108,343.723,281.13
		L343.723,281.13z"/>
</g>
<g id="B116">
	<rect x="324.724" y="299.714" fill="none" stroke="#000000" stroke-miterlimit="10" width="59.667" height="58.333"/>
	<path fill="none" stroke="#000000" stroke-miterlimit="10" d="M365.223,331.38c0,2.301-1.865,4.167-4.167,4.167h-12.334
		c-2.301,0-4.167-1.865-4.167-4.167l0,0c0-2.301,1.865-4.167,4.167-4.167h12.334C363.358,327.213,365.223,329.079,365.223,331.38
		L365.223,331.38z"/>
	<rect x="346.515" y="329.046" fill="none" width="16.75" height="6.5"/>
	<text transform="matrix(1 0 0 1 346.5146 334.0161)" font-family="'MyriadPro-Regular'" font-size="7">B116</text>
</g>
<g id="B120">
	<rect x="252.723" y="163.712" fill="none" stroke="#000000" stroke-miterlimit="10" width="22.333" height="15.667"/>
	<path fill="none" stroke="#000000" stroke-miterlimit="10" d="M273.726,172.046c0,2.209-1.791,4-4,4h-11c-2.209,0-4-1.791-4-4l0,0
		c0-2.209,1.791-4,4-4h11C271.935,168.046,273.726,169.837,273.726,172.046L273.726,172.046z"/>
</g>
<g id="B121">
	<rect x="252.723" y="179.379" fill="none" stroke="#000000" stroke-miterlimit="10" width="22.333" height="22.333"/>
	<path fill="none" stroke="#000000" stroke-miterlimit="10" d="M273.726,190.15c0,2.175-1.763,3.938-3.938,3.938h-11.125
		c-2.175,0-3.938-1.763-3.938-3.938l0,0c0-2.175,1.763-3.938,3.938-3.938h11.125C271.963,186.213,273.726,187.976,273.726,190.15
		L273.726,190.15z"/>
	<rect x="256.371" y="187.129" fill="none" width="27.25" height="10.25"/>
	<text transform="matrix(1 0 0 1 256.3706 192.0986)" font-family="'MyriadPro-Regular'" font-size="7">B121</text>
	<rect x="256.371" y="168.983" fill="none" width="18.25" height="5.125"/>
	<text transform="matrix(1 0 0 1 256.3706 173.9531)" font-family="'MyriadPro-Regular'" font-size="7">B120</text>
</g>
<g id="B118">
	<rect x="275.057" y="179.379" fill="none" stroke="#000000" stroke-miterlimit="10" width="16.667" height="22.333"/>
	<path fill="none" stroke="#000000" stroke-miterlimit="10" d="M287.348,197.213c0,2.071-1.679,3.75-3.75,3.75l0,0
		c-2.071,0-3.75-1.679-3.75-3.75v-12.75c0-2.071,1.679-3.75,3.75-3.75l0,0c2.071,0,3.75,1.679,3.75,3.75V197.213z"/>
	<rect x="280.39" y="175.213" fill="none" width="8.75" height="24.5"/>
	<text transform="matrix(0 -1 1 0 285.3599 199.7129)" font-family="'MyriadPro-Regular'" font-size="7">B118</text>
</g>
<g id="B124">
	<rect x="252.723" y="280.714" fill="none" stroke="#000000" stroke-miterlimit="10" width="55.334" height="58.667"/>
	<rect x="252.723" y="217.047" fill="none" stroke="#000000" stroke-miterlimit="10" width="55.334" height="63.667"/>
	<path fill="none" stroke="#000000" stroke-miterlimit="10" d="M290.392,309.461c0,2.163-1.753,3.917-3.917,3.917h-12.5
		c-2.163,0-3.917-1.753-3.917-3.917l0,0c0-2.163,1.753-3.917,3.917-3.917h12.5C288.639,305.545,290.392,307.298,290.392,309.461
		L290.392,309.461z"/>
	<rect x="272.973" y="306.713" fill="none" width="28.75" height="10.5"/>
	<text transform="matrix(1 0 0 1 272.9731 311.6826)" font-family="'MyriadPro-Regular'" font-size="7">B124</text>
</g>
<g id="B138">
	<rect x="112.056" y="403.713" fill="none" stroke="#000000" stroke-miterlimit="10" width="79.667" height="53"/>
	<rect x="141.973" y="426.713" fill="none" width="24" height="8"/>
	<text transform="matrix(1 0 0 1 141.9731 431.6826)" font-family="'MyriadPro-Regular'" font-size="7">B138</text>
</g>
<g id="B147">
	<rect x="151.889" y="518.642" fill="none" stroke="#000000" stroke-miterlimit="10" width="29.834" height="38.407"/>
	<path fill="none" stroke="#000000" stroke-miterlimit="10" d="M177.394,538.463c0,2.439-1.978,4.416-4.417,4.416h-12.5
		c-2.439,0-4.417-1.977-4.417-4.416l0,0c0-2.439,1.978-4.418,4.417-4.418h12.5C175.416,534.045,177.394,536.023,177.394,538.463
		L177.394,538.463z"/>
	<rect x="157.971" y="535.504" fill="none" width="17.67" height="5.916"/>
	<text transform="matrix(1 0 0 1 157.9712 540.4736)" font-family="'MyriadPro-Regular'" font-size="7">B147</text>
</g>
<g id="B145">
	<rect x="210.39" y="518.642" fill="none" stroke="#000000" stroke-miterlimit="10" width="20.333" height="38.407"/>
	<path fill="none" stroke="#000000" stroke-miterlimit="10" d="M229.227,538.045c0,2.209-1.791,4-4,4h-9.333c-2.209,0-4-1.791-4-4
		l0,0c0-2.209,1.791-4,4-4h9.333C227.436,534.045,229.227,535.836,229.227,538.045L229.227,538.045z"/>
	<rect x="212.685" y="535.568" fill="none" width="15.75" height="5.787"/>
	<text transform="matrix(1 0 0 1 212.6851 540.5371)" font-family="'MyriadPro-Regular'" font-size="7">B145</text>
</g>
<g id="B144">
	<rect x="230.724" y="518.098" fill="none" stroke="#000000" stroke-miterlimit="10" width="19.333" height="38.951"/>
	<path fill="none" stroke="#000000" stroke-miterlimit="10" d="M250.057,538.045c0,2.209-1.791,4-4,4h-9.664c-2.209,0-4-1.791-4-4
		l0,0c0-2.209,1.791-4,4-4h9.664C248.266,534.045,250.057,535.836,250.057,538.045L250.057,538.045z"/>
</g>
<g id="B143">
	<rect x="250.224" y="517.924" fill="none" stroke="#000000" stroke-miterlimit="10" width="27.667" height="39.125"/>
	<path fill="none" stroke="#000000" stroke-miterlimit="10" d="M273.894,537.379c0,2.578-2.089,4.666-4.667,4.666h-10.833
		c-2.577,0-4.667-2.088-4.667-4.666l0,0c0-2.578,2.089-4.666,4.667-4.666h10.833C271.804,532.713,273.894,534.801,273.894,537.379
		L273.894,537.379z"/>
	<rect x="233.973" y="535.174" fill="none" width="18" height="5.748"/>
	<text transform="matrix(1 0 0 1 233.9731 540.1426)" font-family="'MyriadPro-Regular'" font-size="7">B144</text>
	<rect x="255.888" y="534.449" fill="none" width="16.337" height="6.248"/>
	<text transform="matrix(1 0 0 1 255.8882 539.418)" font-family="'MyriadPro-Regular'" font-size="7">B143</text>
</g>
<g id="B128">
	<rect x="339.723" y="434.378" fill="none" stroke="#000000" stroke-miterlimit="10" width="23" height="32.667"/>
	<path fill="none" stroke="#000000" stroke-miterlimit="10" d="M360.559,444.21c0,2.117-1.716,3.833-3.833,3.833h-10.167
		c-2.117,0-3.833-1.716-3.833-3.833l0,0c0-2.117,1.716-3.833,3.833-3.833h10.167C358.843,440.377,360.559,442.093,360.559,444.21
		L360.559,444.21z"/>
	<rect x="344.89" y="441.335" fill="none" width="15" height="5.75"/>
	<text transform="matrix(1 0 0 1 344.8901 446.3052)" font-family="'MyriadPro-Regular'" font-size="7">B128</text>
</g>
<g id="B127">
	<rect id="B127_1_" x="339.723" y="467.045" fill="none" stroke="#000000" stroke-miterlimit="10" width="23" height="16.333"/>
	<rect id="B127.1" x="362.723" y="434.378" fill="none" stroke="#000000" stroke-miterlimit="10" width="27.666" height="16.333"/>
	<rect id="B127.2" x="362.723" y="450.712" fill="none" stroke="#000000" stroke-miterlimit="10" width="27.666" height="16.333"/>
	<rect id="B127.3" x="362.723" y="467.045" fill="none" stroke="#000000" stroke-miterlimit="10" width="27.666" height="16.333"/>
	<path fill="none" stroke="#000000" stroke-miterlimit="10" d="M360.559,476.294c0,2.071-1.679,3.75-3.75,3.75h-10.333
		c-2.071,0-3.75-1.679-3.75-3.75l0,0c0-2.071,1.679-3.75,3.75-3.75h10.333C358.88,472.544,360.559,474.223,360.559,476.294
		L360.559,476.294z"/>
	<path fill="none" stroke="#000000" stroke-miterlimit="10" d="M387.893,475.127c0,2.071-1.68,3.75-3.75,3.75h-12.334
		c-2.071,0-3.75-1.679-3.75-3.75l0,0c0-2.071,1.679-3.75,3.75-3.75h12.334C386.213,471.377,387.893,473.056,387.893,475.127
		L387.893,475.127z"/>
	<path fill="none" stroke="#000000" stroke-miterlimit="10" d="M387.893,459.087c0,2.277-1.711,4.124-3.819,4.124h-14.531
		c-2.109,0-3.819-1.846-3.819-4.124l0,0c0-2.278,1.71-4.124,3.819-4.124h14.531C386.182,454.963,387.893,456.809,387.893,459.087
		L387.893,459.087z"/>
	<path fill="none" stroke="#000000" stroke-miterlimit="10" d="M387.893,443.044c0,2.025-1.725,3.667-3.851,3.667h-13.13
		c-2.127,0-3.852-1.642-3.852-3.667l0,0c0-2.025,1.725-3.667,3.852-3.667h13.13C386.168,439.377,387.893,441.019,387.893,443.044
		L387.893,443.044z"/>
	<rect x="344.559" y="474.298" fill="none" width="15" height="7.414"/>
	<text transform="matrix(1 0 0 1 344.5591 479.2676)" font-family="'MyriadPro-Regular'" font-size="7">B127</text>
	<rect x="367.851" y="439.92" fill="none" width="20.25" height="6.248"/>
	<text transform="matrix(1 0 0 1 367.8511 444.8896)" font-family="'MyriadPro-Regular'" font-size="7">B127.1</text>
	<rect x="367.226" y="456.754" fill="none" width="20.5" height="6.583"/>
	<text transform="matrix(1 0 0 1 367.2261 461.7241)" font-family="'MyriadPro-Regular'" font-size="7">B127.2</text>
	<rect x="369.476" y="472.962" fill="none" width="17" height="6.664"/>
	<text transform="matrix(1 0 0 1 369.4761 477.9316)" font-family="'MyriadPro-Regular'" font-size="7">127.3</text>
</g>
<g id="B131">
	<rect id="B131_2_" x="339.723" y="498.712" fill="none" stroke="#000000" stroke-miterlimit="10" width="23" height="35.333"/>
	
		<rect id="B131.1_1_" x="362.723" y="483.378" fill="none" stroke="#000000" stroke-miterlimit="10" width="27.666" height="15.333"/>
	
		<rect id="B131.2_1_" x="362.723" y="498.712" fill="none" stroke="#000000" stroke-miterlimit="10" width="27.666" height="35.333"/>
	<path fill="none" stroke="#000000" stroke-miterlimit="10" d="M388.371,491.377c0,2.209-1.967,4-4.395,4h-13.002
		c-2.427,0-4.395-1.791-4.395-4l0,0c0-2.209,1.968-4,4.395-4h13.002C386.404,487.377,388.371,489.168,388.371,491.377
		L388.371,491.377z"/>
	<path fill="none" stroke="#000000" stroke-miterlimit="10" d="M387.893,516.294c0,1.979-1.604,3.583-3.583,3.583h-12.667
		c-1.979,0-3.583-1.604-3.583-3.583l0,0c0-1.979,1.604-3.583,3.583-3.583h12.667C386.289,512.711,387.893,514.314,387.893,516.294
		L387.893,516.294z"/>
	<path fill="none" stroke="#000000" stroke-miterlimit="10" d="M361.393,507.377c0,2.117-1.716,3.833-3.833,3.833h-11
		c-2.117,0-3.833-1.716-3.833-3.833l0,0c0-2.117,1.716-3.833,3.833-3.833h11C359.676,503.544,361.393,505.26,361.393,507.377
		L361.393,507.377z"/>
	<rect x="343.809" y="505.547" fill="none" width="16.5" height="7.164"/>
	<text transform="matrix(1 0 0 1 343.8091 510.5166)" font-family="'MyriadPro-Regular'" font-size="7">B131</text>
	<rect x="368.059" y="513.892" fill="none" width="29.75" height="9.501"/>
	<text transform="matrix(1 0 0 1 368.0591 518.8613)" font-family="'MyriadPro-Regular'" font-size="7">B131.2</text>
	<rect x="367.101" y="488.502" fill="none" width="21.75" height="5.749"/>
	<text transform="matrix(1 0 0 1 367.1011 493.4722)" font-family="'MyriadPro-Regular'" font-size="7">B131.1</text>
</g>
<g id="B146">
	<rect x="181.724" y="518.642" fill="none" stroke="#000000" stroke-miterlimit="10" width="28.667" height="38.407"/>
	<path fill="none" stroke="#000000" stroke-miterlimit="10" d="M206.727,538.463c0,2.439-1.978,4.416-4.417,4.416h-10.833
		c-2.439,0-4.417-1.977-4.417-4.416l0,0c0-2.439,1.978-4.418,4.417-4.418h10.833C204.75,534.045,206.727,536.023,206.727,538.463
		L206.727,538.463z"/>
	<rect x="189.723" y="536.004" fill="none" width="19" height="7.416"/>
	<text transform="matrix(1 0 0 1 189.7231 540.9736)" font-family="'MyriadPro-Regular'" font-size="7">B146</text>
</g>
<g id="B139">
	<rect x="78.723" y="403.713" fill="none" stroke="#000000" stroke-miterlimit="10" width="33.333" height="115.334"/>
	<path fill="none" stroke="#000000" stroke-miterlimit="10" d="M105.893,462.88c0,2.301-1.866,4.167-4.167,4.167H89.559
		c-2.301,0-4.167-1.866-4.167-4.167l0,0c0-2.301,1.866-4.167,4.167-4.167h12.167C104.027,458.713,105.893,460.579,105.893,462.88
		L105.893,462.88z"/>
	<rect x="87.268" y="460.068" fill="none" width="16.75" height="5.623"/>
	<text transform="matrix(1 0 0 1 87.2676 465.0381)" font-family="'MyriadPro-Regular'" font-size="7">B139</text>
</g>
<g id="B109">
	<rect x="341.39" y="156.048" fill="none" stroke="#000000" stroke-miterlimit="10" width="43" height="25.333"/>
	<path fill="none" stroke="#000000" stroke-miterlimit="10" d="M372.723,169.963c0,2.14-1.735,3.875-3.875,3.875h-12.625
		c-2.14,0-3.875-1.735-3.875-3.875l0,0c0-2.14,1.735-3.875,3.875-3.875h12.625C370.988,166.088,372.723,167.823,372.723,169.963
		L372.723,169.963z"/>
	<rect x="354.015" y="167.692" fill="none" width="17.75" height="5.875"/>
	<text transform="matrix(1 0 0 1 354.0151 172.6621)" font-family="'MyriadPro-Regular'" font-size="7">B109</text>
</g>
<g id="A1127">
	<rect x="303.021" y="749.018" fill="none" stroke="#000000" stroke-miterlimit="10" width="24.444" height="37.037"/>
	<path fill="none" stroke="#000000" stroke-miterlimit="10" d="M325.723,766.963c0,2.209-1.791,4-4,4h-11.5c-2.209,0-4-1.791-4-4
		l0,0c0-2.209,1.791-4,4-4h11.5C323.932,762.963,325.723,764.754,325.723,766.963L325.723,766.963z"/>
	<rect x="306.973" y="764.625" fill="none" width="18" height="5.822"/>
	<text transform="matrix(1 0 0 1 306.9731 769.5938)" font-family="'MyriadPro-Regular'" font-size="7">1.127</text>
	<rect x="249.473" y="772.963" fill="none" width="28.25" height="8.5"/>
</g>
<g id="A1129">
	<rect x="303.021" y="786.055" fill="none" stroke="#000000" stroke-miterlimit="10" width="24.444" height="37.777"/>
	<path fill="none" stroke="#000000" stroke-miterlimit="10" d="M325.723,804.338c0,2.416-1.959,4.375-4.375,4.375h-12.5
		c-2.416,0-4.375-1.959-4.375-4.375l0,0c0-2.416,1.959-4.375,4.375-4.375h12.5C323.764,799.963,325.723,801.922,325.723,804.338
		L325.723,804.338z"/>
	<rect x="306.973" y="801.318" fill="none" width="18" height="7.25"/>
	<text transform="matrix(1 0 0 1 306.9731 806.2871)" font-family="'MyriadPro-Regular'" font-size="7">1.129</text>
</g>
<g id="A1130">
	<rect x="303.021" y="823.832" fill="none" stroke="#000000" stroke-miterlimit="10" width="24.444" height="24.814"/>
	<path fill="none" stroke="#000000" stroke-miterlimit="10" d="M325.723,843.838c0,2.002-1.623,3.625-3.625,3.625h-12.25
		c-2.002,0-3.625-1.623-3.625-3.625l0,0c0-2.002,1.623-3.625,3.625-3.625h12.25C324.1,840.213,325.723,841.836,325.723,843.838
		L325.723,843.838z"/>
	<rect x="307.223" y="841.213" fill="none" width="17.5" height="6.25"/>
	<text transform="matrix(1 0 0 1 307.2231 846.1826)" font-family="'MyriadPro-Regular'" font-size="7">1.130</text>
</g>
<g id="A1141">
	<rect x="303.021" y="848.646" fill="none" stroke="#000000" stroke-miterlimit="10" width="24.444" height="36.666"/>
	<path fill="none" stroke="#000000" stroke-miterlimit="10" d="M325.723,866.963c0,2.209-1.791,4-4,4h-11.5c-2.209,0-4-1.791-4-4
		l0,0c0-2.209,1.791-4,4-4h11.5C323.932,862.963,325.723,864.754,325.723,866.963L325.723,866.963z"/>
	<rect x="307.223" y="865.088" fill="none" width="18.5" height="7.25"/>
	<text transform="matrix(1 0 0 1 307.2231 870.0576)" font-family="'MyriadPro-Regular'" font-size="7">1.141</text>
	<rect x="308.021" y="899.463" fill="none" width="20" height="8.125"/>
	<text transform="matrix(1 0 0 1 308.0205 904.4326)" font-family="'MyriadPro-Regular'" font-size="7">1.143</text>
</g>
<g id="A1143">
	<rect x="303.021" y="885.312" fill="none" stroke="#000000" stroke-miterlimit="10" width="24.444" height="38.889"/>
	<path fill="none" stroke="#000000" stroke-miterlimit="10" d="M325.723,902.338c0,2.141-1.735,3.875-3.875,3.875h-11.75
		c-2.14,0-3.875-1.734-3.875-3.875l0,0c0-2.139,1.735-3.875,3.875-3.875h11.75C323.988,898.463,325.723,900.199,325.723,902.338
		L325.723,902.338z"/>
</g>
<g id="A1146">
	<rect x="289.687" y="935.684" fill="none" stroke="#000000" stroke-miterlimit="10" width="37.778" height="38.148"/>
	<path fill="none" stroke="#000000" stroke-miterlimit="10" d="M319.473,955.15c0,2.037-1.651,3.688-3.688,3.688h-12.125
		c-2.037,0-3.688-1.65-3.688-3.688l0,0c0-2.035,1.651-3.688,3.688-3.688h12.125C317.822,951.463,319.473,953.115,319.473,955.15
		L319.473,955.15z"/>
	<rect x="303.021" y="951.758" fill="none" width="18.25" height="6"/>
	<text transform="matrix(1 0 0 1 303.0205 956.7266)" font-family="'MyriadPro-Regular'" font-size="7">1.146</text>
</g>
<g id="A1147">
	<rect x="327.465" y="947.213" fill="none" stroke="#000000" stroke-miterlimit="10" width="12.593" height="19.951"/>
	<path fill="none" stroke="#000000" stroke-miterlimit="10" d="M337.723,963.664c0,1.934-1.567,3.5-3.5,3.5l0,0
		c-1.933,0-3.5-1.566-3.5-3.5v-12.951c0-1.932,1.567-3.5,3.5-3.5l0,0c1.933,0,3.5,1.568,3.5,3.5V963.664z"/>
	<rect x="332.036" y="949.447" fill="none" width="6.875" height="16.328"/>
	<text id="_x31_.447_x0D_" transform="matrix(0 -1 1 0 337.0054 965.7754)" font-family="'MyriadPro-Regular'" font-size="7">1.447</text>
</g>
<g id="A1148">
	<rect x="340.058" y="947.213" fill="none" stroke="#000000" stroke-miterlimit="10" width="41.111" height="26.619"/>
	<path fill="none" stroke="#000000" stroke-miterlimit="10" d="M372.223,960.701c0,1.939-1.572,3.512-3.512,3.512h-14.476
		c-1.94,0-3.512-1.572-3.512-3.512l0,0c0-1.939,1.572-3.512,3.512-3.512h14.476C370.651,957.189,372.223,958.762,372.223,960.701
		L372.223,960.701z"/>
	<rect x="352.848" y="957.951" fill="none" width="17.25" height="5.5"/>
	<text transform="matrix(1 0 0 1 352.8481 962.9209)" font-family="'MyriadPro-Regular'" font-size="7">1.148</text>
</g>
<g id="A1125">
	<rect x="430.428" y="947.213" fill="none" stroke="#000000" stroke-miterlimit="10" width="48.795" height="26.619"/>
	<path fill="none" stroke="#000000" stroke-miterlimit="10" d="M465.723,958.838c0,1.727-1.398,3.125-3.125,3.125h-13.25
		c-1.725,0-3.125-1.398-3.125-3.125l0,0c0-1.725,1.4-3.125,3.125-3.125h13.25C464.324,955.713,465.723,957.113,465.723,958.838
		L465.723,958.838z"/>
	<rect x="447.848" y="956.588" fill="none" width="19.25" height="6.75"/>
	<text transform="matrix(1 0 0 1 447.8477 961.5576)" font-family="'MyriadPro-Regular'" font-size="7">1.125</text>
</g>
<g id="A1123">
	<rect x="479.223" y="947.213" fill="none" stroke="#000000" stroke-miterlimit="10" width="41.25" height="26.619"/>
	<path fill="none" stroke="#000000" stroke-miterlimit="10" d="M510.723,958.275c0,2.037-1.65,3.688-3.688,3.688h-12.75
		c-2.035,0-3.688-1.65-3.688-3.688l0,0c0-2.035,1.652-3.688,3.688-3.688h12.75C509.072,954.588,510.723,956.24,510.723,958.275
		L510.723,958.275z"/>
	<rect x="491.598" y="955.963" fill="none" width="21.25" height="8"/>
	<text transform="matrix(1 0 0 1 491.5977 960.9326)" font-family="'MyriadPro-Regular'" font-size="7">1.123</text>
</g>
<g id="A1122">
	<rect x="520.473" y="947.213" fill="none" stroke="#000000" stroke-miterlimit="10" width="12" height="17"/>
	<path fill="none" stroke="#000000" stroke-miterlimit="10" d="M522.473,950.338c0-1.725,1.4-3.125,3.125-3.125l0,0
		c1.727,0,3.125,1.4,3.125,3.125v8.5c0,1.727-1.398,3.125-3.125,3.125l0,0c-1.725,0-3.125-1.398-3.125-3.125V950.338z"/>
	<rect x="523.566" y="947.65" fill="none" width="5.812" height="13.875"/>
	<text transform="matrix(4.489659e-11 -1 1 4.489659e-11 527.8262 961.5254)" font-family="'MyriadPro-Regular'" font-size="6">1.122</text>
</g>
<g id="A1121">
	<rect x="532.473" y="932.963" fill="none" stroke="#000000" stroke-miterlimit="10" width="38" height="37.5"/>
	<path fill="none" stroke="#000000" stroke-miterlimit="10" d="M560.973,951.463c0,2.348-1.902,4.25-4.25,4.25h-10.875
		c-2.348,0-4.25-1.902-4.25-4.25l0,0c0-2.348,1.902-4.25,4.25-4.25h10.875C559.07,947.213,560.973,949.115,560.973,951.463
		L560.973,951.463z"/>
	<rect x="542.91" y="948.701" fill="none" width="16.75" height="9.25"/>
	<text transform="matrix(1 0 0 1 542.9102 953.6709)" font-family="'MyriadPro-Regular'" font-size="7">1.121</text>
</g>
<g id="A1120">
	<rect x="532.473" y="920.463" fill="none" stroke="#000000" stroke-miterlimit="10" width="18.25" height="12.5"/>
	<path fill="none" stroke="#000000" stroke-miterlimit="10" d="M550.723,927.213c0,2.209-1.57,4-3.51,4h-11.23
		c-1.938,0-3.51-1.791-3.51-4l0,0c0-2.209,1.572-4,3.51-4h11.23C549.152,923.213,550.723,925.004,550.723,927.213L550.723,927.213z"
		/>
	<rect x="533.66" y="924.213" fill="none" width="18.5" height="6"/>
	<text transform="matrix(1 0 0 1 533.6602 929.1826)" font-family="'MyriadPro-Regular'" font-size="7">1.120</text>
</g>
<g id="A1118">
	<rect x="532.473" y="883.213" fill="none" stroke="#000000" stroke-miterlimit="10" width="24.75" height="37.25"/>
	<path fill="none" stroke="#000000" stroke-miterlimit="10" d="M555.223,902.338c0,2.141-1.895,3.875-4.23,3.875h-12.287
		c-2.336,0-4.232-1.734-4.232-3.875l0,0c0-2.139,1.896-3.875,4.232-3.875h12.287C553.328,898.463,555.223,900.199,555.223,902.338
		L555.223,902.338z"/>
	<rect x="536.973" y="899.838" fill="none" width="17.5" height="6.375"/>
	<text transform="matrix(1 0 0 1 536.9727 904.8076)" font-family="'MyriadPro-Regular'" font-size="7">1.118</text>
</g>
<g id="A1150">
	<rect x="381.168" y="947.213" fill="none" stroke="#000000" stroke-miterlimit="10" width="49.259" height="26.619"/>
	<path fill="none" stroke="#000000" stroke-miterlimit="10" d="M416.973,959.963c0,2.348-1.902,4.25-4.25,4.25h-11.5
		c-2.346,0-4.25-1.902-4.25-4.25l0,0c0-2.348,1.904-4.25,4.25-4.25h11.5C415.07,955.713,416.973,957.615,416.973,959.963
		L416.973,959.963z"/>
	<rect x="399.148" y="957.021" fill="none" width="17.824" height="7"/>
	<text transform="matrix(1 0 0 1 399.1484 961.9912)" font-family="'MyriadPro-Regular'" font-size="7">1.150</text>
</g>
<g id="A1145">
	<rect x="304.473" y="924.201" fill="none" stroke="#000000" stroke-miterlimit="10" width="22.992" height="11.482"/>
	<path fill="none" stroke="#000000" stroke-miterlimit="10" d="M327.465,930.338c0,2.002-2.09,3.625-4.669,3.625h-11.904
		c-2.579,0-4.669-1.623-4.669-3.625l0,0c0-2.002,2.09-3.625,4.669-3.625h11.904C325.375,926.713,327.465,928.336,327.465,930.338
		L327.465,930.338z"/>
	<rect x="308.219" y="927.213" fill="none" width="17.25" height="6.25"/>
	<text transform="matrix(1 0 0 1 308.2192 932.1826)" font-family="'MyriadPro-Regular'" font-size="7">1.145</text>
</g>
<g id="A1112">
	<rect x="532.473" y="782.963" fill="none" stroke="#000000" stroke-miterlimit="10" width="24.75" height="38"/>
	<path fill="none" stroke="#000000" stroke-miterlimit="10" d="M555.223,802.588c0,2.279-1.846,4.125-4.125,4.125h-12.5
		c-2.277,0-4.125-1.846-4.125-4.125l0,0c0-2.277,1.848-4.125,4.125-4.125h12.5C553.377,798.463,555.223,800.311,555.223,802.588
		L555.223,802.588z"/>
	<rect x="535.848" y="798.9" fill="none" width="18.25" height="7.375"/>
	<text transform="matrix(1 0 0 1 535.8477 803.8701)" font-family="'MyriadPro-Regular'" font-size="7">1.112</text>
</g>
<g id="A1113">
	<rect x="532.473" y="820.963" fill="none" stroke="#000000" stroke-miterlimit="10" width="24.75" height="25"/>
	<path fill="none" stroke="#000000" stroke-miterlimit="10" d="M555.223,833.9c0,2.52-2.043,4.562-4.562,4.562h-11.625
		c-2.52,0-4.562-2.043-4.562-4.562l0,0c0-2.52,2.043-4.562,4.562-4.562h11.625C553.18,829.338,555.223,831.381,555.223,833.9
		L555.223,833.9z"/>
	<rect x="536.598" y="831.463" fill="none" width="16.5" height="7.5"/>
	<text transform="matrix(1 0 0 1 536.5977 836.4326)" font-family="'MyriadPro-Regular'" font-size="7">1.111</text>
</g>
<g id="A1117">
	<rect x="532.473" y="845.963" fill="none" stroke="#000000" stroke-miterlimit="10" width="24.75" height="37.25"/>
	<path fill="none" stroke="#000000" stroke-miterlimit="10" d="M555.223,865.088c0,2.002-1.75,3.625-3.91,3.625h-12.678
		c-2.16,0-3.912-1.623-3.912-3.625l0,0c0-2.002,1.752-3.625,3.912-3.625h12.678C553.473,861.463,555.223,863.086,555.223,865.088
		L555.223,865.088z"/>
	<rect x="535.973" y="861.9" fill="none" width="19.5" height="6.375"/>
	<text transform="matrix(1 0 0 1 535.9727 866.8701)" font-family="'MyriadPro-Regular'" font-size="7">1.117</text>
</g>
<g id="A1100">
	<rect x="532.473" y="745.963" fill="none" stroke="#000000" stroke-miterlimit="10" width="24.75" height="37"/>
	<path fill="none" stroke="#000000" stroke-miterlimit="10" d="M555.223,765.547c0,2.301-1.648,4.166-3.682,4.166h-13.385
		c-2.035,0-3.684-1.865-3.684-4.166l0,0c0-2.301,1.648-4.166,3.684-4.166h13.385C553.574,761.381,555.223,763.246,555.223,765.547
		L555.223,765.547z"/>
	<rect x="535.598" y="763.047" fill="none" width="18" height="7.5"/>
	<text transform="matrix(1 0 0 1 535.5977 768.0166)" font-family="'MyriadPro-Regular'" font-size="7">1.109</text>
</g>
<g id="A1142">
	<rect x="357.473" y="872.713" fill="none" stroke="#000000" stroke-miterlimit="10" width="25.75" height="12.6"/>
	<path fill="none" stroke="#000000" stroke-miterlimit="10" d="M360.613,878.338c0-1.588,1.288-2.875,2.875-2.875h12.61
		c1.588,0,2.875,1.287,2.875,2.875l0,0c0,1.588-1.287,2.875-2.875,2.875h-12.61C361.9,881.213,360.613,879.926,360.613,878.338
		L360.613,878.338z"/>
	<rect x="361.473" y="875.701" fill="none" width="17.75" height="6.625"/>
	<text transform="matrix(1 0 0 1 361.4731 880.6699)" font-family="'MyriadPro-Regular'" font-size="7">1.142</text>
</g>
<g id="A1137">
	<rect x="357.473" y="835.213" fill="none" stroke="#000000" stroke-miterlimit="10" width="25.75" height="13.434"/>
	<path fill="none" stroke="#000000" stroke-miterlimit="10" d="M380.223,842.463c0,2.209-1.791,4-4,4h-11.5c-2.209,0-4-1.791-4-4
		l0,0c0-2.209,1.791-4,4-4h11.5C378.432,838.463,380.223,840.254,380.223,842.463L380.223,842.463z"/>
	<rect x="362.598" y="840.338" fill="none" width="16.75" height="6.75"/>
	<text transform="matrix(1 0 0 1 362.5981 845.3076)" font-family="'MyriadPro-Regular'" font-size="7">1.137</text>
</g>
<g id="A1136">
	<rect x="357.473" y="822.713" fill="none" stroke="#000000" stroke-miterlimit="10" width="25.75" height="12.5"/>
	<path fill="none" stroke="#000000" stroke-miterlimit="10" d="M380.223,829.338c0,2.279-1.847,4.125-4.125,4.125h-11.25
		c-2.278,0-4.125-1.846-4.125-4.125l0,0c0-2.277,1.847-4.125,4.125-4.125h11.25C378.376,825.213,380.223,827.061,380.223,829.338
		L380.223,829.338z"/>
	<rect x="362.098" y="826.463" fill="none" width="17.75" height="7.5"/>
	<text transform="matrix(1 0 0 1 362.0981 831.4326)" font-family="'MyriadPro-Regular'" font-size="7">1.138</text>
</g>
<g id="A1133">
	<rect x="357.473" y="810.713" fill="none" stroke="#000000" stroke-miterlimit="10" width="25.75" height="12"/>
	<path fill="none" stroke="#000000" stroke-miterlimit="10" d="M380.223,817.213c0,2.07-1.315,3.75-2.938,3.75h-13.625
		c-1.623,0-2.938-1.68-2.938-3.75l0,0c0-2.07,1.315-3.75,2.938-3.75h13.625C378.908,813.463,380.223,815.143,380.223,817.213
		L380.223,817.213z"/>
	<rect x="362.098" y="815.088" fill="none" width="20" height="7"/>
	<text transform="matrix(1 0 0 1 362.0981 820.0576)" font-family="'MyriadPro-Regular'" font-size="7">1.133</text>
</g>
<g id="A1132">
	<rect x="357.473" y="798.463" fill="none" stroke="#000000" stroke-miterlimit="10" width="25.75" height="12.25"/>
	<path fill="none" stroke="#000000" stroke-miterlimit="10" d="M381.223,805.338c0,1.865-1.511,3.375-3.375,3.375h-13.75
		c-1.864,0-3.375-1.51-3.375-3.375l0,0c0-1.863,1.511-3.375,3.375-3.375h13.75C379.712,801.963,381.223,803.475,381.223,805.338
		L381.223,805.338z"/>
	<rect x="361.723" y="802.869" fill="none" width="18.5" height="6.812"/>
	<text transform="matrix(1 0 0 1 361.7231 807.8389)" font-family="'MyriadPro-Regular'" font-size="7">1.132</text>
</g>
<g id="A1128">
	<rect x="357.473" y="786.055" fill="none" stroke="#000000" stroke-miterlimit="10" width="25.75" height="12.408"/>
	<path fill="none" stroke="#000000" stroke-miterlimit="10" d="M380.223,792.338c0,2.279-1.847,4.125-4.125,4.125h-11.25
		c-2.278,0-4.125-1.846-4.125-4.125l0,0c0-2.277,1.847-4.125,4.125-4.125h11.25C378.376,788.213,380.223,790.061,380.223,792.338
		L380.223,792.338z"/>
	<rect x="363.473" y="788.883" fill="none" width="19.75" height="6.75"/>
	<text transform="matrix(1 0 0 1 363.4731 793.8525)" font-family="'MyriadPro-Regular'" font-size="7">1.128</text>
</g>
<g id="A1149">
	<rect x="383.223" y="909.963" fill="none" stroke="#000000" stroke-miterlimit="10" width="47.25" height="18.5"/>
	<path fill="none" stroke="#000000" stroke-miterlimit="10" d="M416.973,918.213c0,2.072-1.678,3.75-3.75,3.75h-12.5
		c-2.07,0-3.75-1.678-3.75-3.75l0,0c0-2.07,1.68-3.75,3.75-3.75h12.5C415.295,914.463,416.973,916.143,416.973,918.213
		L416.973,918.213z"/>
	<rect x="398.223" y="915.338" fill="none" width="17.5" height="5.75"/>
	<text transform="matrix(1 0 0 1 398.2227 920.3076)" font-family="'MyriadPro-Regular'" font-size="7">1.149</text>
</g>
<g id="A1124">
	<rect x="430.473" y="909.963" fill="none" stroke="#000000" stroke-miterlimit="10" width="46.75" height="18.5"/>
	<path fill="none" stroke="#000000" stroke-miterlimit="10" d="M465.723,918.213c0,2.072-1.678,3.75-3.75,3.75h-12
		c-2.07,0-3.75-1.678-3.75-3.75l0,0c0-2.07,1.68-3.75,3.75-3.75h12C464.045,914.463,465.723,916.143,465.723,918.213
		L465.723,918.213z"/>
	<rect x="447.098" y="915.338" fill="none" width="17.75" height="5.75"/>
	<text transform="matrix(1 0 0 1 447.0977 920.3076)" font-family="'MyriadPro-Regular'" font-size="7">1.124</text>
</g>
<g id="A1106">
	<rect x="477.223" y="796.463" fill="none" stroke="#000000" stroke-miterlimit="10" width="25" height="12.25"/>
	<path fill="none" stroke="#000000" stroke-miterlimit="10" d="M500.723,802.588c0,2.279-2.021,4.125-4.516,4.125h-11.219
		c-2.494,0-4.516-1.846-4.516-4.125l0,0c0-2.277,2.021-4.125,4.516-4.125h11.219C498.701,798.463,500.723,800.311,500.723,802.588
		L500.723,802.588z"/>
	<rect x="481.848" y="799.463" fill="none" width="17.5" height="6.25"/>
	<text transform="matrix(1 0 0 1 481.8477 804.4326)" font-family="'MyriadPro-Regular'" font-size="7">1.108</text>
</g>
<g id="A1107">
	<rect x="477.223" y="808.713" fill="none" stroke="#000000" stroke-miterlimit="10" width="25" height="12.75"/>
	<path fill="none" stroke="#000000" stroke-miterlimit="10" d="M500.723,815.588c0,2.141-1.734,3.875-3.875,3.875h-12.5
		c-2.139,0-3.875-1.734-3.875-3.875l0,0c0-2.139,1.736-3.875,3.875-3.875h12.5C498.988,811.713,500.723,813.449,500.723,815.588
		L500.723,815.588z"/>
	<rect x="481.848" y="813.213" fill="none" width="17.5" height="8.25"/>
	<text transform="matrix(1 0 0 1 481.8477 818.1826)" font-family="'MyriadPro-Regular'" font-size="7">1.107</text>
</g>
<g id="A1110">
	<rect x="477.223" y="821.463" fill="none" stroke="#000000" stroke-miterlimit="10" width="25" height="12.5"/>
	<path fill="none" stroke="#000000" stroke-miterlimit="10" d="M498.973,828.588c0,1.865-1.51,3.375-3.375,3.375h-11.75
		c-1.863,0-3.375-1.51-3.375-3.375l0,0c0-1.863,1.512-3.375,3.375-3.375h11.75C497.463,825.213,498.973,826.725,498.973,828.588
		L498.973,828.588z"/>
	<rect x="481.723" y="825.275" fill="none" width="17.75" height="6.625"/>
	<text transform="matrix(1 0 0 1 481.7227 830.2451)" font-family="'MyriadPro-Regular'" font-size="7">1.110</text>
</g>
<g id="A1111">
	<rect x="477.223" y="833.963" fill="none" stroke="#000000" stroke-miterlimit="10" width="25" height="12.5"/>
	<path fill="none" stroke="#000000" stroke-miterlimit="10" d="M500.723,840.213c0,1.934-1.566,3.5-3.5,3.5h-13.25
		c-1.932,0-3.5-1.566-3.5-3.5l0,0c0-1.932,1.568-3.5,3.5-3.5h13.25C499.156,836.713,500.723,838.281,500.723,840.213
		L500.723,840.213z"/>
	<rect x="481.973" y="837.963" fill="none" width="17.25" height="7"/>
	<text transform="matrix(1 0 0 1 481.9727 842.9326)" font-family="'MyriadPro-Regular'" font-size="7">1.111</text>
</g>
<g id="A1115">
	<rect x="477.223" y="870.963" fill="none" stroke="#000000" stroke-miterlimit="10" width="25" height="13.25"/>
	<path fill="none" stroke="#000000" stroke-miterlimit="10" d="M500.723,877.463c0,2.072-1.678,3.75-3.75,3.75h-12.75
		c-2.07,0-3.75-1.678-3.75-3.75l0,0c0-2.07,1.68-3.75,3.75-3.75h12.75C499.045,873.713,500.723,875.393,500.723,877.463
		L500.723,877.463z"/>
	<rect x="482.223" y="874.338" fill="none" width="16.75" height="6.5"/>
	<text transform="matrix(1 0 0 1 482.2227 879.3076)" font-family="'MyriadPro-Regular'" font-size="7">1.115</text>
</g>
<g id="A1213">
	<polygon fill="none" stroke="#000000" stroke-miterlimit="10" points="532.473,733.047 538.055,699.713 586.055,708.381 
		581.389,738.713 557.223,736.047 557.223,733.713 	"/>
	<path fill="none" stroke="#000000" stroke-miterlimit="10" d="M557.223,728.088c0,2.141-1.734,3.875-3.875,3.875h-12.75
		c-2.139,0-3.875-1.734-3.875-3.875l0,0c0-2.139,1.736-3.875,3.875-3.875h12.75C555.488,724.213,557.223,725.949,557.223,728.088
		L557.223,728.088z"/>
	<rect x="538.223" y="725.463" fill="none" width="17.5" height="8.75"/>
	<text transform="matrix(1 0 0 1 538.2227 730.4326)" font-family="'MyriadPro-Regular'" font-size="7">1.213</text>
</g>
<g id="MIsc">
	<polyline fill="none" stroke="#000000" stroke-miterlimit="10" points="252.723,339.38 252.723,403.713 191.723,403.713 
		191.723,456.713 112.056,456.713 112.056,519.047 292.223,517.714 	"/>
	<path fill="none" stroke="#000000" stroke-miterlimit="10" d="M215.223,351.713"/>
	<rect x="316.473" y="572.463" fill="none" stroke="#000000" stroke-miterlimit="10" width="60.083" height="99.25"/>
	<rect x="343.723" y="572.463" fill="none" stroke="#000000" stroke-miterlimit="10" width="32.833" height="14.25"/>
	<rect x="360.14" y="586.713" fill="none" stroke="#000000" stroke-miterlimit="10" width="16.417" height="12.25"/>
	<rect x="352.428" y="656.213" fill="none" stroke="#000000" stroke-miterlimit="10" width="24.128" height="15.5"/>
	<polygon fill="none" stroke="#000000" stroke-miterlimit="10" points="544.848,649.963 551.723,594.213 600.723,600.713 
		592.973,656.463 	"/>
	<polyline fill="none" stroke="#000000" stroke-miterlimit="10" points="544.848,649.963 541.723,669.213 590.223,676.213 
		586.055,707.213 	"/>
	<polygon fill="none" stroke="#000000" stroke-miterlimit="10" points="480.973,621.213 485.723,585.463 512.973,588.713 
		509.057,624.963 	"/>
	<polyline fill="none" stroke="#000000" stroke-miterlimit="10" points="480.973,621.213 474.973,669.963 465.473,671.213 
		463.473,681.713 479.473,681.713 	"/>
	<path fill="none" stroke="#000000" stroke-miterlimit="10" d="M487.473,681.713c0.75,0.25,23.5,0,23.5,0l8.125-56"/>
	<rect x="277.724" y="517.714" fill="none" stroke="#000000" stroke-miterlimit="10" width="14.5" height="14.999"/>
	<rect x="277.724" y="532.713" fill="none" stroke="#000000" stroke-miterlimit="10" width="14.5" height="24.336"/>
	<rect x="292.223" y="532.713" fill="none" stroke="#000000" stroke-miterlimit="10" width="36" height="24.336"/>
	<rect x="306.557" y="516.379" fill="none" stroke="#000000" stroke-miterlimit="10" width="13.167" height="16.334"/>
	<polyline fill="none" stroke="#000000" stroke-miterlimit="10" points="268.391,506.545 268.391,496.378 319.724,496.378 
		319.724,516.379 	"/>
	<path fill="none" stroke="#000000" stroke-miterlimit="10" d="M300.557,467.045c0,0-0.501,29.333,0,29.333"/>
	<line fill="none" stroke="#000000" stroke-miterlimit="10" x1="376.556" y1="555.209" x2="328.224" y2="555.209"/>
	<path fill="none" stroke="#000000" stroke-miterlimit="10" d="M390.473,557.049v-23.004l0.334,157.164h20.334
		c0,0-0.5-11.992,0-11.496s35.666,0,35.666,0v20.084h-35.916l0.25-8.588"/>
	<polyline fill="none" stroke="#000000" stroke-miterlimit="10" points="446.723,696.832 433.48,696.832 433.48,694.004 
		446.723,694.004 445.723,692.414 433.582,692.465 433.246,690.164 446.807,690.131 473.973,690.131 474.557,681.824 
		463.473,681.713 462.807,690.131 	"/>
	<line fill="none" stroke="#000000" stroke-miterlimit="10" x1="523.781" y1="591.473" x2="551.723" y2="594.213"/>
	<polygon fill="none" stroke="#000000" stroke-miterlimit="10" points="529.391,591.473 529.391,582.713 550.057,585.463 
		550.057,594.051 	"/>
	<polyline fill="none" stroke="#000000" stroke-miterlimit="10" points="316.473,671.713 263.89,671.713 263.89,737.047 
		327.465,736.547 327.465,749.018 303.021,749.018 303.021,736.738 	"/>
	<path fill="none" stroke="#000000" stroke-miterlimit="10" d="M328.224,730.047c0,0,27.167-9.166,0-23.166V730.047z"/>
	<line fill="none" stroke="#000000" stroke-miterlimit="10" x1="263.89" y1="699.797" x2="338.224" y2="699.713"/>
	<line fill="none" stroke="#000000" stroke-miterlimit="10" x1="344.39" y1="699.713" x2="349.39" y2="699.713"/>
	<polyline fill="none" stroke="#000000" stroke-miterlimit="10" points="304.724,671.713 304.724,680.881 316.473,680.881 
		316.473,676.297 	"/>
	<polyline fill="none" stroke="#000000" stroke-miterlimit="10" points="333.224,699.713 333.224,679.713 316.473,679.713 
		316.473,690.881 333.224,690.881 	"/>
	<polyline fill="none" stroke="#000000" stroke-miterlimit="10" points="277.724,557.049 277.724,572.463 316.473,572.463 	"/>
	<polyline fill="none" stroke="#000000" stroke-miterlimit="10" points="376.556,676.297 376.556,699.23 359.02,699.713 	"/>
	<rect x="490.057" y="58.047" fill="none" width="202" height="72"/>
	<text transform="matrix(1 0 0 1 490.0566 83.6064)" font-family="'MyriadPro-Regular'" font-size="36">1st Floor</text>
	<path fill="none" stroke="#000000" stroke-miterlimit="10" d="M160.226,428.964c0,2.439-1.978,4.417-4.417,4.417h-11.833
		c-2.439,0-4.417-1.978-4.417-4.417l0,0c0-2.439,1.978-4.417,4.417-4.417h11.833C158.249,424.547,160.226,426.524,160.226,428.964
		L160.226,428.964z"/>
	<path fill="#FFFFFF" d="M343.284,373.795"/>
	<path fill="none" stroke="#000000" stroke-miterlimit="10" d="M328.224,373.795h18.291c4.124,1.582,0,3.918,0,3.918l-22.624,8.748
		l4.333,9.085l27.167-11.333c8.667-14.833-4.5-20.836-4.5-20.836h-22.667V373.795v0.584"/>
	<polyline fill="none" stroke="#000000" stroke-miterlimit="10" points="328.631,384.628 329.705,384.213 334.325,393.034 
		333.252,393.449 	"/>
	<polyline fill="none" stroke="#000000" stroke-miterlimit="10" points="336.802,391.968 332.391,382.877 334.596,382.321 
		338.707,391.173 341.117,390.044 336.754,381.487 338.672,380.746 343.284,388.831 345.534,388.325 341.117,379.8 343.284,378.962 
		347.368,387.56 349.25,386.775 345.569,378.078 347.583,376.908 351.249,385.941 353.224,384.628 348.124,376.233 356.207,382.713 
			"/>
	<polyline fill="none" stroke="#000000" stroke-miterlimit="10" points="330.557,373.795 330.557,363.377 332.391,363.377 
		332.391,373.795 334.325,373.795 334.325,363.377 336.391,363.377 336.391,373.795 338.557,373.795 338.557,363.377 
		341.117,363.377 341.117,373.795 343.284,373.795 343.284,363.377 345.224,363.377 345.224,373.795 346.515,373.795 
		347.891,363.377 350.224,363.377 347.644,374.379 352.753,364.505 	"/>
	<line fill="none" stroke="#000000" stroke-miterlimit="10" x1="346.515" y1="376.233" x2="346.515" y2="375.38"/>
	<path fill="none" stroke="#000000" stroke-miterlimit="10" d="M373.391,371.38"/>
	<polyline fill="none" stroke="#000000" stroke-miterlimit="10" points="477.223,914.463 490.598,914.463 490.598,927.213 
		477.223,927.213 	"/>
	<polyline fill="none" stroke="#000000" stroke-miterlimit="10" points="490.598,925.381 477.223,925.381 477.223,923.213 
		490.598,923.213 490.598,920.838 477.223,921.088 477.223,918.213 490.598,918.213 490.598,916.047 477.223,916.047 	"/>
	<rect x="370.037" y="915.588" fill="none" stroke="#000000" stroke-miterlimit="10" width="13.375" height="12.75"/>
	<polyline fill="none" stroke="#000000" stroke-miterlimit="10" points="383.412,926.506 370.037,926.506 370.037,924.338 
		383.412,924.338 383.412,921.963 370.037,922.213 370.037,919.338 383.412,919.338 383.412,917.172 370.037,917.172 	"/>
	<polyline fill="none" stroke="#000000" stroke-miterlimit="10" points="317.973,690.881 317.973,679.713 319.723,679.713 
		319.723,690.881 321.598,690.881 321.348,679.713 322.973,679.713 322.973,690.881 324.848,690.881 324.848,679.713 
		326.661,679.713 326.661,690.881 328.224,690.881 328.224,679.463 330.286,679.463 330.286,690.881 331.661,690.881 
		331.661,679.713 	"/>
	<polygon fill="none" stroke="#000000" stroke-miterlimit="10" points="292.223,535.963 309.723,535.963 310.223,553.963 
		292.223,553.963 	"/>
	<polyline fill="none" stroke="#000000" stroke-miterlimit="10" points="293.473,535.963 293.473,553.963 294.973,553.963 
		294.973,535.963 296.348,535.963 296.348,553.963 297.723,553.963 297.723,535.963 299.473,535.963 299.473,553.963 
		301.223,553.963 301.223,535.963 302.973,535.963 302.973,553.963 304.473,553.963 304.473,535.963 306.557,535.963 
		306.557,553.963 308.223,553.963 308.223,535.963 	"/>
	<polyline fill="none" stroke="#000000" stroke-miterlimit="10" points="292.223,538.963 309.807,538.963 309.807,542.045 
		292.223,542.045 292.223,544.338 309.971,544.881 309.971,547.088 292.223,547.088 292.223,549.588 310.102,549.588 
		310.223,552.088 292.223,552.088 	"/>
	<path fill="none" stroke="#000000" stroke-miterlimit="10" d="M288.057,152.88"/>
	<rect x="276.226" y="143.046" fill="none" stroke="#000000" stroke-miterlimit="10" width="18.331" height="18"/>
	<path fill="none" stroke="#000000" stroke-miterlimit="10" d="M277.723,143.046v18h2.125v-18h2.208v18h1.564l-0.022-18h1.793v18
		h1.957v-18h1.792v18h1.875v-18c0,0,1.708-0.667,1.708,0s0,18,0,18"/>
	<polyline fill="none" stroke="#000000" stroke-miterlimit="10" points="276.226,158.546 294.557,158.546 294.557,155.38 
		276.226,155.38 276.226,152.88 294.557,152.88 294.557,150.213 276.226,150.213 276.226,147.713 294.557,147.713 294.557,145.546 
		276.226,145.546 	"/>
	<polyline fill="none" stroke="#000000" stroke-miterlimit="10" points="208.723,503.963 216.647,501.059 210.39,508.213 	"/>
	<polyline fill="none" stroke="#000000" stroke-miterlimit="10" points="210.39,496.378 216.647,501.059 208.723,501.059 	"/>
	<polyline fill="none" stroke="#000000" stroke-miterlimit="10" points="213.223,493.838 216.647,501.059 216.973,493.088 	"/>
	<polyline fill="none" stroke="#000000" stroke-miterlimit="10" points="222.723,495.088 216.647,501.059 219.973,493.088 	"/>
	<polyline fill="none" stroke="#000000" stroke-miterlimit="10" points="225.348,497.073 217.285,501.544 217.285,510.116 
		217.285,499.944 213.156,510.116 	"/>
	<line fill="none" stroke="#000000" stroke-miterlimit="10" x1="226.223" y1="501.713" x2="216.395" y2="501.713"/>
	<ellipse fill="none" stroke="#000000" stroke-miterlimit="10" cx="217.161" cy="501.808" rx="9.25" ry="9.219"/>
	<path fill="none" stroke="#000000" stroke-miterlimit="10" d="M539.725,584.088c0.408,0.055,0,8.756,0,8.756h1.998v-8.756
		l1.969,0.529v8.227l1.852,0.645v-8.625l1.861,0.246v8.379l1.463,0.414v-8.598"/>
	<polyline fill="none" stroke="#000000" stroke-miterlimit="10" points="539.904,586.877 550.057,588.381 550.057,590.713 
		539.904,589.879 	"/>
	<g id="Layer_2">
		<polygon fill="none" stroke="#000000" stroke-miterlimit="10" points="324.724,156.048 324.724,98.048 337.339,98.048 
			337.339,83.381 384.39,83.381 384.39,156.048 		"/>
	</g>
</g>
</svg>
