<?xml version="1.0" encoding="utf-8"?>
<!-- Generator: Adobe Illustrator 16.0.0, SVG Export Plug-In . SVG Version: 6.00 Build 0)  -->
<!DOCTYPE svg PUBLIC "-//W3C//DTD SVG 1.1//EN" "http://www.w3.org/Graphics/SVG/1.1/DTD/svg11.dtd">
<svg version="1.1" xmlns="http://www.w3.org/2000/svg" xmlns:xlink="http://www.w3.org/1999/xlink" x="0px" y="0px" viewBox="0 0 768 1024" enable-background="new 0 0 768 1024" xml:space="preserve">
<g id="Layer_2">
</g>
<g id="B202">
	
		<rect id="b202class" x="376.232" y="40.846" fill="none" stroke="#000000" stroke-miterlimit="10" width="65.867" height="70.258"/>
	<path id="b202oval" fill="none" stroke="#000000" stroke-miterlimit="10" d="M419.777,74.328c0,2.526-2.047,4.574-4.574,4.574
		h-13.539c-2.526,0-4.574-2.048-4.574-4.574l0,0c0-2.526,2.048-4.574,4.574-4.574h13.539
		C417.73,69.754,419.777,71.802,419.777,74.328L419.777,74.328z"/>
	<rect x="400.383" y="71.584" fill="none" width="16.101" height="5.489"/>
	<text id="b202text" transform="matrix(1 0 0 1 400.3828 76.2603)" font-family="'MyriadPro-Regular'" font-size="6.5867">B202</text>
</g>
<g id="B203">
	
		<rect id="b203class_2_" x="376.232" y="111.104" fill="none" stroke="#000000" stroke-miterlimit="10" width="65.867" height="66.599"/>
	<path id="b203oval_2_" fill="none" stroke="#000000" stroke-miterlimit="10" d="M419.777,145.136c0,2.627-2.13,4.757-4.757,4.757
		h-13.174c-2.627,0-4.757-2.13-4.757-4.757l0,0c0-2.628,2.13-4.757,4.757-4.757h13.174
		C417.647,140.378,419.777,142.508,419.777,145.136L419.777,145.136z"/>
	<rect x="400.565" y="142.939" fill="none" width="15.735" height="6.953"/>
	<text id="b203text_2_" transform="matrix(1 0 0 1 400.5664 147.6162)" font-family="'MyriadPro-Regular'" font-size="6.5867">B203</text>
</g>
<g id="B204">
	
		<rect id="b204class" x="376.232" y="177.703" fill="none" stroke="#000000" stroke-miterlimit="10" width="65.867" height="66.234"/>
	<path id="b204oval" fill="none" stroke="#000000" stroke-miterlimit="10" d="M419.777,210.821c0,2.324-1.883,4.208-4.207,4.208
		h-14.272c-2.324,0-4.208-1.884-4.208-4.208l0,0c0-2.324,1.884-4.208,4.208-4.208h14.272
		C417.895,206.613,419.777,208.497,419.777,210.821L419.777,210.821z"/>
	<rect x="399.835" y="208.26" fill="none" width="17.199" height="5.123"/>
	<text id="b204text" transform="matrix(1 0 0 1 399.835 212.9365)" font-family="'MyriadPro-Regular'" font-size="6.5867">B204</text>
</g>
<g id="B205">
	
		<rect id="b205class_2_" x="376.232" y="243.938" fill="none" stroke="#000000" stroke-miterlimit="10" width="65.867" height="68.794"/>
	<path id="b205oval_2_" fill="none" stroke="#000000" stroke-miterlimit="10" d="M421.607,274.492c0,2.122-1.721,3.842-3.842,3.842
		h-16.834c-2.121,0-3.842-1.72-3.842-3.842l0,0c0-2.122,1.721-3.842,3.842-3.842h16.834
		C419.887,270.65,421.607,272.37,421.607,274.492L421.607,274.492z"/>
	<rect x="401.48" y="272.113" fill="none" width="13.906" height="6.222"/>
	<text id="b205text_2_" transform="matrix(1 0 0 1 401.4795 276.7905)" font-family="'MyriadPro-Regular'" font-size="6.5867">B205</text>
</g>
<g id="B208">
	
		<rect id="b208class" x="292.437" y="90.977" fill="none" stroke="#000000" stroke-miterlimit="10" width="40.984" height="25.249"/>
	<path id="b208oval" fill="none" stroke="#000000" stroke-miterlimit="10" d="M325.004,104.15c0,2.425-1.966,4.391-4.391,4.391
		H305.61c-2.425,0-4.391-1.966-4.391-4.391l0,0c0-2.425,1.966-4.391,4.391-4.391h15.003
		C323.038,99.759,325.004,101.725,325.004,104.15L325.004,104.15z"/>
	<rect x="304.879" y="101.223" fill="none" width="16.101" height="5.854"/>
	<text id="b208text" transform="matrix(1 0 0 1 304.8784 105.8994)" font-family="'MyriadPro-Regular'" font-size="6.5867">B208</text>
</g>
<g id="B209">
	
		<rect id="b209class_2_" x="292.437" y="116.226" fill="none" stroke="#000000" stroke-miterlimit="10" width="40.984" height="21.224"/>
	<path id="b209oval_2_" fill="none" stroke="#000000" stroke-miterlimit="10" d="M325.004,127.386c0,2.122-1.72,3.842-3.842,3.842
		h-16.101c-2.122,0-3.842-1.72-3.842-3.842l0,0c0-2.123,1.72-3.842,3.842-3.842h16.101
		C323.284,123.544,325.004,125.264,325.004,127.386L325.004,127.386z"/>
	<rect x="304.147" y="125.373" fill="none" width="17.564" height="8.233"/>
	<text id="b209text_2_" transform="matrix(1 0 0 1 304.147 130.0498)" font-family="'MyriadPro-Regular'" font-size="6.5867">B209</text>
</g>
<g id="B210">
	
		<rect id="b210class" x="292.437" y="137.449" fill="none" stroke="#000000" stroke-miterlimit="10" width="62.94" height="18.296"/>
	<path id="b210oval" fill="none" stroke="#000000" stroke-miterlimit="10" d="M335.617,148.428c0,2.223-1.801,4.024-4.024,4.024
		h-17.566c-2.223,0-4.024-1.801-4.024-4.024l0,0c0-2.222,1.802-4.024,4.024-4.024h17.566
		C333.815,144.403,335.617,146.206,335.617,148.428L335.617,148.428z"/>
	<rect x="313.112" y="146.233" fill="none" width="17.199" height="7.318"/>
	<text id="b210text" transform="matrix(1 0 0 1 313.1128 150.9102)" font-family="'MyriadPro-Regular'" font-size="6.5867">B210</text>
</g>
<g id="B124">
	
		<rect id="b124class_4_" x="292.437" y="155.746" fill="none" stroke="#000000" stroke-miterlimit="10" width="62.94" height="135.76"/>
	<path id="b124oval_2_" fill="none" stroke="#000000" stroke-miterlimit="10" d="M335.617,219.327c0,2.375-2.211,4.299-4.939,4.299
		H314.94c-2.727,0-4.938-1.924-4.938-4.299l0,0c0-2.374,2.211-4.298,4.938-4.298h15.738
		C333.406,215.029,335.617,216.953,335.617,219.327L335.617,219.327z"/>
	<rect x="313.844" y="216.034" fill="none" width="14.271" height="6.587"/>
	<text id="b124class_1_" transform="matrix(1 0 0 1 313.8438 220.7109)" font-family="'MyriadPro-Regular'" font-size="6.5867">B124</text>
</g>
<g id="B220">
	
		<rect id="b220class" x="292.437" y="291.506" fill="none" stroke="#000000" stroke-miterlimit="10" width="40.252" height="53.79"/>
	<path id="b220oval" fill="none" stroke="#000000" stroke-miterlimit="10" d="M322.809,317.304c0,2.525-2.047,4.572-4.572,4.572
		h-13.178c-2.525,0-4.572-2.047-4.572-4.572l0,0c0-2.524,2.047-4.572,4.572-4.572h13.178
		C320.762,312.732,322.809,314.779,322.809,317.304L322.809,317.304z"/>
	<rect x="303.829" y="315.334" fill="none" width="15.64" height="6.134"/>
	<text id="b220text" transform="matrix(1 0 0 1 303.8291 320.0112)" font-family="'MyriadPro-Regular'" font-size="6.5867">B220</text>
</g>
<g id="B221">
	
		<rect id="b221class_2_" x="292.437" y="345.296" fill="none" stroke="#000000" stroke-miterlimit="10" width="40.252" height="30.925"/>
	<path id="b221oval_2_" fill="none" stroke="#000000" stroke-miterlimit="10" d="M323.907,360.852c0,2.274-1.843,4.117-4.117,4.117
		h-15.186c-2.274,0-4.117-1.843-4.117-4.117l0,0c0-2.274,1.843-4.117,4.117-4.117h15.186
		C322.063,356.735,323.907,358.578,323.907,360.852L323.907,360.852z"/>
	<rect x="304.787" y="358.107" fill="none" width="13.723" height="6.861"/>
	<text id="b221text_2_" transform="matrix(1 0 0 1 304.7876 362.7847)" font-family="'MyriadPro-Regular'" font-size="6.5867">B221</text>
</g>
<g id="B222">
	
		<rect id="b222class" x="333.784" y="383.082" fill="none" stroke="#000000" stroke-miterlimit="10" width="21.956" height="29.641"/>
	<path id="b222oval" fill="none" stroke="#000000" stroke-miterlimit="10" d="M348.329,406.273c0,2.35-1.904,4.254-4.254,4.254l0,0
		c-2.349,0-4.254-1.904-4.254-4.254v-13.997c0-2.35,1.905-4.254,4.254-4.254l0,0c2.35,0,4.254,1.904,4.254,4.254V406.273z"/>
	<rect x="341.743" y="391.865" fill="none" width="6.038" height="14.82"/>
	<text id="b222text" transform="matrix(0 -1 1 0 346.4199 406.6846)" font-family="'MyriadPro-Regular'" font-size="6.5867">B222</text>
</g>
<g id="B223">
	
		<rect id="b223class_2_" x="308.26" y="376.221" fill="none" stroke="#000000" stroke-miterlimit="10" width="24.429" height="36.501"/>
	<path id="b223oval_2_" fill="none" stroke="#000000" stroke-miterlimit="10" d="M325.55,402.431c0,2.35-1.905,4.254-4.254,4.254
		l0,0c-2.35,0-4.254-1.904-4.254-4.254v-15.095c0-2.349,1.904-4.254,4.254-4.254l0,0c2.349,0,4.254,1.905,4.254,4.254V402.431z"/>
	<rect x="318.209" y="386.65" fill="none" width="6.176" height="15.644"/>
	<text id="b223text_2_" transform="matrix(0 -1 1 0 322.8857 402.2939)" font-family="'MyriadPro-Regular'" font-size="6.5867">B223</text>
</g>
<g id="B224">
	
		<rect id="b224class" x="248.156" y="376.221" fill="none" stroke="#000000" stroke-miterlimit="10" width="60.104" height="36.501"/>
	<path id="b224oval" fill="none" stroke="#000000" stroke-miterlimit="10" d="M292.437,394.197c0,2.046-1.659,3.705-3.705,3.705
		h-16.287c-2.046,0-3.705-1.659-3.705-3.705l0,0c0-2.046,1.659-3.705,3.705-3.705h16.287
		C290.777,390.492,292.437,392.151,292.437,394.197L292.437,394.197z"/>
	<rect x="272.308" y="391.865" fill="none" width="14.135" height="7.223"/>
	<text id="b224text" transform="matrix(1 0 0 1 272.3081 396.542)" font-family="'MyriadPro-Regular'" font-size="6.5867">B224</text>
</g>
<g id="B225">
	
		<rect id="b225class_2_" x="219.339" y="376.221" fill="none" stroke="#000000" stroke-miterlimit="10" width="28.817" height="36.501"/>
	<path id="b225oval_2_" fill="none" stroke="#000000" stroke-miterlimit="10" d="M245.137,394.79c0,2.374-1.924,4.298-4.298,4.298
		h-13.634c-2.374,0-4.298-1.924-4.298-4.298l0,0c0-2.374,1.924-4.298,4.298-4.298h13.634
		C243.213,390.492,245.137,392.417,245.137,394.79L245.137,394.79z"/>
	<rect x="226.063" y="392.002" fill="none" width="15.918" height="6.949"/>
	<text id="b225text_2_" transform="matrix(1 0 0 1 226.0635 396.6797)" font-family="'MyriadPro-Regular'" font-size="6.5867">B225</text>
</g>
<g id="B226">
	
		<rect id="b226class" x="197.658" y="376.221" fill="none" stroke="#000000" stroke-miterlimit="10" width="21.682" height="36.501"/>
	<path id="b226oval" fill="none" stroke="#000000" stroke-miterlimit="10" d="M213.301,405.861c0,2.577-2.089,4.666-4.666,4.666l0,0
		c-2.577,0-4.666-2.089-4.666-4.666v-14.546c0-2.577,2.089-4.666,4.666-4.666l0,0c2.577,0,4.666,2.089,4.666,4.666V405.861z"/>
	<rect x="206.122" y="389.943" fill="none" width="7.224" height="15.095"/>
	<text id="b226text" transform="matrix(0 -1 1 0 210.7993 405.0381)" font-family="'MyriadPro-Regular'" font-size="6.5867">B226</text>
</g>
<g id="B227">
	
		<rect id="b227class_2_" x="169.665" y="376.221" fill="none" stroke="#000000" stroke-miterlimit="10" width="27.993" height="36.501"/>
	<path id="b227oval_2_" fill="none" stroke="#000000" stroke-miterlimit="10" d="M195.188,396.393c0,2.501-2.027,4.528-4.528,4.528
		h-13.448c-2.501,0-4.528-2.027-4.528-4.528l0,0c0-2.5,2.027-4.528,4.528-4.528h13.448
		C193.161,391.865,195.188,393.893,195.188,396.393L195.188,396.393z"/>
	<rect x="176.114" y="393.374" fill="none" width="15.095" height="6.038"/>
	<text id="b227text_2_" transform="matrix(1 0 0 1 176.1147 398.0503)" font-family="'MyriadPro-Regular'" font-size="6.5867">B227</text>
</g>
<g id="B234">
	<rect id="b234class" x="94.191" y="376.221" fill="none" stroke="#000000" stroke-miterlimit="10" width="27.719" height="24.7"/>
	<path id="b234oval" fill="none" stroke="#000000" stroke-miterlimit="10" d="M119.166,390.561c0,2.16-1.751,3.911-3.911,3.911
		h-15.232c-2.16,0-3.911-1.75-3.911-3.911l0,0c0-2.16,1.751-3.911,3.911-3.911h15.232
		C117.415,386.65,119.166,388.401,119.166,390.561L119.166,390.561z"/>
	<rect x="100.504" y="388.297" fill="none" width="14.271" height="6.587"/>
	<text id="b234text" transform="matrix(1 0 0 1 100.5039 392.9736)" font-family="'MyriadPro-Regular'" font-size="6.5867">B234</text>
</g>
<g id="B235">
	
		<rect id="b235class_2_" x="94.191" y="400.921" fill="none" stroke="#000000" stroke-miterlimit="10" width="27.719" height="22.779"/>
	<path id="b235oval_2_" fill="none" stroke="#000000" stroke-miterlimit="10" d="M119.166,412.448c0,2.122-1.72,3.842-3.842,3.842
		H99.955c-2.122,0-3.842-1.72-3.842-3.842l0,0c0-2.123,1.72-3.842,3.842-3.842h15.369
		C117.446,408.606,119.166,410.326,119.166,412.448L119.166,412.448z"/>
	<rect x="100.093" y="410.527" fill="none" width="15.095" height="6.586"/>
	<text id="b235text_2_" transform="matrix(1 0 0 1 100.0923 415.2036)" font-family="'MyriadPro-Regular'" font-size="6.5867">B235</text>
</g>
<g id="B236">
	<rect id="b236class" x="94.191" y="423.7" fill="none" stroke="#000000" stroke-miterlimit="10" width="27.719" height="24.7"/>
	<path id="b236oval" fill="none" stroke="#000000" stroke-miterlimit="10" d="M119.166,437.56c0,2.198-1.782,3.979-3.979,3.979
		h-15.095c-2.197,0-3.979-1.782-3.979-3.979l0,0c0-2.198,1.782-3.979,3.979-3.979h15.095
		C117.384,433.581,119.166,435.362,119.166,437.56L119.166,437.56z"/>
	<rect x="99.749" y="434.541" fill="none" width="15.781" height="6.038"/>
	<text id="b236text" transform="matrix(1 0 0 1 99.7495 439.2183)" font-family="'MyriadPro-Regular'" font-size="6.5867">B236</text>
</g>
<g id="B237">
	
		<rect id="b237class_2_" x="94.191" y="448.4" fill="none" stroke="#000000" stroke-miterlimit="10" width="27.719" height="47.205"/>
	<path id="b237oval_2_" fill="none" stroke="#000000" stroke-miterlimit="10" d="M119.166,469.945c0,2.198-1.782,3.979-3.979,3.979
		h-15.095c-2.197,0-3.979-1.782-3.979-3.979l0,0c0-2.198,1.782-3.979,3.979-3.979h15.095
		C117.384,465.965,119.166,467.747,119.166,469.945L119.166,469.945z"/>
	<rect x="101.122" y="467.612" fill="none" width="14.408" height="6.312"/>
	<text id="b237text_2_" transform="matrix(1 0 0 1 101.1216 472.2891)" font-family="'MyriadPro-Regular'" font-size="6.5867">B237</text>
</g>
<g id="B240">
	
		<rect id="b240class" x="132.065" y="502.192" fill="none" stroke="#000000" stroke-miterlimit="10" width="21.682" height="37.05"/>
	<path id="b240oval" fill="none" stroke="#000000" stroke-miterlimit="10" d="M138.652,512.896c0-2.349,1.904-4.254,4.254-4.254l0,0
		c2.35,0,4.254,1.905,4.254,4.254v15.644c0,2.349-1.904,4.254-4.254,4.254l0,0c-2.35,0-4.254-1.905-4.254-4.254V512.896z"/>
	<rect x="140.437" y="513.308" fill="none" width="5.214" height="14.546"/>
	<text id="b240text" transform="matrix(0 -1 1 0 145.1123 527.8525)" font-family="'MyriadPro-Regular'" font-size="6.5867">B240</text>
</g>
<g id="B241">
	
		<rect id="b241class_2_" x="153.747" y="502.192" fill="none" stroke="#000000" stroke-miterlimit="10" width="22.367" height="37.05"/>
	<path id="b241oval_2_" fill="none" stroke="#000000" stroke-miterlimit="10" d="M168.292,531.695c0,2.197-1.782,3.979-3.979,3.979
		l0,0c-2.198,0-3.979-1.782-3.979-3.979v-16.192c0-2.198,1.782-3.979,3.979-3.979l0,0c2.198,0,3.979,1.781,3.979,3.979V531.695z"/>
	<rect x="162.117" y="514.954" fill="none" width="5.627" height="15.095"/>
	<text id="b241text_2_" transform="matrix(0 -1 1 0 166.7939 530.0479)" font-family="'MyriadPro-Regular'" font-size="6.5867">B241</text>
</g>
<g id="B242">
	
		<rect id="b242class" x="176.114" y="488.744" fill="none" stroke="#000000" stroke-miterlimit="10" width="84.667" height="50.498"/>
	<path id="b242oval" fill="none" stroke="#000000" stroke-miterlimit="10" d="M229.768,516.052c0,2.501-2.027,4.528-4.528,4.528
		H210.65c-2.501,0-4.528-2.027-4.528-4.528l0,0c0-2.501,2.027-4.528,4.528-4.528h14.589
		C227.741,511.523,229.768,513.551,229.768,516.052L229.768,516.052z"/>
	<rect x="210.215" y="512.964" fill="none" width="16.467" height="6.176"/>
	<text id="b242text" transform="matrix(1 0 0 1 210.2148 517.6416)" font-family="'MyriadPro-Regular'" font-size="6.5867">B242</text>
</g>
<g id="B243">
	
		<rect id="b243class_2_" x="260.781" y="500.545" fill="none" stroke="#000000" stroke-miterlimit="10" width="25.661" height="38.697"/>
	<path id="b243oval_2_" fill="none" stroke="#000000" stroke-miterlimit="10" d="M268.74,512.484c0-2.122,1.72-3.843,3.842-3.843
		l0,0c2.122,0,3.842,1.721,3.842,3.843v16.467c0,2.121-1.72,3.842-3.842,3.842l0,0c-2.122,0-3.842-1.721-3.842-3.842V512.484z"/>
	<rect x="269.632" y="513.376" fill="none" width="7.959" height="14.683"/>
	<text id="b243text_2_" transform="matrix(0 -1 1 0 274.3091 528.0596)" font-family="'MyriadPro-Regular'" font-size="6.5867">B243</text>
</g>
<g id="B213">
	
		<rect id="b213class" x="391.601" y="399.412" fill="none" stroke="#000000" stroke-miterlimit="10" width="56.72" height="112.112"/>
	<path id="b213oval" fill="none" stroke="#000000" stroke-miterlimit="10" d="M431.486,455.264c0,2.324-1.884,4.208-4.208,4.208
		h-13.905c-2.324,0-4.208-1.884-4.208-4.208l0,0c0-2.325,1.884-4.208,4.208-4.208h13.905
		C429.603,451.055,431.486,452.939,431.486,455.264L431.486,455.264z"/>
	<rect x="412.459" y="452.154" fill="none" width="15.735" height="6.219"/>
	<text id="b213text" transform="matrix(1 0 0 1 412.459 456.8311)" font-family="'MyriadPro-Regular'" font-size="6.5867">B213</text>
</g>
<g id="B214">
	
		<rect id="b214class_2_" x="264.623" y="423.973" fill="none" stroke="#000000" stroke-miterlimit="10" width="91.117" height="66.599"/>
	<path id="b214oval_2_" fill="none" stroke="#000000" stroke-miterlimit="10" d="M323.562,457.641c0,3.031-2.457,5.487-5.487,5.487
		h-19.629c-3.03,0-5.487-2.456-5.487-5.487l0,0c0-3.03,2.457-5.487,5.487-5.487h19.629
		C321.105,452.154,323.562,454.61,323.562,457.641L323.562,457.641z"/>
	<rect x="299.821" y="454.622" fill="none" width="16.879" height="6.038"/>
	<text id="b214text_2_" transform="matrix(1 0 0 1 299.8203 459.2988)" font-family="'MyriadPro-Regular'" font-size="6.5867">B214</text>
</g>
<g id="B244">
	<polygon id="b244class" fill="none" stroke="#000000" stroke-miterlimit="10" points="286.441,500.545 339.821,500.545 
		339.821,511.523 335.614,511.523 335.248,539.242 286.441,539.242 	"/>
	<path id="b244oval" fill="none" stroke="#000000" stroke-miterlimit="10" d="M323.907,519.825c0,2.084-1.689,3.773-3.773,3.773
		h-18.437c-2.084,0-3.773-1.689-3.773-3.773l0,0c0-2.084,1.689-3.773,3.773-3.773h18.437
		C322.217,516.052,323.907,517.741,323.907,519.825L323.907,519.825z"/>
	<rect x="303.413" y="517.287" fill="none" width="15.004" height="6.587"/>
	<text id="b244text" transform="matrix(1 0 0 1 303.4136 521.9639)" font-family="'MyriadPro-Regular'" font-size="6.5867">B244</text>
</g>
<g id="A2107">
	
		<rect id="_x32_.107class_2_" x="335.248" y="539.242" fill="none" stroke="#000000" stroke-miterlimit="10" width="29.274" height="50.499"/>
	<path id="_x32_.107oval_2_" fill="none" stroke="#000000" stroke-miterlimit="10" d="M362.326,563.394
		c0,2.274-1.843,4.117-4.117,4.117h-15.644c-2.274,0-4.117-1.843-4.117-4.117l0,0c0-2.273,1.843-4.116,4.117-4.116h15.644
		C360.483,559.277,362.326,561.12,362.326,563.394L362.326,563.394z"/>
	<rect x="342.154" y="560.375" fill="none" width="16.468" height="6.038"/>
	<text id="_x32_.107text_2_" transform="matrix(1 0 0 1 342.1548 565.0518)" font-family="'MyriadPro-Regular'" font-size="6.5867">2.107</text>
</g>
<g id="A2108">
	
		<rect id="_x32_.108class" x="373.304" y="537.87" fill="none" stroke="#000000" stroke-miterlimit="10" width="34.306" height="45.284"/>
	<path id="_x32_.108oval" fill="none" stroke="#000000" stroke-miterlimit="10" d="M402.743,560.512
		c0,2.388-2.214,4.323-4.945,4.323h-14.684c-2.73,0-4.944-1.936-4.944-4.323l0,0c0-2.387,2.214-4.322,4.944-4.322h14.684
		C400.529,556.189,402.743,558.125,402.743,560.512L402.743,560.512z"/>
	<rect x="382.361" y="557.974" fill="none" width="16.192" height="7.547"/>
	<text id="_x32_.108text" transform="matrix(1 0 0 1 382.3613 562.6504)" font-family="'MyriadPro-Regular'" font-size="6.5867">2.108</text>
</g>
<g id="A2109">
	
		<rect id="_x32_.109class_2_" x="335.248" y="589.741" fill="none" stroke="#000000" stroke-miterlimit="10" width="29.274" height="52.145"/>
	<path id="_x32_.109oval_2_" fill="none" stroke="#000000" stroke-miterlimit="10" d="M362.326,615.813
		c0,2.121-1.72,3.842-3.842,3.842h-16.192c-2.122,0-3.842-1.721-3.842-3.842l0,0c0-2.122,1.72-3.843,3.842-3.843h16.192
		C360.606,611.971,362.326,613.691,362.326,615.813L362.326,615.813z"/>
	<rect x="341.743" y="613" fill="none" width="17.29" height="5.626"/>
	<text id="_x32_.109text_2_" transform="matrix(1 0 0 1 341.7427 617.6777)" font-family="'MyriadPro-Regular'" font-size="6.5867">2.109</text>
</g>
<g id="A2110">
	
		<rect id="_x32_.108class_1_" x="373.304" y="583.154" fill="none" stroke="#000000" stroke-miterlimit="10" width="34.306" height="35.472"/>
	<path id="_x32_.110oval" fill="none" stroke="#000000" stroke-miterlimit="10" d="M402.743,600.444
		c0,2.273-1.844,4.116-4.117,4.116h-15.167c-2.274,0-4.117-1.843-4.117-4.116l0,0c0-2.274,1.843-4.117,4.117-4.117h15.167
		C400.899,596.327,402.743,598.17,402.743,600.444L402.743,600.444z"/>
	<rect x="383.001" y="597.871" fill="none" width="14.914" height="6.038"/>
	
		<text id="_x32_.110text_x0D_" transform="matrix(1 0 0 1 383.0015 602.5488)" font-family="'MyriadPro-Regular'" font-size="6.5867">2.110</text>
</g>
<g id="A2117">
	
		<rect id="_x32_.117class_2_" x="373.304" y="618.626" fill="none" stroke="#000000" stroke-miterlimit="10" width="34.306" height="11.458"/>
	<path id="_x32_.117oval_2_" fill="none" stroke="#000000" stroke-miterlimit="10" d="M379.342,624.32
		c0-1.971,1.542-3.567,3.447-3.567h16.372c1.903,0,3.446,1.597,3.446,3.567l0,0c0,1.97-1.543,3.566-3.446,3.566h-16.372
		C380.884,627.887,379.342,626.29,379.342,624.32L379.342,624.32z"/>
	<text id="_x32_.117text_2_" transform="matrix(1 0 0 1 383.001 626.7549)" font-family="'MyriadPro-Regular'" font-size="6.5867">2.117</text>
</g>
<g id="A2124">
	<polygon id="_x32_.124class" fill="none" stroke="#000000" stroke-miterlimit="10" points="335.248,674.271 303.32,674.271 
		303.32,684.425 273.611,684.425 273.611,641.886 335.248,641.886 335.248,643.258 	"/>
	<path id="_x32_.124oval" fill="none" stroke="#000000" stroke-miterlimit="10" d="M307.985,661.646c0,2.122-1.72,3.843-3.842,3.843
		h-15.095c-2.122,0-3.842-1.721-3.842-3.843l0,0c0-2.121,1.72-3.842,3.842-3.842h15.095
		C306.266,657.804,307.985,659.524,307.985,661.646L307.985,661.646z"/>
	<rect x="288.397" y="658.49" fill="none" width="16.398" height="6.312"/>
	<text id="_x32_.124text" transform="matrix(1 0 0 1 288.3975 663.167)" font-family="'MyriadPro-Regular'" font-size="6.5867">2.124</text>
</g>
<g id="A2123">
	
		<rect id="_x32_.123class_2_" x="273.611" y="684.425" fill="none" stroke="#000000" stroke-miterlimit="10" width="98.32" height="33.208"/>
	<path id="_x32_.123oval_2_" fill="none" stroke="#000000" stroke-miterlimit="10" d="M364.521,701.578
		c0,2.197-1.782,3.979-3.979,3.979h-16.741c-2.198,0-3.979-1.782-3.979-3.979l0,0c0-2.198,1.782-3.979,3.979-3.979h16.741
		C362.739,697.599,364.521,699.38,364.521,701.578L364.521,701.578z"/>
	<rect x="343.39" y="699.245" fill="none" width="15.644" height="6.312"/>
	
		<text id="_x32_.123text_x0D__2_" transform="matrix(1 0 0 1 343.3892 703.9229)" font-family="'MyriadPro-Regular'" font-size="6.5867">2.123</text>
	
		<rect id="_x32_.123aclass_2_" x="349.153" y="717.633" fill="none" stroke="#000000" stroke-miterlimit="10" width="22.778" height="12.258"/>
	<path id="_x32_.123aoval_2_" fill="none" stroke="#000000" stroke-miterlimit="10" d="M350.148,723.526
		c0-2.491,1.796-4.511,4.012-4.511h11.943c2.215,0,4.01,2.02,4.01,4.511l0,0c0,2.489-1.795,4.508-4.01,4.508H354.16
		C351.945,728.034,350.148,726.016,350.148,723.526L350.148,723.526z"/>
	<rect x="351.958" y="720.8" fill="none" width="17.563" height="5.451"/>
	
		<text id="_x32_.123atext_2_" transform="matrix(0.8918 0 0 1 351.958 725.2939)" font-family="'MyriadPro-Regular'" font-size="6.3301">2.123A</text>
</g>
<g id="A2127">
	
		<rect id="_x32_.127class" x="371.932" y="684.425" fill="none" stroke="#000000" stroke-miterlimit="10" width="35.678" height="17.153"/>
	<path id="_x32_.127oval" fill="none" stroke="#000000" stroke-miterlimit="10" d="M402.606,693.207
		c0,2.425-1.966,4.392-4.391,4.392h-15.655c-2.425,0-4.391-1.967-4.391-4.392l0,0c0-2.425,1.966-4.391,4.391-4.391h15.655
		C400.641,688.816,402.606,690.782,402.606,693.207L402.606,693.207z"/>
	<rect x="382.155" y="690.051" fill="none" width="16.467" height="6.312"/>
	
		<text id="_x32_.127text_x0D_" transform="matrix(1 0 0 1 382.1558 694.7285)" font-family="'MyriadPro-Regular'" font-size="6.5867">2.127</text>
</g>
<g id="A2128">
	
		<rect id="_x32_.128class_2_" x="371.932" y="701.578" fill="none" stroke="#000000" stroke-miterlimit="10" width="35.678" height="16.055"/>
	<path id="_x32_.128oval_2_" fill="none" stroke="#000000" stroke-miterlimit="10" d="M402.606,709.674
		c0,2.274-1.843,4.117-4.116,4.117h-16.204c-2.274,0-4.117-1.843-4.117-4.117l0,0c0-2.273,1.843-4.116,4.117-4.116h16.204
		C400.764,705.558,402.606,707.4,402.606,709.674L402.606,709.674z"/>
	<rect x="380.989" y="706.93" fill="none" width="17.564" height="5.489"/>
	<text id="_x32_.128text_2_" transform="matrix(1 0 0 1 380.9888 711.6064)" font-family="'MyriadPro-Regular'" font-size="6.5867">2.128</text>
</g>
<g id="A2118">
	
		<rect id="_x32_.118class" x="380.988" y="630.084" fill="none" stroke="#000000" stroke-miterlimit="10" width="26.621" height="10.43"/>
	<path id="_x32_.118oval" fill="none" stroke="#000000" stroke-miterlimit="10" d="M386.05,635.298c0-1.535,1.245-2.78,2.78-2.78
		h10.642c1.536,0,2.781,1.245,2.781,2.78l0,0c0,1.536-1.245,2.781-2.781,2.781H388.83
		C387.295,638.079,386.05,636.834,386.05,635.298L386.05,635.298z"/>
	<rect x="387.973" y="633.033" fill="none" width="12.358" height="4.531"/>
	<text id="_x32_.118text" transform="matrix(1 0 0 1 387.9727 636.543)" font-family="'MyriadPro-Regular'" font-size="4.9433">2.118</text>
</g>
<g id="A2119">
	
		<rect id="_x32_.119class_2_" x="380.988" y="640.514" fill="none" stroke="#000000" stroke-miterlimit="10" width="26.621" height="11.526"/>
	<path id="_x32_.119oval_2_" fill="none" stroke="#000000" stroke-miterlimit="10" d="M385.711,646.276
		c0-1.693,1.207-3.066,2.695-3.066h11.786c1.489,0,2.695,1.373,2.695,3.066l0,0c0,1.694-1.206,3.067-2.695,3.067h-11.786
		C386.918,649.344,385.711,647.971,385.711,646.276L385.711,646.276z"/>
	<rect x="387.668" y="644.378" fill="none" width="11.994" height="3.798"/>
	
		<text id="_x32_.119text_x0D__2_" transform="matrix(1 0 0 1 387.668 647.7842)" font-family="'MyriadPro-Regular'" font-size="4.7978">2.119</text>
</g>
<g id="A2125">
	
		<rect id="_x32_.125class" x="303.32" y="674.271" fill="none" stroke="#000000" stroke-miterlimit="10" width="16.192" height="10.154"/>
	<path id="_x32_.125oval" fill="none" stroke="#000000" stroke-miterlimit="10" d="M315.429,676.895
		c1.244,0,2.254,1.009,2.254,2.254l0,0c0,1.244-1.01,2.253-2.254,2.253h-8.746c-1.245,0-2.254-1.009-2.254-2.253l0,0
		c0-1.245,1.009-2.254,2.254-2.254H315.429z"/>
	<rect x="306.458" y="677.384" fill="none" width="10.468" height="3.94"/>
	<text id="_x32_.125text" transform="matrix(1 0 0 1 306.458 680.3896)" font-family="'MyriadPro-Regular'" font-size="4.2343">2.125</text>
</g>
<g id="A2126">
	
		<rect id="_x32_.126class_2_" x="319.512" y="674.271" fill="none" stroke="#000000" stroke-miterlimit="10" width="15.735" height="9.515"/>
	<path id="_x32_.126oval_2_" fill="none" stroke="#000000" stroke-miterlimit="10" d="M334.377,679.341
		c0,1.472-1.211,2.663-2.704,2.663h-8.555c-1.493,0-2.704-1.191-2.704-2.663l0,0c0-1.472,1.211-2.664,2.704-2.664h8.555
		C333.166,676.677,334.377,677.869,334.377,679.341L334.377,679.341z"/>
	
		<rect x="322.331" y="677.488" transform="matrix(0.9997 -0.0263 0.0263 0.9997 -17.793 8.8745)" fill="none" width="11.12" height="4.385"/>
	<text id="_x32_.126text_2_" transform="matrix(1 0 0 1 322.3501 680.5)" font-family="'MyriadPro-Regular'" font-size="4.4481">2.126</text>
</g>
<g id="A2130">
	
		<rect id="_x32_.130class" x="407.609" y="684.425" fill="none" stroke="#000000" stroke-miterlimit="10" width="53.335" height="33.208"/>
	<path id="_x32_.130oval" fill="none" stroke="#000000" stroke-miterlimit="10" d="M446.308,700.96c0,2.539-2.058,4.598-4.597,4.598
		h-13.676c-2.539,0-4.598-2.059-4.598-4.598l0,0c0-2.538,2.059-4.597,4.598-4.597h13.676
		C444.25,696.363,446.308,698.422,446.308,700.96L446.308,700.96z"/>
	<rect x="427.006" y="698.216" fill="none" width="15.734" height="5.489"/>
	<text id="_x32_.130text" transform="matrix(1 0 0 1 427.0059 702.8926)" font-family="'MyriadPro-Regular'" font-size="6.5867">2.130</text>
</g>
<g id="A2131">
	
		<rect id="_x32_.131class_2_" x="460.944" y="684.425" fill="none" stroke="#000000" stroke-miterlimit="10" width="54.342" height="33.208"/>
	<path id="_x32_.131oval_2_" fill="none" stroke="#000000" stroke-miterlimit="10" d="M501.381,700.959
		c0,2.54-1.895,4.599-4.23,4.599h-16.056c-2.337,0-4.231-2.059-4.231-4.599l0,0c0-2.537,1.895-4.596,4.231-4.596h16.056
		C499.486,696.363,501.381,698.422,501.381,700.959L501.381,700.959z"/>
	<rect x="481.348" y="698.033" fill="none" width="15.551" height="5.854"/>
	<text id="_x32_.131text_2_" transform="matrix(1 0 0 1 481.3477 702.71)" font-family="'MyriadPro-Regular'" font-size="6.5867">2.131</text>
</g>
<g id="A2134_1_">
	
		<rect id="_x32_.132class" x="515.286" y="684.425" fill="none" stroke="#000000" stroke-miterlimit="10" width="52.328" height="33.208"/>
	<path id="_x32_.132oval" fill="none" stroke="#000000" stroke-miterlimit="10" d="M553.709,700.96c0,2.539-2.059,4.598-4.597,4.598
		h-13.494c-2.539,0-4.598-2.059-4.598-4.598l0,0c0-2.538,2.059-4.597,4.598-4.597h13.494
		C551.65,696.363,553.709,698.422,553.709,700.96L553.709,700.96z"/>
	<rect x="534.361" y="698.056" fill="none" width="16.01" height="5.946"/>
	<text id="_x32_.132text" transform="matrix(1 0 0 1 534.3613 702.7314)" font-family="'MyriadPro-Regular'" font-size="6.5867">2.132</text>
</g>
<g id="A2120">
	
		<rect id="_x32_.120aclass_2_" x="380.988" y="652.04" fill="none" stroke="#000000" stroke-miterlimit="10" width="13.311" height="12.762"/>
	
		<rect id="_x32_.120bclass_2_" x="394.094" y="652.04" fill="none" stroke="#000000" stroke-miterlimit="10" width="13.311" height="12.762"/>
	<path fill="none" d="M394.027,658.552c0,1.185-1.272,2.146-2.839,2.146h-7.767c-1.567,0-2.838-0.961-2.838-2.146l0,0
		c0-1.186,1.271-2.146,2.838-2.146h7.767C392.755,656.406,394.027,657.366,394.027,658.552L394.027,658.552z"/>
	
		<text id="_x32_.120atext_2_" transform="matrix(1 0 0 1 382.1118 658.8789)" font-family="'MyriadPro-Regular'" font-size="3.4826">2.120A</text>
	<path id="_x32_.120aoval_2_" fill="none" stroke="#000000" stroke-miterlimit="10" d="M393.121,657.983
		c0,1.313-1.388,2.377-3.1,2.377h-5.688c-1.71,0-3.098-1.063-3.098-2.377l0,0c0-1.312,1.387-2.375,3.098-2.375h5.688
		C391.733,655.608,393.121,656.672,393.121,657.983L393.121,657.983z"/>
	<path fill="none" d="M408.138,659.448c0,1.522-1.397,2.758-3.121,2.758h-8.536c-1.723,0-3.12-1.235-3.12-2.758l0,0
		c0-1.522,1.397-2.757,3.12-2.757h8.536C406.74,656.691,408.138,657.926,408.138,659.448L408.138,659.448z"/>
	
		<text id="_x32_.120btext_2_" transform="matrix(1 0 0 1 395.2031 659.1641)" font-family="'MyriadPro-Regular'" font-size="3.4826">2.120B</text>
	<path id="_x32_.120boval_2_" fill="none" stroke="#000000" stroke-miterlimit="10" d="M406.355,658.097
		c0,1.408-1.44,2.549-3.218,2.549h-5.907c-1.776,0-3.218-1.141-3.218-2.549l0,0c0-1.408,1.441-2.549,3.218-2.549h5.907
		C404.915,655.548,406.355,656.688,406.355,658.097L406.355,658.097z"/>
</g>
<g id="A2134">
	<polygon id="_x32_.134class" fill="none" stroke="#000000" stroke-miterlimit="10" points="509.018,656.157 511.214,642.16 
		548.401,642.16 546.343,656.157 	"/>
	<path id="_x32_.134oval" fill="none" stroke="#000000" stroke-miterlimit="10" d="M541.282,649.201
		c0,2.288-1.854,4.143-4.142,4.143h-15.86c-2.288,0-4.143-1.854-4.143-4.143l0,0c0-2.287,1.854-4.143,4.143-4.143h15.86
		C539.428,645.059,541.282,646.914,541.282,649.201L541.282,649.201z"/>
	<rect x="520.398" y="646.413" fill="none" width="16.145" height="5.572"/>
	<text id="_x32_.134text" transform="matrix(1 0 0 1 520.3984 651.2812)" font-family="'MyriadPro-Regular'" font-size="6.8571">2.134</text>
</g>
<g id="A2111">
	<polygon id="_x32_.111class_x0D__2_" fill="none" stroke="#000000" stroke-miterlimit="10" points="509.018,656.157 
		507.783,664.802 536.542,664.802 538.247,656.157 	"/>
	<path id="_x32_.111oval_x0D__2_" fill="none" stroke="#000000" stroke-miterlimit="10" d="M531.727,660.479
		c0,1.862-1.509,3.37-3.371,3.37h-10.682c-1.862,0-3.37-1.508-3.37-3.37l0,0c0-1.862,1.508-3.37,3.37-3.37h10.682
		C530.218,657.109,531.727,658.617,531.727,660.479L531.727,660.479z"/>
	<rect x="517.001" y="658.25" fill="none" width="12.756" height="4.458"/>
	
		<text id="_x32_.111text_x0D__2_" transform="matrix(1 0 0 1 517.001 661.7842)" font-family="'MyriadPro-Regular'" font-size="4.9781">2.111</text>
</g>
<g id="WC">
	<rect x="333.421" y="90.977" fill="none" stroke="#000000" stroke-miterlimit="10" width="22.73" height="13.173"/>
	<path fill="#3F3D3D" stroke="#000000" stroke-miterlimit="10" d="M354.23,97.931c0,1.818-1.474,3.292-3.292,3.292h-12.028
		c-1.818,0-3.292-1.474-3.292-3.292l0,0c0-1.818,1.474-3.292,3.292-3.292h12.028C352.756,94.639,354.23,96.112,354.23,97.931
		L354.23,97.931z"/>
	<rect x="340.533" y="95.576" fill="none" width="8.782" height="4.709"/>
	<text transform="matrix(1 0 0 1 340.5327 99.4731)" fill="#FFFFFF" font-family="'MyriadPro-Regular'" font-size="5.4889">WC</text>
	<rect x="333.421" y="124.642" fill="none" stroke="#000000" stroke-miterlimit="10" width="21.956" height="12.808"/>
	<path fill="#3F3D3D" stroke="#000000" stroke-miterlimit="10" d="M353.455,131.596c0,1.817-1.474,3.292-3.292,3.292h-12.028
		c-1.818,0-3.292-1.474-3.292-3.292l0,0c0-1.818,1.474-3.292,3.292-3.292h12.028C351.981,128.304,353.455,129.778,353.455,131.596
		L353.455,131.596z"/>
	<rect x="339.758" y="129.241" fill="none" width="8.782" height="4.71"/>
	<text transform="matrix(1 0 0 1 339.7583 133.1387)" fill="#FFFFFF" font-family="'MyriadPro-Regular'" font-size="5.4889">WC</text>
	<rect x="333.098" y="319.136" fill="none" stroke="#000000" stroke-miterlimit="10" width="22.642" height="15.781"/>
	<path fill="#3F3D3D" stroke="#000000" stroke-miterlimit="10" d="M353.758,327.705c0,2.24-1.521,4.056-3.396,4.056h-12.404
		c-1.875,0-3.394-1.816-3.394-4.056l0,0c0-2.241,1.519-4.057,3.394-4.057h12.404C352.237,323.648,353.758,325.464,353.758,327.705
		L353.758,327.705z"/>
	<rect x="339.891" y="324.804" fill="none" width="9.057" height="5.803"/>
	<text transform="matrix(0.8369 0 0 1 339.8911 329.6055)" fill="#FFFFFF" font-family="'MyriadPro-Regular'" font-size="6.7632">WC</text>
	<rect x="333.098" y="354.951" fill="none" stroke="#000000" stroke-miterlimit="10" width="22.642" height="15.756"/>
	<path fill="#3F3D3D" stroke="#000000" stroke-miterlimit="10" d="M353.758,363.506c0,2.236-1.521,4.05-3.396,4.05h-12.404
		c-1.875,0-3.394-1.813-3.394-4.05l0,0c0-2.236,1.519-4.05,3.394-4.05h12.404C352.237,359.457,353.758,361.27,353.758,363.506
		L353.758,363.506z"/>
	<rect x="339.632" y="360.609" fill="none" width="9.058" height="5.795"/>
	<text transform="matrix(0.8383 0 0 1 339.6328 365.4033)" fill="#FFFFFF" font-family="'MyriadPro-Regular'" font-size="6.7524">WC</text>
	<rect x="148.414" y="389.943" fill="none" stroke="#000000" stroke-miterlimit="10" width="21.033" height="12.053"/>
	<path fill="#3F3D3D" stroke="#000000" stroke-miterlimit="10" d="M167.945,395.971c0,1.817-1.428,3.292-3.189,3.292h-11.653
		c-1.761,0-3.189-1.474-3.189-3.292l0,0c0-1.818,1.428-3.292,3.189-3.292h11.653C166.517,392.678,167.945,394.152,167.945,395.971
		L167.945,395.971z"/>
	<rect x="154.677" y="393.616" fill="none" width="8.508" height="4.709"/>
	<text transform="matrix(0.9688 0 0 1 154.6758 397.5127)" fill="#FFFFFF" font-family="'MyriadPro-Regular'" font-size="5.4889">WC</text>
	<rect x="148.532" y="402.019" fill="none" stroke="#000000" stroke-miterlimit="10" width="20.796" height="10.704"/>
	<path fill="#3F3D3D" stroke="#000000" stroke-miterlimit="10" d="M167.66,407.557c0,1.693-1.383,3.067-3.089,3.067h-11.282
		c-1.705,0-3.088-1.375-3.088-3.067l0,0c0-1.695,1.383-3.068,3.088-3.068h11.282C166.276,404.489,167.66,405.862,167.66,407.557
		L167.66,407.557z"/>
	<rect x="154.812" y="405.984" fill="none" width="8.236" height="3.87"/>
	<text transform="matrix(1.1418 0 0 1 154.8125 409.186)" fill="#FFFFFF" font-family="'MyriadPro-Regular'" font-size="4.5089">WC</text>
	<rect x="335.248" y="663.155" fill="none" stroke="#000000" stroke-miterlimit="10" width="29.274" height="10.224"/>
	<path fill="#3F3D3D" stroke="#000000" stroke-miterlimit="10" d="M362.52,669.227c0,2.063-1.96,3.738-4.377,3.738h-15.991
		c-2.419,0-4.375-1.675-4.375-3.738l0,0c0-2.066,1.957-3.738,4.375-3.738h15.991C360.56,665.488,362.52,667.16,362.52,669.227
		L362.52,669.227z"/>
	<rect x="344.643" y="666.553" fill="none" width="11.678" height="5.348"/>
	<text transform="matrix(1.1705 0 0 1 344.6436 670.9785)" fill="#FFFFFF" font-family="'MyriadPro-Regular'" font-size="6.2338">WC</text>
</g>
<g id="misc">
	<line fill="none" stroke="#000000" stroke-miterlimit="10" x1="148.414" y1="389.943" x2="148.414" y2="376.221"/>
	<rect x="134.718" y="426.169" fill="none" stroke="#000000" stroke-miterlimit="10" width="126.063" height="62.575"/>
	<rect x="318.049" y="62.072" fill="none" stroke="#000000" stroke-miterlimit="10" width="38.102" height="28.904"/>
	<rect x="356.151" y="62.072" fill="none" stroke="#000000" stroke-miterlimit="10" width="20.081" height="28.904"/>
	<rect x="418.315" y="312.732" fill="none" stroke="#000000" stroke-miterlimit="10" width="23.783" height="86.356"/>
	<line fill="none" stroke="#000000" stroke-miterlimit="10" x1="355.739" y1="370.707" x2="355.739" y2="383.082"/>
	<path fill="none" stroke="#000000" stroke-miterlimit="10" d="M333.506,719.016v264.832h271.433V717.633l44.277,5.893
		c0,0,7.683-73.863,8.781-74.367c1.098-0.504-54.89-8.555-54.89-8.555l3.293-22.321l55.987,8.473l9.148-68.119l-88.921-10.977
		l-15.002,107.889v28.877l-1.466,285.514l-194.31,0.365l0.093-252.671h-38.425V719.016z"/>
	<polygon fill="none" stroke="#000000" stroke-miterlimit="10" points="582.616,547.659 536.542,540.706 523.378,641.886 
		548.401,642.16 546.343,656.157 567.614,655.548 	"/>
	<polyline fill="none" stroke="#000000" stroke-miterlimit="10" points="507.783,664.802 488.115,664.802 488.115,654.328 
		447.587,654.328 447.587,664.802 422.704,664.802 	"/>
	<rect x="407.609" y="652.04" fill="none" stroke="#000000" stroke-miterlimit="10" width="15.828" height="12.762"/>
	<path fill="none" stroke="#000000" stroke-miterlimit="10" d="M409.349,342.777c6.038-5.733,11.601-21.661-6.039-23.641h-24.517
		v10.798c0,0,8.782,0.671,18.297,0c9.664-0.683,0,5.718,0,5.718l-22.322,9.644l4.924,9.655
		C379.691,354.951,407.744,344.3,409.349,342.777z"/>
	<rect x="383.001" y="762.094" fill="none" stroke="#000000" stroke-miterlimit="10" width="172.536" height="163.204"/>
	<rect x="383.001" y="762.094" fill="#666666" stroke="#000000" stroke-miterlimit="10" width="24.608" height="163.204"/>
	<rect x="531.021" y="762.094" fill="#666666" stroke="#000000" stroke-miterlimit="10" width="24.517" height="163.204"/>
	<polyline fill="none" stroke="#000000" stroke-miterlimit="10" points="121.911,495.605 132.065,495.605 132.065,502.192 	"/>
	<rect x="373.304" y="630.084" fill="none" stroke="#000000" stroke-miterlimit="10" width="7.685" height="34.718"/>
	<rect x="377.146" y="511.523" fill="none" stroke="#000000" stroke-miterlimit="10" width="71.174" height="26.347"/>
	<line fill="none" stroke="#000000" stroke-miterlimit="10" x1="370.926" y1="511.523" x2="335.614" y2="511.523"/>
	<polygon fill="none" stroke="#000000" stroke-miterlimit="10" points="337.626,535.035 337.626,515.091 339.821,515.091 
		358.621,515.091 358.621,535.035 	"/>
	<polyline fill="none" stroke="#000000" stroke-miterlimit="10" points="339.821,535.035 339.821,525.063 339.821,520.58 
		339.821,515.091 343.115,515.091 343.115,519.894 343.115,525.063 343.115,529.911 343.115,535.035 345.311,535.035 
		345.311,529.911 345.311,525.063 345.311,520.58 345.311,515.091 348.124,515.091 348.124,519.894 348.124,525.063 
		348.124,529.729 348.124,535.035 350.388,535.035 350.388,530.46 350.388,525.063 350.388,520.718 350.388,515.091 353.27,515.091 
		353.27,520.58 353.27,525.063 353.27,530.095 353.27,535.035 355.739,535.035 355.739,530.278 355.739,525.063 355.739,519.894 
		355.739,515.091 358.621,515.091 358.621,519.894 337.626,519.894 337.626,525.063 358.621,525.063 358.621,530.278 
		337.259,530.186 	"/>
	<polyline fill="none" stroke="#000000" stroke-miterlimit="10" points="380.347,342.885 384.475,353.119 387.066,352.117 
		382.397,342 384.764,340.978 389.088,351.331 391.601,350.011 386.812,340.092 388.716,339.27 393.904,349.441 396.131,348.556 
		390.966,338.298 392.784,337.512 398.262,347.702 400.2,346.917 394.988,336.56 397.09,335.652 402.438,345.994 404.099,345.296 
		399.212,334.038 400.513,332.776 405.821,344.551 	"/>
	<polygon fill="none" stroke="#000000" stroke-miterlimit="10" points="341.194,87.777 322.668,87.777 320.198,87.777 
		320.198,66.919 322.668,66.919 341.194,66.919 	"/>
	<polyline fill="none" stroke="#000000" stroke-miterlimit="10" points="322.806,82.014 322.668,87.777 325.825,87.777 
		325.825,82.014 325.825,76.524 325.825,72.134 325.825,66.919 328.294,66.919 328.294,72.408 328.294,77.073 328.294,82.014 
		328.294,87.777 330.696,87.777 330.696,81.739 330.696,77.348 330.696,72.134 330.696,66.919 333.421,66.919 333.421,72.134 
		333.421,77.348 333.421,81.876 333.421,87.777 335.617,87.777 335.617,81.739 335.617,77.073 335.617,71.584 335.617,66.919 
		338.175,66.919 338.175,72.134 338.175,77.073 338.175,82.288 338.175,87.777 341.194,87.777 341.194,82.151 320.198,81.876 
		320.198,77.348 341.194,77.073 341.194,72.271 320.198,72.408 320.198,69.115 341.194,68.978 341.194,66.919 322.668,66.919 
		322.806,81.328 	"/>
	<path fill="none" stroke="#000000" stroke-miterlimit="10" d="M588.882,548.434c0,0,0.823-10.838,1.235-10.838
		c0.197,0,24.562,2.333,24.562,2.333l-1.539,11.499l-12.586-1.554"/>
	<polyline fill="none" stroke="#000000" stroke-miterlimit="10" points="612.633,540.706 610.605,550.556 607.954,550.787 
		610.439,539.523 607.682,539.349 605.486,550.633 603.001,550.176 605.248,539.77 602.665,539.446 600.555,549.874 	"/>
	<polyline fill="none" stroke="#000000" stroke-miterlimit="10" points="601.239,546.489 613.519,548.602 613.519,545.068 
		601.781,542.124 	"/>
	<polygon fill="none" stroke="#000000" stroke-miterlimit="10" points="488.115,675.23 447.587,675.23 447.587,666.553 
		447.587,664.802 488.115,664.802 488.115,666.553 	"/>
	<polyline fill="none" stroke="#000000" stroke-miterlimit="10" points="447.587,671.9 488.115,671.9 488.115,668.267 
		447.587,668.267 	"/>
	<polyline fill="none" stroke="#000000" stroke-miterlimit="10" points="452.619,664.802 452.619,675.23 458.017,675.23 
		457.834,664.868 460.944,664.868 460.944,675.23 465.244,675.23 465.244,664.868 469.635,664.868 469.544,675.23 473.386,675.23 
		473.478,664.868 476.862,664.868 476.862,675.23 481.345,675.23 481.347,664.868 485.004,664.868 485.004,675.23 	"/>
	<line fill="none" stroke="#000000" stroke-miterlimit="10" x1="355.376" y1="291.506" x2="355.739" y2="319.136"/>
	<circle fill="none" stroke="#000000" stroke-miterlimit="10" cx="248.156" cy="475.752" r="11.161"/>
	<polyline fill="none" stroke="#000000" stroke-miterlimit="10" points="248.156,486.913 248.156,475.752 259.317,475.752 	"/>
	<polyline fill="none" stroke="#000000" stroke-miterlimit="10" points="255.465,467.329 248.156,475.752 248.156,464.591 	"/>
	<polyline fill="none" stroke="#000000" stroke-miterlimit="10" points="240.011,467.966 247.607,475.752 237.074,474.458 	"/>
	<polyline fill="none" stroke="#000000" stroke-miterlimit="10" points="239.326,482.561 248.156,475.752 242.615,485.441 	"/>
	<rect x="94.191" y="362.829" fill="none" stroke="#000000" stroke-miterlimit="10" width="198.245" height="13.392"/>
</g>
</svg>
