<?xml version="1.0" encoding="utf-8"?>
<!-- Generator: Adobe Illustrator 16.0.0, SVG Export Plug-In . SVG Version: 6.00 Build 0)  -->
<!DOCTYPE svg PUBLIC "-//W3C//DTD SVG 1.1//EN" "http://www.w3.org/Graphics/SVG/1.1/DTD/svg11.dtd">
<svg version="1.1" xmlns="http://www.w3.org/2000/svg" xmlns:xlink="http://www.w3.org/1999/xlink" x="0px" y="0px"
	 width="498.889px" height="713.333px" viewBox="0 0 498.889 713.333" enable-background="new 0 0 498.889 713.333"
	 xml:space="preserve">
<g id="_x32_02">
	
		<rect id="b202class" x="296.232" y="9.846" fill="#F7931E" stroke="#000000" stroke-miterlimit="10" width="65.867" height="70.258"/>
</g>
<g id="_x32_03">
	
		<rect id="b203class_2_" x="296.232" y="80.104" fill="#F7931E" stroke="#000000" stroke-miterlimit="10" width="65.867" height="66.599"/>
</g>
<g id="_x32_04">
	
		<rect id="b204class" x="296.232" y="146.703" fill="#F7931E" stroke="#000000" stroke-miterlimit="10" width="65.867" height="66.234"/>
</g>
<g id="_x32_05">
	
		<rect id="b205class_2_" x="296.232" y="212.938" fill="#F7931E" stroke="#000000" stroke-miterlimit="10" width="65.867" height="68.794"/>
</g>
<g id="_x32_08">
	
		<rect id="b208class" x="212.437" y="59.977" fill="none" stroke="#000000" stroke-miterlimit="10" width="40.984" height="25.249"/>
</g>
<g id="_x32_09">
	
		<rect id="b209class_2_" x="212.437" y="85.226" fill="none" stroke="#000000" stroke-miterlimit="10" width="40.984" height="21.224"/>
</g>
<g id="_x32_10">
	
		<rect id="b210class" x="212.437" y="106.449" fill="none" stroke="#000000" stroke-miterlimit="10" width="62.94" height="18.296"/>
</g>
<g id="_x31_24">
	
		<rect id="b124class_4_" x="212.437" y="124.746" fill="#F7931E" stroke="#000000" stroke-miterlimit="10" width="62.94" height="135.76"/>
</g>
<g id="_x32_20">
	
		<rect id="b220class" x="212.437" y="260.506" fill="none" stroke="#000000" stroke-miterlimit="10" width="40.252" height="53.79"/>
</g>
<g id="_x32_21">
	
		<rect id="b221class_2_" x="212.437" y="314.296" fill="none" stroke="#000000" stroke-miterlimit="10" width="40.252" height="30.925"/>
</g>
<g id="_x32_22">
	
		<rect id="b222class" x="253.784" y="352.082" fill="#F7931E" stroke="#000000" stroke-miterlimit="10" width="21.956" height="29.641"/>
</g>
<g id="_x32_23">
	
		<rect id="b223class_2_" x="228.26" y="345.221" fill="none" stroke="#000000" stroke-miterlimit="10" width="24.429" height="36.501"/>
</g>
<g id="_x32_24">
	
		<rect id="b224class" x="168.156" y="345.221" fill="none" stroke="#000000" stroke-miterlimit="10" width="60.104" height="36.501"/>
</g>
<g id="_x32_25">
	
		<rect id="b225class_2_" x="139.339" y="345.221" fill="none" stroke="#000000" stroke-miterlimit="10" width="28.817" height="36.501"/>
</g>
<g id="_x32_26">
	
		<rect id="b226class" x="117.658" y="345.221" fill="none" stroke="#000000" stroke-miterlimit="10" width="21.682" height="36.501"/>
</g>
<g id="_x32_27">
	
		<rect id="b227class_2_" x="89.665" y="345.221" fill="none" stroke="#000000" stroke-miterlimit="10" width="27.993" height="36.501"/>
</g>
<g id="_x32_34">
	<rect id="b234class" x="14.191" y="345.221" fill="none" stroke="#000000" stroke-miterlimit="10" width="27.719" height="24.7"/>
</g>
<g id="_x32_35">
	
		<rect id="b235class_2_" x="14.191" y="369.921" fill="none" stroke="#000000" stroke-miterlimit="10" width="27.719" height="22.779"/>
</g>
<g id="_x32_36">
	<rect id="b236class" x="14.191" y="392.7" fill="none" stroke="#000000" stroke-miterlimit="10" width="27.719" height="24.7"/>
</g>
<g id="_x32_37">
	
		<rect id="b237class_2_" x="14.191" y="417.4" fill="none" stroke="#000000" stroke-miterlimit="10" width="27.719" height="47.205"/>
</g>
<g id="_x32_40">
	<rect id="b240class" x="52.065" y="471.192" fill="none" stroke="#000000" stroke-miterlimit="10" width="21.682" height="37.05"/>
</g>
<g id="_x32_41">
	
		<rect id="b241class_2_" x="73.747" y="471.192" fill="none" stroke="#000000" stroke-miterlimit="10" width="22.367" height="37.05"/>
</g>
<g id="_x32_42">
	
		<rect id="b242class" x="96.114" y="457.744" fill="#F7931E" stroke="#000000" stroke-miterlimit="10" width="84.667" height="50.498"/>
</g>
<g id="_x32_43">
	
		<rect id="b243class_2_" x="180.781" y="469.545" fill="none" stroke="#000000" stroke-miterlimit="10" width="25.661" height="38.697"/>
</g>
<g id="_x32_13">
	
		<rect id="b213class" x="311.601" y="368.412" fill="#F7931E" stroke="#000000" stroke-miterlimit="10" width="56.72" height="112.112"/>
</g>
<g id="_x32_14">
	
		<rect id="b214class_2_" x="184.623" y="392.973" fill="none" stroke="#000000" stroke-miterlimit="10" width="91.117" height="66.599"/>
</g>
<g id="_x32_44">
	<polygon id="b244class" fill="#F7931E" stroke="#000000" stroke-miterlimit="10" points="206.441,469.545 259.821,469.545 
		259.821,480.523 255.614,480.523 255.248,508.242 206.441,508.242 	"/>
</g>
<g id="_x32_107">
	
		<rect id="_x32_.107class_2_" x="255.248" y="508.242" fill="#F7931E" stroke="#000000" stroke-miterlimit="10" width="29.274" height="50.499"/>
</g>
<g id="_x32_108">
	
		<rect id="_x32_.108class" x="293.304" y="506.87" fill="#F7931E" stroke="#000000" stroke-miterlimit="10" width="34.306" height="45.284"/>
</g>
<g id="_x32_109">
	
		<rect id="_x32_.109class_2_" x="255.248" y="558.741" fill="#F7931E" stroke="#000000" stroke-miterlimit="10" width="29.274" height="52.145"/>
</g>
<g id="_x32_110">
	
		<rect id="_x32_.108class_1_" x="293.304" y="552.154" fill="#F7931E" stroke="#000000" stroke-miterlimit="10" width="34.306" height="35.472"/>
</g>
<g id="_x32_117">
	
		<rect id="_x32_.117class_2_" x="293.304" y="587.626" fill="none" stroke="#000000" stroke-miterlimit="10" width="34.306" height="11.458"/>
</g>
<g id="_x32_124">
	<polygon id="_x32_.124class" fill="none" stroke="#000000" stroke-miterlimit="10" points="255.248,643.271 223.32,643.271 
		223.32,653.425 193.611,653.425 193.611,610.886 255.248,610.886 255.248,612.258 	"/>
</g>
<g id="_x32_123">
	
		<rect id="_x32_.123class_2_" x="193.611" y="653.425" fill="#F7931E" stroke="#000000" stroke-miterlimit="10" width="98.32" height="33.208"/>
	
		<rect id="_x32_.123aclass_2_" x="269.153" y="686.633" fill="none" stroke="#000000" stroke-miterlimit="10" width="22.778" height="12.258"/>
</g>
<g id="_x32_127">
	
		<rect id="_x32_.127class" x="291.932" y="653.425" fill="none" stroke="#000000" stroke-miterlimit="10" width="35.678" height="17.153"/>
</g>
<g id="_x32_128">
	
		<rect id="_x32_.128class_2_" x="291.932" y="670.578" fill="none" stroke="#000000" stroke-miterlimit="10" width="35.678" height="16.055"/>
</g>
<g id="_x32_.118">
	
		<rect id="_x32_.118class" x="300.988" y="599.084" fill="none" stroke="#000000" stroke-miterlimit="10" width="26.621" height="10.43"/>
</g>
<g id="_x32_119">
	
		<rect id="_x32_.119class_2_" x="300.988" y="609.514" fill="none" stroke="#000000" stroke-miterlimit="10" width="26.621" height="11.526"/>
</g>
<g id="_x32_125">
	
		<rect id="_x32_.125class" x="223.32" y="643.271" fill="none" stroke="#000000" stroke-miterlimit="10" width="16.192" height="10.154"/>
</g>
<g id="_x32_126">
	
		<rect id="_x32_.126class_2_" x="239.512" y="643.271" fill="none" stroke="#000000" stroke-miterlimit="10" width="15.735" height="9.515"/>
</g>
<g id="_x32_130">
	
		<rect id="_x32_.130class" x="327.609" y="653.425" fill="#F7931E" stroke="#000000" stroke-miterlimit="10" width="53.335" height="33.208"/>
</g>
<g id="_x32_131">
	
		<rect id="_x32_.131class_2_" x="380.944" y="653.425" fill="#F7931E" stroke="#000000" stroke-miterlimit="10" width="54.342" height="33.208"/>
</g>
<g id="_x32_134">
	
		<rect id="_x32_.132class" x="435.286" y="653.425" fill="#F7931E" stroke="#000000" stroke-miterlimit="10" width="52.328" height="33.208"/>
</g>
<g id="_x32_120">
	
		<rect id="_x32_.120aclass_2_" x="300.988" y="621.04" fill="none" stroke="#000000" stroke-miterlimit="10" width="13.311" height="12.762"/>
	
		<rect id="_x32_.120bclass_2_" x="314.094" y="621.04" fill="none" stroke="#000000" stroke-miterlimit="10" width="13.311" height="12.762"/>
</g>
<g id="_x32_134_1_">
	<polygon id="_x32_.134class" fill="none" stroke="#000000" stroke-miterlimit="10" points="429.018,625.157 431.214,611.16 
		468.401,611.16 466.343,625.157 	"/>
</g>
<g id="Layer_47">
	<polygon id="_x32_.111class_x0D__2_" fill="none" stroke="#000000" stroke-miterlimit="10" points="429.018,625.157 
		427.783,633.802 456.542,633.802 458.247,625.157 	"/>
</g>
<g id="WC">
	<rect x="253.421" y="59.977" fill="#009245" stroke="#000000" stroke-miterlimit="10" width="22.73" height="13.173"/>
	<rect x="253.421" y="93.642" fill="#009245" stroke="#000000" stroke-miterlimit="10" width="21.956" height="12.808"/>
	<rect x="253.098" y="288.136" fill="#009245" stroke="#000000" stroke-miterlimit="10" width="22.642" height="15.781"/>
	<rect x="253.098" y="323.951" fill="#009245" stroke="#000000" stroke-miterlimit="10" width="22.642" height="15.756"/>
	<rect x="68.414" y="358.943" fill="#009245" stroke="#000000" stroke-miterlimit="10" width="21.033" height="12.053"/>
	<rect x="68.532" y="371.019" fill="#009245" stroke="#000000" stroke-miterlimit="10" width="20.796" height="10.704"/>
	<rect x="255.248" y="632.155" fill="#009245" stroke="#000000" stroke-miterlimit="10" width="29.274" height="10.224"/>
</g>
<g id="misc">
	<line fill="none" stroke="#000000" stroke-miterlimit="10" x1="68.414" y1="358.943" x2="68.414" y2="345.221"/>
	<rect x="54.718" y="395.169" fill="none" stroke="#000000" stroke-miterlimit="10" width="126.063" height="62.575"/>
	<rect x="238.049" y="31.072" fill="none" stroke="#000000" stroke-miterlimit="10" width="38.102" height="28.904"/>
	<rect x="276.151" y="31.072" fill="none" stroke="#000000" stroke-miterlimit="10" width="20.081" height="28.904"/>
	<rect x="338.315" y="281.732" fill="none" stroke="#000000" stroke-miterlimit="10" width="23.783" height="86.356"/>
	<line fill="none" stroke="#000000" stroke-miterlimit="10" x1="275.739" y1="339.707" x2="275.739" y2="352.082"/>
	<polyline fill="none" stroke="#000000" stroke-miterlimit="10" points="427.783,633.802 408.115,633.802 408.115,623.328 
		367.587,623.328 367.587,633.802 342.704,633.802 	"/>
	<path fill="none" stroke="#000000" stroke-miterlimit="10" d="M408.115,633.802"/>
	<polyline fill="none" stroke="#000000" stroke-miterlimit="10" points="487.614,653.425 487.614,633.868 468.401,611.16 	"/>
	<rect x="327.609" y="621.04" fill="none" stroke="#000000" stroke-miterlimit="10" width="15.828" height="12.762"/>
	<path fill="#C1272D" stroke="#000000" stroke-miterlimit="10" d="M329.349,311.777c6.038-5.733,11.601-21.661-6.039-23.641h-24.517
		v10.798c0,0,8.782,0.671,18.297,0c9.664-0.683,0,5.718,0,5.718l-22.322,9.644l4.924,9.655
		C299.691,323.951,327.744,313.3,329.349,311.777z"/>
	<polyline fill="none" stroke="#000000" stroke-miterlimit="10" points="41.911,464.605 52.065,464.605 52.065,471.192 	"/>
	<rect x="293.304" y="599.084" fill="none" stroke="#000000" stroke-miterlimit="10" width="7.685" height="34.718"/>
	<rect x="297.146" y="480.523" fill="none" stroke="#000000" stroke-miterlimit="10" width="71.174" height="26.347"/>
	<line fill="none" stroke="#000000" stroke-miterlimit="10" x1="290.926" y1="480.523" x2="255.614" y2="480.523"/>
	<polygon fill="#C1272D" stroke="#000000" stroke-miterlimit="10" points="257.626,504.035 257.626,484.091 259.821,484.091 
		278.621,484.091 278.621,504.035 	"/>
	<polyline fill="#C1272D" stroke="#000000" stroke-miterlimit="10" points="259.821,504.035 259.821,494.063 259.821,489.58 
		259.821,484.091 263.115,484.091 263.115,488.894 263.115,494.063 263.115,498.911 263.115,504.035 265.311,504.035 
		265.311,498.911 265.311,494.063 265.311,489.58 265.311,484.091 268.124,484.091 268.124,488.894 268.124,494.063 
		268.124,498.729 268.124,504.035 270.388,504.035 270.388,499.46 270.388,494.063 270.388,489.718 270.388,484.091 273.27,484.091 
		273.27,489.58 273.27,494.063 273.27,499.095 273.27,504.035 275.739,504.035 275.739,499.278 275.739,494.063 275.739,488.894 
		275.739,484.091 278.621,484.091 278.621,488.894 257.626,488.894 257.626,494.063 278.621,494.063 278.621,499.278 
		257.259,499.186 	"/>
	<polyline fill="none" stroke="#000000" stroke-miterlimit="10" points="300.347,311.885 304.475,322.119 307.066,321.117 
		302.397,311 304.764,309.978 309.088,320.331 311.601,319.011 306.813,309.092 308.716,308.27 313.904,318.441 316.131,317.556 
		310.966,307.298 312.784,306.512 318.262,316.702 320.2,315.917 314.988,305.56 317.09,304.652 322.438,314.994 324.099,314.296 
		319.212,303.038 320.513,301.776 325.821,313.551 	"/>
	<polygon fill="none" stroke="#000000" stroke-miterlimit="10" points="261.194,56.777 242.668,56.777 240.198,56.777 
		240.198,35.919 242.668,35.919 261.194,35.919 	"/>
	<polyline fill="#C1272D" stroke="#000000" stroke-miterlimit="10" points="242.806,51.014 242.668,56.777 245.825,56.777 
		245.825,51.014 245.825,45.524 245.825,41.134 245.825,35.919 248.294,35.919 248.294,41.408 248.294,46.073 248.294,51.014 
		248.294,56.777 250.696,56.777 250.696,50.739 250.696,46.348 250.696,41.134 250.696,35.919 253.421,35.919 253.421,41.134 
		253.421,46.348 253.421,50.876 253.421,56.777 255.617,56.777 255.617,50.739 255.617,46.073 255.617,40.584 255.617,35.919 
		258.175,35.919 258.175,41.134 258.175,46.073 258.175,51.288 258.175,56.777 261.194,56.777 261.194,51.151 240.198,50.876 
		240.198,46.348 261.194,46.073 261.194,41.271 240.198,41.408 240.198,38.115 261.194,37.978 261.194,35.919 242.668,35.919 
		242.806,50.328 	"/>
	<polygon fill="#C1272D" stroke="#000000" stroke-miterlimit="10" points="408.115,644.23 367.587,644.23 367.587,635.553 
		367.587,633.802 408.115,633.802 408.115,635.553 	"/>
	<polyline fill="#C1272D" stroke="#000000" stroke-miterlimit="10" points="367.587,640.9 408.115,640.9 408.115,637.267 
		367.587,637.267 	"/>
	<polyline fill="#C1272D" stroke="#000000" stroke-miterlimit="10" points="372.619,633.802 372.619,644.23 378.017,644.23 
		377.834,633.868 380.944,633.868 380.944,644.23 385.244,644.23 385.244,633.868 389.635,633.868 389.544,644.23 393.386,644.23 
		393.478,633.868 396.862,633.868 396.862,644.23 401.345,644.23 401.347,633.868 405.004,633.868 405.004,644.23 	"/>
	<line fill="none" stroke="#000000" stroke-miterlimit="10" x1="275.376" y1="260.506" x2="275.739" y2="288.136"/>
	<circle fill="#C1272D" stroke="#000000" stroke-miterlimit="10" cx="168.156" cy="444.752" r="11.161"/>
	<polyline fill="#C1272D" stroke="#000000" stroke-miterlimit="10" points="168.156,455.913 168.156,444.752 179.317,444.752 	"/>
	<polyline fill="#C1272D" stroke="#000000" stroke-miterlimit="10" points="175.465,436.329 168.156,444.752 168.156,433.591 	"/>
	<polyline fill="#C1272D" stroke="#000000" stroke-miterlimit="10" points="160.011,436.966 167.607,444.752 157.074,443.458 	"/>
	<polyline fill="#C1272D" stroke="#000000" stroke-miterlimit="10" points="159.326,451.561 168.156,444.752 162.615,454.441 	"/>
	<rect x="14.191" y="331.829" fill="none" stroke="#000000" stroke-miterlimit="10" width="198.245" height="13.392"/>
	<rect x="382.362" y="623.328" fill="none" stroke="#000000" stroke-miterlimit="10" width="11.115" height="10.54"/>
</g>
</svg>
