<?xml version="1.0" encoding="utf-8"?>
<!-- Generator: Adobe Illustrator 15.0.2, SVG Export Plug-In . SVG Version: 6.00 Build 0)  -->
<!DOCTYPE svg PUBLIC "-//W3C//DTD SVG 1.1//EN" "http://www.w3.org/Graphics/SVG/1.1/DTD/svg11.dtd">
<svg version="1.1" id="Layer_1" xmlns="http://www.w3.org/2000/svg" xmlns:xlink="http://www.w3.org/1999/xlink" x="0px" y="0px"
	 width="768px" height="1024px" viewBox="0 0 768 1024" enable-background="new 0 0 768 1024" xml:space="preserve">
<g>
	<defs>
		<rect id="SVGID_1_" width="765.69" height="1023.999"/>
	</defs>
	<clipPath id="SVGID_2_">
		<use xlink:href="#SVGID_1_"  overflow="visible"/>
	</clipPath>
</g>
<g>
	<defs>
		<rect id="SVGID_3_" width="768" height="1024"/>
	</defs>
	<clipPath id="SVGID_4_">
		<use xlink:href="#SVGID_3_"  overflow="visible"/>
	</clipPath>
</g>
<rect x="563.064" y="65.917" fill="none" stroke="#000000" stroke-miterlimit="10" width="121.01" height="124.821"/>
<g>
	<defs>
		<rect id="SVGID_5_" width="768" height="1024"/>
	</defs>
	<clipPath id="SVGID_6_">
		<use xlink:href="#SVGID_5_"  overflow="visible"/>
	</clipPath>
	<path clip-path="url(#SVGID_6_)" fill="none" stroke="#000000" stroke-miterlimit="10" d="M642.626,124.04
		c0,3.683-2.986,6.67-6.67,6.67h-30.49c-3.685,0-6.67-2.987-6.67-6.67s2.985-6.67,6.67-6.67h30.49
		C639.64,117.37,642.626,120.356,642.626,124.04z"/>
</g>
<text transform="matrix(1 0 0 1 605.9424 127.6309)" font-family="'MyriadPro-Regular'" font-size="11.434">B302</text>
<g>
	<defs>
		<rect id="SVGID_7_" width="768" height="1024"/>
	</defs>
	<clipPath id="SVGID_8_">
		<use xlink:href="#SVGID_7_"  overflow="visible"/>
	</clipPath>
	
		<rect x="563.064" y="190.738" clip-path="url(#SVGID_8_)" fill="none" stroke="#000000" stroke-miterlimit="10" width="121.01" height="119.58"/>
	<path clip-path="url(#SVGID_8_)" fill="none" stroke="#000000" stroke-miterlimit="10" d="M642.626,250.766
		c0,3.42-2.773,6.193-6.193,6.193h-27.632c-3.421,0-6.193-2.773-6.193-6.193s2.772-6.193,6.193-6.193h27.632
		C639.853,244.573,642.626,247.346,642.626,250.766z"/>
</g>
<text transform="matrix(1 0 0 1 609.1582 254.1187)" font-family="'MyriadPro-Regular'" font-size="11.434">B303</text>
<text transform="matrix(1 0 0 1 615.5508 215.52)"><tspan x="0" y="0" font-family="'MyriadPro-Regular'" font-size="12">R</tspan><tspan x="6.492" y="0" font-family="'MyriadPro-Regular'" font-size="12">eef</tspan></text>
<g>
	<defs>
		<rect id="SVGID_9_" width="768" height="1024"/>
	</defs>
	<clipPath id="SVGID_10_">
		<use xlink:href="#SVGID_9_"  overflow="visible"/>
	</clipPath>
	
		<rect x="563.065" y="310.318" clip-path="url(#SVGID_10_)" fill="none" stroke="#000000" stroke-miterlimit="10" width="54.788" height="120.057"/>
	<path clip-path="url(#SVGID_10_)" fill="none" stroke="#000000" stroke-miterlimit="10" d="M612.136,369.155
		c0,3.552-2.88,6.432-6.432,6.432h-28.109c-3.551,0-6.431-2.88-6.431-6.432c0-3.553,2.88-6.432,6.431-6.432h28.109
		C609.256,362.723,612.136,365.603,612.136,369.155z"/>
</g>
<text transform="matrix(1 0 0 1 577.835 373.1035)" font-family="'MyriadPro-Regular'" font-size="11.434">B304</text>
<g>
	<defs>
		<rect id="SVGID_11_" width="768" height="1024"/>
	</defs>
	<clipPath id="SVGID_12_">
		<use xlink:href="#SVGID_11_"  overflow="visible"/>
	</clipPath>
	
		<rect x="617.854" y="310.318" clip-path="url(#SVGID_12_)" fill="none" stroke="#000000" stroke-miterlimit="10" width="66.222" height="32.396"/>
	<path clip-path="url(#SVGID_12_)" fill="none" stroke="#000000" stroke-miterlimit="10" d="M672.163,328.184
		c0,4.077-3.306,7.384-7.384,7.384h-25.727c-4.078,0-7.385-3.307-7.385-7.384c0-4.078,3.307-7.385,7.385-7.385h25.727
		C668.857,320.799,672.163,324.105,672.163,328.184z"/>
</g>
<text transform="matrix(1 0 0 1 637.1465 331.7739)" font-family="'MyriadPro-Regular'" font-size="11.434">B305</text>
<g>
	<defs>
		<rect id="SVGID_13_" width="768" height="1024"/>
	</defs>
	<clipPath id="SVGID_14_">
		<use xlink:href="#SVGID_13_"  overflow="visible"/>
	</clipPath>
	
		<rect x="617.854" y="342.714" clip-path="url(#SVGID_14_)" fill="none" stroke="#000000" stroke-miterlimit="10" width="66.222" height="27.632"/>
	<path clip-path="url(#SVGID_14_)" fill="none" stroke="#000000" stroke-miterlimit="10" d="M672.118,357.66
		c0,4.048-2.897,7.327-6.472,7.327h-29.367c-3.573,0-6.471-3.279-6.471-7.327c0-4.044,2.897-7.323,6.471-7.323h29.367
		C669.221,350.337,672.118,353.616,672.118,357.66z"/>
</g>
<text transform="matrix(1 0 0 1 638.0996 361.0137)" font-family="'MyriadPro-Regular'" font-size="11.434">B306</text>
<g>
	<defs>
		<rect id="SVGID_15_" width="768" height="1024"/>
	</defs>
	<clipPath id="SVGID_16_">
		<use xlink:href="#SVGID_15_"  overflow="visible"/>
	</clipPath>
	
		<rect x="617.854" y="370.346" clip-path="url(#SVGID_16_)" fill="none" stroke="#000000" stroke-miterlimit="10" width="66.222" height="30.967"/>
	<path clip-path="url(#SVGID_16_)" fill="none" stroke="#000000" stroke-miterlimit="10" d="M672.163,386.068
		c0,3.42-2.772,6.193-6.193,6.193h-28.108c-3.42,0-6.193-2.773-6.193-6.193s2.773-6.193,6.193-6.193h28.108
		C669.391,379.875,672.163,382.648,672.163,386.068z"/>
</g>
<text transform="matrix(1 0 0 1 639.5293 390.3735)" font-family="'MyriadPro-Regular'" font-size="11.434">B307</text>
<g>
	<defs>
		<rect id="SVGID_17_" width="768" height="1024"/>
	</defs>
	<clipPath id="SVGID_18_">
		<use xlink:href="#SVGID_17_"  overflow="visible"/>
	</clipPath>
	
		<rect x="617.854" y="401.313" clip-path="url(#SVGID_18_)" fill="none" stroke="#000000" stroke-miterlimit="10" width="66.222" height="29.062"/>
	<path clip-path="url(#SVGID_18_)" fill="none" stroke="#000000" stroke-miterlimit="10" d="M674.546,416.32
		c0,3.815-3.093,6.908-6.908,6.908h-26.68c-3.814,0-6.907-3.093-6.907-6.908s3.093-6.908,6.907-6.908h26.68
		C671.453,409.412,674.546,412.505,674.546,416.32z"/>
</g>
<text transform="matrix(1 0 0 1 640.2432 419.7925)" font-family="'MyriadPro-Regular'" font-size="11.434">B308</text>
<g>
	<defs>
		<rect id="SVGID_19_" width="768" height="1024"/>
	</defs>
	<clipPath id="SVGID_20_">
		<use xlink:href="#SVGID_19_"  overflow="visible"/>
	</clipPath>
	
		<rect x="563.064" y="430.375" clip-path="url(#SVGID_20_)" fill="none" stroke="#000000" stroke-miterlimit="10" width="121.01" height="120.533"/>
	<path clip-path="url(#SVGID_20_)" fill="none" stroke="#000000" stroke-miterlimit="10" d="M645.484,483.852
		c0,3.75-3.039,6.789-6.789,6.789h-28.823c-3.75,0-6.789-3.039-6.789-6.789c0-3.749,3.039-6.788,6.789-6.788h28.823
		C642.445,477.063,645.484,480.103,645.484,483.852z"/>
</g>
<text transform="matrix(1 0 0 1 609.9922 487.3242)" font-family="'MyriadPro-Regular'" font-size="11.434">B309</text>
<text transform="matrix(1 0 0 1 602.4756 513.3809)" font-family="'MyriadPro-Regular'" font-size="12">Lagoon</text>
<g>
	<defs>
		<rect id="SVGID_21_" width="768" height="1024"/>
	</defs>
	<clipPath id="SVGID_22_">
		<use xlink:href="#SVGID_21_"  overflow="visible"/>
	</clipPath>
	
		<rect x="416.328" y="155.483" clip-path="url(#SVGID_22_)" fill="none" stroke="#000000" stroke-miterlimit="10" width="110.053" height="38.113"/>
	<path clip-path="url(#SVGID_22_)" fill="none" stroke="#000000" stroke-miterlimit="10" d="M490.173,172.634
		c0,4.21-3.413,7.623-7.622,7.623h-25.727c-4.21,0-7.623-3.413-7.623-7.623c0-4.209,3.413-7.623,7.623-7.623h25.727
		C486.76,165.011,490.173,168.425,490.173,172.634z"/>
</g>
<text transform="matrix(1 0 0 1 457.3018 176.3442)" font-family="'MyriadPro-Regular'" font-size="11.434">B310</text>
<g>
	<defs>
		<rect id="SVGID_23_" width="768" height="1024"/>
	</defs>
	<clipPath id="SVGID_24_">
		<use xlink:href="#SVGID_23_"  overflow="visible"/>
	</clipPath>
	
		<rect x="416.328" y="193.596" clip-path="url(#SVGID_24_)" fill="none" stroke="#000000" stroke-miterlimit="10" width="110.053" height="119.104"/>
	<path clip-path="url(#SVGID_24_)" fill="none" stroke="#000000" stroke-miterlimit="10" d="M490.173,248.622
		c0,3.553-2.88,6.432-6.432,6.432h-28.108c-3.552,0-6.432-2.879-6.432-6.432c0-3.553,2.88-6.432,6.432-6.432h28.108
		C487.293,242.19,490.173,245.069,490.173,248.622z"/>
</g>
<text transform="matrix(1 0 0 1 456.1104 251.9746)" font-family="'MyriadPro-Regular'" font-size="11.434">B311</text>
<text transform="matrix(1 0 0 1 446 343.52)"><tspan x="0" y="0" font-family="'MyriadPro-Regular'" font-size="12">S</tspan><tspan x="5.88" y="0" font-family="'MyriadPro-Regular'" font-size="12">tin</tspan><tspan x="19.319" y="0" font-family="'MyriadPro-Regular'" font-size="12">gr</tspan><tspan x="29.832" y="0" font-family="'MyriadPro-Regular'" font-size="12">a</tspan><tspan x="35.531" y="0" font-family="'MyriadPro-Regular'" font-size="12">y</tspan></text>
<text transform="matrix(1 0 0 1 449.2041 216.5239)"><tspan x="0" y="0" font-family="'MyriadPro-Regular'" font-size="12">D</tspan><tspan x="8.04" y="0" font-family="'MyriadPro-Regular'" font-size="12">olphin</tspan></text>
<g>
	<defs>
		<rect id="SVGID_25_" width="768" height="1024"/>
	</defs>
	<clipPath id="SVGID_26_">
		<use xlink:href="#SVGID_25_"  overflow="visible"/>
	</clipPath>
	
		<rect x="416.328" y="312.7" clip-path="url(#SVGID_26_)" fill="none" stroke="#000000" stroke-miterlimit="10" width="110.053" height="126.25"/>
	<path clip-path="url(#SVGID_26_)" fill="none" stroke="#000000" stroke-miterlimit="10" d="M492.556,371.658
		c0,3.683-2.987,6.67-6.671,6.67h-30.013c-3.684,0-6.67-2.987-6.67-6.67c0-3.685,2.986-6.672,6.67-6.672h30.013
		C489.568,364.986,492.556,367.973,492.556,371.658z"/>
</g>
<text transform="matrix(1 0 0 1 455.9902 375.7231)" font-family="'MyriadPro-Regular'" font-size="11.434">B311</text>
<g>
	<defs>
		<rect id="SVGID_27_" width="768" height="1024"/>
	</defs>
	<clipPath id="SVGID_28_">
		<use xlink:href="#SVGID_27_"  overflow="visible"/>
	</clipPath>
	
		<rect x="416.328" y="438.95" clip-path="url(#SVGID_28_)" fill="none" stroke="#000000" stroke-miterlimit="10" width="76.228" height="40.257"/>
	<path clip-path="url(#SVGID_28_)" fill="none" stroke="#000000" stroke-miterlimit="10" d="M473.975,458.483
		c0,3.947-3.198,7.146-7.146,7.146h-27.394c-3.947,0-7.146-3.199-7.146-7.146s3.198-7.146,7.146-7.146h27.394
		C470.776,451.337,473.975,454.536,473.975,458.483z"/>
</g>
<text transform="matrix(1 0 0 1 440.8643 462.3115)" font-family="'MyriadPro-Regular'" font-size="11.434">B315</text>
<g>
	<defs>
		<rect id="SVGID_29_" width="768" height="1024"/>
	</defs>
	<clipPath id="SVGID_30_">
		<use xlink:href="#SVGID_29_"  overflow="visible"/>
	</clipPath>
	
		<rect x="416.328" y="479.207" clip-path="url(#SVGID_30_)" fill="none" stroke="#000000" stroke-miterlimit="10" width="60.505" height="35.017"/>
	<path clip-path="url(#SVGID_30_)" fill="none" stroke="#000000" stroke-miterlimit="10" d="M466.353,497.43
		c0,3.75-3.226,6.789-7.203,6.789h-27.042c-3.979,0-7.203-3.039-7.203-6.789s3.225-6.789,7.203-6.789h27.042
		C463.127,490.641,466.353,493.68,466.353,497.43z"/>
</g>
<text transform="matrix(1 0 0 1 432.2881 502.0928)" font-family="'MyriadPro-Regular'" font-size="11.434">B316</text>
<g>
	<defs>
		<rect id="SVGID_31_" width="768" height="1024"/>
	</defs>
	<clipPath id="SVGID_32_">
		<use xlink:href="#SVGID_31_"  overflow="visible"/>
	</clipPath>
	
		<line clip-path="url(#SVGID_32_)" fill="none" stroke="#000000" stroke-miterlimit="10" x1="526.381" y1="479.207" x2="526.381" y2="565.676"/>
	
		<rect x="416.328" y="514.224" clip-path="url(#SVGID_32_)" fill="none" stroke="#000000" stroke-miterlimit="10" width="72.893" height="39.065"/>
	<path clip-path="url(#SVGID_32_)" fill="none" stroke="#000000" stroke-miterlimit="10" d="M473.975,533.519
		c0,4.077-3.306,7.384-7.384,7.384h-26.918c-4.078,0-7.384-3.307-7.384-7.384c0-4.078,3.306-7.385,7.384-7.385h26.918
		C470.669,526.134,473.975,529.44,473.975,533.519z"/>
</g>
<text transform="matrix(1 0 0 1 440.627 536.8711)" font-family="'MyriadPro-Regular'" font-size="11.434">B317</text>
<g>
	<defs>
		<rect id="SVGID_33_" width="768" height="1024"/>
	</defs>
	<clipPath id="SVGID_34_">
		<use xlink:href="#SVGID_33_"  overflow="visible"/>
	</clipPath>
	
		<rect x="416.328" y="553.289" clip-path="url(#SVGID_34_)" fill="none" stroke="#000000" stroke-miterlimit="10" width="72.893" height="40.496"/>
	<path clip-path="url(#SVGID_34_)" fill="none" stroke="#000000" stroke-miterlimit="10" d="M471.354,571.155
		c0,3.814-3.093,6.908-6.908,6.908h-25.25c-3.814,0-6.907-3.094-6.907-6.908c0-3.815,3.093-6.908,6.907-6.908h25.25
		C468.262,564.247,471.354,567.34,471.354,571.155z"/>
</g>
<text transform="matrix(1 0 0 1 438.2451 575.8174)" font-family="'MyriadPro-Regular'" font-size="11.434">B318</text>
<g>
	<defs>
		<rect id="SVGID_35_" width="768" height="1024"/>
	</defs>
	<clipPath id="SVGID_36_">
		<use xlink:href="#SVGID_35_"  overflow="visible"/>
	</clipPath>
	
		<rect x="416.328" y="593.785" clip-path="url(#SVGID_36_)" fill="none" stroke="#000000" stroke-miterlimit="10" width="66.699" height="36.684"/>
	<path clip-path="url(#SVGID_36_)" fill="none" stroke="#000000" stroke-miterlimit="10" d="M473.618,612.127
		c0,3.947-3.199,7.146-7.146,7.146h-27.396c-3.946,0-7.146-3.199-7.146-7.146s3.199-7.146,7.146-7.146h27.396
		C470.419,604.981,473.618,608.18,473.618,612.127z"/>
</g>
<text transform="matrix(1 0 0 1 438.96 616.6699)" font-family="'MyriadPro-Regular'" font-size="11.434">B320</text>
<g>
	<defs>
		<rect id="SVGID_37_" width="768" height="1024"/>
	</defs>
	<clipPath id="SVGID_38_">
		<use xlink:href="#SVGID_37_"  overflow="visible"/>
	</clipPath>
	
		<rect x="416.328" y="630.469" clip-path="url(#SVGID_38_)" fill="none" stroke="#000000" stroke-miterlimit="10" width="76.228" height="59.075"/>
	<path clip-path="url(#SVGID_38_)" fill="none" stroke="#000000" stroke-miterlimit="10" d="M473.736,658.101
		c0,3.683-2.985,6.67-6.669,6.67h-25.25c-3.686,0-6.67-2.987-6.67-6.67s2.984-6.67,6.67-6.67h25.25
		C470.751,651.431,473.736,654.418,473.736,658.101z"/>
</g>
<text transform="matrix(1 0 0 1 442.5322 662.8828)" font-family="'MyriadPro-Regular'" font-size="11.434">B321</text>
<g>
	<defs>
		<rect id="SVGID_39_" width="768" height="1024"/>
	</defs>
	<clipPath id="SVGID_40_">
		<use xlink:href="#SVGID_39_"  overflow="visible"/>
	</clipPath>
	
		<rect x="594.984" y="707.647" clip-path="url(#SVGID_40_)" fill="none" stroke="#000000" stroke-miterlimit="10" width="102.429" height="199.142"/>
	<path clip-path="url(#SVGID_40_)" fill="none" stroke="#000000" stroke-miterlimit="10" d="M664.541,799.357
		c0,4.342-3.52,7.861-7.861,7.861h-25.726c-4.342,0-7.861-3.52-7.861-7.861s3.52-7.86,7.861-7.86h25.726
		C661.021,791.497,664.541,795.016,664.541,799.357z"/>
</g>
<text transform="matrix(1 0 0 1 628.8115 802.4727)" font-family="'MyriadPro-Regular'" font-size="11.434">B327</text>
<text transform="matrix(1 0 0 1 624.7871 830.0195)"><tspan x="0" y="0" font-family="'MyriadPro-Regular'" font-size="12">Big d</tspan><tspan x="25.332" y="0" font-family="'MyriadPro-Regular'" font-size="12">r</tspan><tspan x="29.544" y="0" font-family="'MyriadPro-Regular'" font-size="12">y</tspan></text>
<g>
	<defs>
		<rect id="SVGID_41_" width="768" height="1024"/>
	</defs>
	<clipPath id="SVGID_42_">
		<use xlink:href="#SVGID_41_"  overflow="visible"/>
	</clipPath>
	<path clip-path="url(#SVGID_42_)" fill="none" stroke="#000000" stroke-miterlimit="10" d="M429.192,698.967
		c0-3.888,3.811-7.041,8.514-7.041s8.515,3.153,8.515,7.041v26.651c0,3.886-3.812,7.038-8.515,7.038s-8.514-3.152-8.514-7.038
		V698.967z"/>
	
		<rect x="416.328" y="689.544" clip-path="url(#SVGID_42_)" fill="none" stroke="#000000" stroke-miterlimit="10" width="40.496" height="44.783"/>
</g>
<text transform="matrix(0.032 -0.9995 0.9995 0.032 440.7139 730.4795)" font-family="'MyriadPro-Regular'" font-size="11.434">B329(1)</text>
<text transform="matrix(-6.123234e-017 -1 1 -6.123234e-017 476.5908 731.3818)" font-family="'MyriadPro-Regular'" font-size="11.4338">B329 (2)</text>
<g>
	<defs>
		<rect id="SVGID_43_" width="768" height="1024"/>
	</defs>
	<clipPath id="SVGID_44_">
		<use xlink:href="#SVGID_43_"  overflow="visible"/>
	</clipPath>
	
		<rect x="456.824" y="689.544" clip-path="url(#SVGID_44_)" fill="none" stroke="#000000" stroke-miterlimit="10" width="35.73" height="44.783"/>
	<path clip-path="url(#SVGID_44_)" fill="none" stroke="#000000" stroke-miterlimit="10" d="M465.399,699.169
		c0-5.316,3.133-9.625,6.997-9.625s6.998,4.309,6.998,9.625v25.533c0,5.316-3.134,9.625-6.998,9.625s-6.997-4.309-6.997-9.625
		V699.169z"/>
	
		<rect x="441.895" y="900.914" clip-path="url(#SVGID_44_)" fill="none" stroke="#000000" stroke-miterlimit="10" width="54.312" height="57.17"/>
	<path clip-path="url(#SVGID_44_)" fill="none" stroke="#000000" stroke-miterlimit="10" d="M488.584,930.929
		c0,3.947-3.199,7.146-7.146,7.146h-25.727c-3.947,0-7.146-3.198-7.146-7.146s3.198-7.146,7.146-7.146h25.727
		C485.385,923.782,488.584,926.981,488.584,930.929z"/>
</g>
<text transform="matrix(1 0 0 1 454.7578 934.123)" font-family="'MyriadPro-Regular'" font-size="11.434">B332</text>
<g>
	<defs>
		<rect id="SVGID_45_" width="768" height="1024"/>
	</defs>
	<clipPath id="SVGID_46_">
		<use xlink:href="#SVGID_45_"  overflow="visible"/>
	</clipPath>
	
		<rect x="396.478" y="900.914" clip-path="url(#SVGID_46_)" fill="none" stroke="#000000" stroke-miterlimit="10" width="45.419" height="57.17"/>
	<path clip-path="url(#SVGID_46_)" fill="none" stroke="#000000" stroke-miterlimit="10" d="M439.989,930.929
		c0,3.947-3.199,7.146-7.146,7.146h-26.68c-3.947,0-7.146-3.198-7.146-7.146s3.199-7.146,7.146-7.146h26.68
		C436.79,923.782,439.989,926.981,439.989,930.929z"/>
</g>
<text transform="matrix(1 0 0 1 406.6426 934.2813)" font-family="'MyriadPro-Regular'" font-size="11.434">B333</text>
<g>
	<defs>
		<rect id="SVGID_47_" width="768" height="1024"/>
	</defs>
	<clipPath id="SVGID_48_">
		<use xlink:href="#SVGID_47_"  overflow="visible"/>
	</clipPath>
	
		<rect x="343.754" y="900.914" clip-path="url(#SVGID_48_)" fill="none" stroke="#000000" stroke-miterlimit="10" width="52.724" height="57.17"/>
	<path clip-path="url(#SVGID_48_)" fill="none" stroke="#000000" stroke-miterlimit="10" d="M390.442,930.929
		c0,3.947-3.199,7.146-7.146,7.146h-25.091c-3.948,0-7.146-3.198-7.146-7.146s3.198-7.146,7.146-7.146h25.091
		C387.243,923.782,390.442,926.981,390.442,930.929z"/>
</g>
<text transform="matrix(1 0 0 1 356.6172 934.3613)" font-family="'MyriadPro-Regular'" font-size="11.434">B334</text>
<g>
	<defs>
		<rect id="SVGID_49_" width="768" height="1024"/>
	</defs>
	<clipPath id="SVGID_50_">
		<use xlink:href="#SVGID_49_"  overflow="visible"/>
	</clipPath>
	
		<rect x="296.112" y="900.914" clip-path="url(#SVGID_50_)" fill="none" stroke="#000000" stroke-miterlimit="10" width="47.642" height="57.17"/>
	<path clip-path="url(#SVGID_50_)" fill="none" stroke="#000000" stroke-miterlimit="10" d="M340.578,930.929
		c0,3.947-3.199,7.146-7.146,7.146H307.07c-3.948,0-7.147-3.198-7.147-7.146s3.199-7.146,7.147-7.146h26.362
		C337.379,923.782,340.578,926.981,340.578,930.929z"/>
</g>
<text transform="matrix(1 0 0 1 306.6816 934.6025)" font-family="'MyriadPro-Regular'" font-size="11.434">B335</text>
<g>
	<defs>
		<rect id="SVGID_51_" width="768" height="1024"/>
	</defs>
	<clipPath id="SVGID_52_">
		<use xlink:href="#SVGID_51_"  overflow="visible"/>
	</clipPath>
	
		<rect x="130.002" y="882.174" clip-path="url(#SVGID_52_)" fill="none" stroke="#000000" stroke-miterlimit="10" width="166.11" height="75.91"/>
	<path clip-path="url(#SVGID_52_)" fill="none" stroke="#000000" stroke-miterlimit="10" d="M231.955,921.004
		c0,3.728-3.022,6.75-6.75,6.75H197.1c-3.729,0-6.751-3.022-6.751-6.75c0-3.729,3.022-6.752,6.751-6.752h28.105
		C228.933,914.252,231.955,917.275,231.955,921.004z"/>
</g>
<text transform="matrix(1 0 0 1 197.9727 924.4355)" font-family="'MyriadPro-Regular'" font-size="11.434">B336</text>
<g>
	<defs>
		<rect id="SVGID_53_" width="768" height="1024"/>
	</defs>
	<clipPath id="SVGID_54_">
		<use xlink:href="#SVGID_53_"  overflow="visible"/>
	</clipPath>
	
		<rect x="492.556" y="438.95" clip-path="url(#SVGID_54_)" fill="none" stroke="#000000" stroke-miterlimit="10" width="33.825" height="19.533"/>
	
		<rect x="492.556" y="458.483" clip-path="url(#SVGID_54_)" fill="none" stroke="#000000" stroke-miterlimit="10" width="33.825" height="20.724"/>
	<path clip-path="url(#SVGID_54_)" fill="#353535" d="M526.381,449.312c0,3.618-2.613,6.551-5.836,6.551h-20.486
		c-3.224,0-5.836-2.933-5.836-6.551s2.612-6.551,5.836-6.551h20.486C523.768,442.761,526.381,445.694,526.381,449.312"/>
	<path clip-path="url(#SVGID_54_)" fill="none" stroke="#000000" stroke-miterlimit="10" d="M526.381,449.312
		c0,3.618-2.613,6.551-5.836,6.551h-20.486c-3.224,0-5.836-2.933-5.836-6.551s2.612-6.551,5.836-6.551h20.486
		C523.768,442.761,526.381,445.694,526.381,449.312z"/>
	<path clip-path="url(#SVGID_54_)" fill="#353535" d="M526.381,468.964c0,3.553-2.56,6.432-5.717,6.432h-20.725
		c-3.157,0-5.717-2.879-5.717-6.432c0-3.553,2.56-6.432,5.717-6.432h20.725C523.821,462.532,526.381,465.411,526.381,468.964"/>
	<path clip-path="url(#SVGID_54_)" fill="none" stroke="#000000" stroke-miterlimit="10" d="M526.381,468.964
		c0,3.553-2.56,6.432-5.717,6.432h-20.725c-3.157,0-5.717-2.879-5.717-6.432c0-3.553,2.56-6.432,5.717-6.432h20.725
		C523.821,462.532,526.381,465.411,526.381,468.964z"/>
	
		<rect x="489.221" y="565.676" clip-path="url(#SVGID_54_)" fill="none" stroke="#000000" stroke-miterlimit="10" width="37.16" height="28.109"/>
	<path clip-path="url(#SVGID_54_)" fill="#353535" d="M492.556,578.183c0-3.224,2.612-5.837,5.836-5.837h20.247
		c3.224,0,5.836,2.613,5.836,5.837c0,3.223-2.612,5.836-5.836,5.836h-20.247C495.168,584.019,492.556,581.405,492.556,578.183"/>
	<path clip-path="url(#SVGID_54_)" fill="none" stroke="#000000" stroke-miterlimit="10" d="M492.556,578.183
		c0-3.224,2.612-5.837,5.836-5.837h20.247c3.224,0,5.836,2.613,5.836,5.837c0,3.223-2.612,5.836-5.836,5.836h-20.247
		C495.168,584.019,492.556,581.405,492.556,578.183z"/>
	
		<rect x="492.556" y="630.469" clip-path="url(#SVGID_54_)" fill="none" stroke="#000000" stroke-miterlimit="10" width="36.685" height="24.297"/>
	<path clip-path="url(#SVGID_54_)" fill="#3A3737" d="M492.556,642.498c0-3.485,2.825-6.313,6.312-6.313h20.486
		c3.486,0,6.313,2.827,6.313,6.313s-2.826,6.312-6.313,6.312h-20.486C495.381,648.81,492.556,645.983,492.556,642.498"/>
	<path clip-path="url(#SVGID_54_)" fill="none" stroke="#000000" stroke-miterlimit="10" d="M492.556,642.498
		c0-3.485,2.825-6.313,6.312-6.313h20.486c3.486,0,6.313,2.827,6.313,6.313s-2.826,6.312-6.313,6.312h-20.486
		C495.381,648.81,492.556,645.983,492.556,642.498z"/>
</g>
<text transform="matrix(1 0 0 1 499.9404 582.6074)" fill="#FFFFFF" font-family="'MyriadPro-Regular'" font-size="11.434">WC</text>
<text transform="matrix(1 0 0 1 500.7754 472.3149)" fill="#FFFFFF" font-family="'MyriadPro-Regular'" font-size="11.434">WC</text>
<text transform="matrix(1 0 0 1 499.7002 452.0654)" fill="#FFFFFF" font-family="'MyriadPro-Regular'" font-size="11.434">WC</text>
<text transform="matrix(1 0 0 1 500.7754 647.3926)" fill="#FFFFFF" font-family="'MyriadPro-Regular'" font-size="11.434">WC</text>
<g>
	<defs>
		<rect id="SVGID_55_" width="768" height="1024"/>
	</defs>
	<clipPath id="SVGID_56_">
		<use xlink:href="#SVGID_55_"  overflow="visible"/>
	</clipPath>
	
		<rect x="457.301" y="104.983" clip-path="url(#SVGID_56_)" fill="none" stroke="#000000" stroke-miterlimit="10" width="69.08" height="50.5"/>
	
		<rect x="526.381" y="104.983" clip-path="url(#SVGID_56_)" fill="none" stroke="#000000" stroke-miterlimit="10" width="36.685" height="50.5"/>
	
		<rect x="526.38" y="65.917" clip-path="url(#SVGID_56_)" fill="none" stroke="#000000" stroke-miterlimit="10" width="36.685" height="39.066"/>
	
		<rect x="463.494" y="111.653" clip-path="url(#SVGID_56_)" fill="none" stroke="#000000" stroke-miterlimit="10" width="36.207" height="37.637"/>
	
		<line clip-path="url(#SVGID_56_)" fill="none" stroke="#000000" stroke-miterlimit="10" x1="469.092" y1="111.653" x2="469.092" y2="149.29"/>
	
		<line clip-path="url(#SVGID_56_)" fill="none" stroke="#000000" stroke-miterlimit="10" x1="473.022" y1="111.891" x2="473.022" y2="149.528"/>
	
		<line clip-path="url(#SVGID_56_)" fill="none" stroke="#000000" stroke-miterlimit="10" x1="476.918" y1="111.653" x2="477.701" y2="149.29"/>
	
		<line clip-path="url(#SVGID_56_)" fill="none" stroke="#000000" stroke-miterlimit="10" x1="481.598" y1="111.653" x2="481.598" y2="149.29"/>
	
		<line clip-path="url(#SVGID_56_)" fill="none" stroke="#000000" stroke-miterlimit="10" x1="486.361" y1="111.653" x2="486.361" y2="149.29"/>
	
		<line clip-path="url(#SVGID_56_)" fill="none" stroke="#000000" stroke-miterlimit="10" x1="490.173" y1="111.653" x2="490.173" y2="149.29"/>
	
		<line clip-path="url(#SVGID_56_)" fill="none" stroke="#000000" stroke-miterlimit="10" x1="495.89" y1="111.653" x2="495.89" y2="149.29"/>
	
		<line clip-path="url(#SVGID_56_)" fill="none" stroke="#000000" stroke-miterlimit="10" x1="463.494" y1="121.181" x2="463.494" y2="119.514"/>
	
		<line clip-path="url(#SVGID_56_)" fill="none" stroke="#000000" stroke-miterlimit="10" x1="463.494" y1="121.181" x2="499.701" y2="121.181"/>
	
		<line clip-path="url(#SVGID_56_)" fill="none" stroke="#000000" stroke-miterlimit="10" x1="463.494" y1="130.709" x2="499.701" y2="130.709"/>
	
		<line clip-path="url(#SVGID_56_)" fill="none" stroke="#000000" stroke-miterlimit="10" x1="463.494" y1="139.761" x2="499.701" y2="139.761"/>
	
		<rect x="641.355" y="550.907" clip-path="url(#SVGID_56_)" fill="none" stroke="#000000" stroke-miterlimit="10" width="42.719" height="156.74"/>
	<path clip-path="url(#SVGID_56_)" fill="none" stroke="#000000" stroke-miterlimit="10" d="M570.848,584.019v-23.903h40.02
		c0,0,31.44,4.446,17.942,40.02c0,0-6.51,7.468-16.038,11.992c-9.527,4.523-41.924,17.15-41.924,17.15l-7.783-20.724l38.273-14.769
		c0,0,19.057-7.461,5.081-9.767H570.848z"/>
	
		<rect x="499.939" y="914.252" clip-path="url(#SVGID_56_)" fill="none" stroke="#000000" stroke-miterlimit="10" width="35.971" height="38.43"/>
	
		<rect x="570.211" y="906.789" clip-path="url(#SVGID_56_)" fill="none" stroke="#000000" stroke-miterlimit="10" width="127.202" height="51.295"/>
	
		<rect x="496.206" y="906.789" clip-path="url(#SVGID_56_)" fill="none" stroke="#000000" stroke-miterlimit="10" width="74.005" height="51.295"/>
	
		<rect x="58.859" y="644.047" clip-path="url(#SVGID_56_)" fill="none" stroke="#000000" stroke-miterlimit="10" width="357.469" height="238.127"/>
	
		<rect x="75.375" y="882.174" clip-path="url(#SVGID_56_)" fill="none" stroke="#000000" stroke-miterlimit="10" width="54.627" height="70.508"/>
	
		<rect x="492.556" y="654.766" clip-path="url(#SVGID_56_)" fill="none" stroke="#000000" stroke-miterlimit="10" width="36.685" height="34.778"/>
	
		<rect x="572.5" y="665.246" clip-path="url(#SVGID_56_)" fill="none" stroke="#000000" stroke-miterlimit="10" width="36.684" height="37.636"/>
</g>
<text transform="matrix(1 0 0 1 506.9482 676.3115)" font-family="'MyriadPro-Regular'" font-size="12">E</text>
<text transform="matrix(1 0 0 1 595.4961 155.5234)"><tspan x="0" y="0" font-family="'MyriadPro-Regular'" font-size="12">O</tspan><tspan x="8.304" y="0" font-family="'MyriadPro-Regular'" font-size="12">c</tspan><tspan x="13.836" y="0" font-family="'MyriadPro-Regular'" font-size="12">t</tspan><tspan x="17.736" y="0" font-family="'MyriadPro-Regular'" font-size="12">opus</tspan></text>
</svg>
