<?xml version="1.0" encoding="utf-8"?>
<!-- Generator: Adobe Illustrator 16.0.0, SVG Export Plug-In . SVG Version: 6.00 Build 0)  -->
<!DOCTYPE svg PUBLIC "-//W3C//DTD SVG 1.1//EN" "http://www.w3.org/Graphics/SVG/1.1/DTD/svg11.dtd">
<svg version="1.1" xmlns="http://www.w3.org/2000/svg" xmlns:xlink="http://www.w3.org/1999/xlink" x="0px" y="0px" width="768px"
	 height="1024px" viewBox="0 0 768 1024" enable-background="new 0 0 768 1024" xml:space="preserve">
<g id="A0119">
	<rect x="542.5" y="682.25" fill="#FBB03B" stroke="#000000" stroke-miterlimit="10" width="42.25" height="124"/>
</g>
<g id="A0117">
	<rect x="542.5" y="557.75" fill="#FBB03B" stroke="#000000" stroke-miterlimit="10" width="42.25" height="124.5"/>
</g>
<g id="A0108">
	<rect x="542.5" y="475" fill="#FBB03B" stroke="#000000" stroke-miterlimit="10" width="42.25" height="82.75"/>
</g>
<g id="A0194">
	<polygon fill="#FBB03B" stroke="#000000" stroke-miterlimit="10" points="616.5,391 604.75,481.5 624.5,483 636.25,393.25 	"/>
</g>
<g id="A0185">
	<polygon fill="#FBB03B" stroke="#000000" stroke-miterlimit="10" points="548.443,442.153 608.85,449.891 605.932,472.369 
		546.193,462.903 	"/>
</g>
<g id="A0195">
	<polygon fill="none" stroke="#000000" stroke-miterlimit="10" points="619,375.5 616.5,391 636.25,393.25 638.25,378 	"/>
</g>
<g id="A0101">
	<rect x="452" y="557.75" fill="#FBB03B" stroke="#000000" stroke-miterlimit="10" width="41.75" height="21.5"/>
</g>
<g id="A0112">
	<rect x="452" y="579.25" fill="#FBB03B" stroke="#000000" stroke-miterlimit="10" width="41.75" height="21.25"/>
</g>
<g id="A0113">
	<rect x="452" y="600.5" fill="#FBB03B" stroke="#000000" stroke-miterlimit="10" width="41.75" height="20.75"/>
</g>
<g id="A0116">
	<rect x="452" y="621.25" fill="#FBB03B" stroke="#000000" stroke-miterlimit="10" width="41.75" height="20"/>
</g>
<g id="A0115">
	<rect x="452" y="641.25" fill="#FBB03B" stroke="#000000" stroke-miterlimit="10" width="41.75" height="83.25"/>
</g>
<g id="A0121">
	<rect x="452" y="724.5" fill="#FBB03B" stroke="#000000" stroke-miterlimit="10" width="41.75" height="21.25"/>
	<rect x="452" y="745.75" fill="#FBB03B" stroke="#000000" stroke-miterlimit="10" width="41.75" height="20.5"/>
</g>
<g id="A0125">
	<path fill="#FBB03B" stroke="#000000" stroke-miterlimit="10" d="M474.5,827v42.5l131.75-2c0,0,0-62.75,0-63
		s-63.75,1.75-63.75,1.75v30.739h-30.25V826.5L474.5,827z"/>
	<polygon fill="none" stroke="#000000" stroke-miterlimit="10" points="542.5,806.25 533,806.25 533,826.5 512.25,826.5 
		512.25,836.989 542.5,836.989 	"/>
</g>
<g id="A0128">
	<rect x="426.5" y="796.25" fill="#FBB03B" stroke="#000000" stroke-miterlimit="10" width="48" height="73.25"/>
</g>
<g id="A0129">
	<rect x="426.5" y="796.25" fill="none" stroke="#000000" stroke-miterlimit="10" width="38.705" height="21.086"/>
</g>
<g id="A0148">
	<rect x="140" y="811" fill="#FBB03B" stroke="#000000" stroke-miterlimit="10" width="63.5" height="61.75"/>
</g>
<g id="A0149">
	<rect x="203.5" y="830" fill="none" stroke="#000000" stroke-miterlimit="10" width="49" height="42.75"/>
</g>
<g id="A0143">
	<rect x="140" y="729" fill="#FBB03B" stroke="#000000" stroke-miterlimit="10" width="63.5" height="61.5"/>
	<rect x="140" y="790.5" fill="none" stroke="#000000" stroke-miterlimit="10" width="63.5" height="20.5"/>
</g>
<g id="A0134">
	<rect x="140" y="583.5" fill="#FBB03B" stroke="#000000" stroke-miterlimit="10" width="62.75" height="82.5"/>
</g>
<g id="A0133">
	<rect x="140" y="501.5" fill="#FBB03B" stroke="#000000" stroke-miterlimit="10" width="62.75" height="82"/>
</g>
<g id="A0132">
	<rect x="140" y="481" fill="none" stroke="#000000" stroke-miterlimit="10" width="62.75" height="21.25"/>
</g>
<g id="A0135">
	<rect x="251.75" y="510" fill="none" stroke="#000000" stroke-miterlimit="10" width="41.75" height="92.75"/>
</g>
<g id="A0137">
	<rect x="251.75" y="602.875" fill="#FBB03B" stroke="#000000" stroke-miterlimit="10" width="41.75" height="20"/>
</g>
<g id="A0138">
	<rect x="251.75" y="622.875" fill="#FBB03B" stroke="#000000" stroke-miterlimit="10" width="41.75" height="21.25"/>
</g>
<g id="A0139">
	<rect x="251.75" y="644.125" fill="#FBB03B" stroke="#000000" stroke-miterlimit="10" width="41.75" height="19.75"/>
</g>
<g id="A0145">
	<rect x="251.75" y="707.25" fill="#FBB03B" stroke="#000000" stroke-miterlimit="10" width="41.75" height="19.75"/>
	<rect x="251.75" y="727" fill="#FBB03B" stroke="#000000" stroke-miterlimit="10" width="41.75" height="21"/>
	<rect x="251.75" y="748" fill="#FBB03B" stroke="#000000" stroke-miterlimit="10" width="41.75" height="20.5"/>
</g>
<g id="A0158">
	<rect x="169.75" y="372" fill="none" stroke="#000000" stroke-miterlimit="10" width="31.5" height="77.25"/>
</g>
<g id="A0155">
	<rect x="140" y="418.5" fill="none" stroke="#000000" stroke-miterlimit="10" width="29.75" height="30.75"/>
</g>
<g id="A0172">
	<rect x="306.75" y="369.75" fill="none" stroke="#000000" stroke-miterlimit="10" width="35.75" height="77.75"/>
</g>
<g id="A0177">
	<rect x="390" y="477.25" fill="none" stroke="#000000" stroke-miterlimit="10" width="62" height="31.75"/>
</g>
<g id="A0170">
	<rect x="303.5" y="478.5" fill="#FBB03B" stroke="#000000" stroke-miterlimit="10" width="41.75" height="31.5"/>
</g>
<g id="A0162">
	<rect x="277" y="478.5" fill="none" stroke="#000000" stroke-miterlimit="10" width="26.5" height="31.5"/>
</g>
<g id="A0159">
	<rect x="250.25" y="478.5" fill="none" stroke="#000000" stroke-miterlimit="10" width="26.75" height="31.5"/>
</g>
<g id="A0150">
	<polygon fill="#FBB03B" stroke="#000000" stroke-miterlimit="10" points="252.5,813.5 252.5,872.75 327.002,872.75 327.002,830 
		293.5,830 293.5,813.5 	"/>
</g>
<g id="WC">
	<rect x="263.625" y="372" fill="none" stroke="#000000" stroke-miterlimit="10" width="43.125" height="23.671"/>
	<rect x="201.25" y="372" fill="none" stroke="#000000" stroke-miterlimit="10" width="41.75" height="23.671"/>
	<rect x="251.75" y="685.671" fill="#FBB03B" stroke="#000000" stroke-miterlimit="10" width="41.75" height="21.579"/>
	<rect x="251.75" y="663.875" fill="#FBB03B" stroke="#000000" stroke-miterlimit="10" width="41.75" height="21.796"/>
	<rect x="533" y="782.337" fill="none" stroke="#000000" stroke-miterlimit="10" width="9.5" height="28.663"/>
	<rect x="425" y="401.672" fill="none" stroke="#000000" stroke-miterlimit="10" width="30" height="14"/>
	<rect x="455" y="401.672" fill="none" stroke="#000000" stroke-miterlimit="10" width="24.666" height="14"/>
	<polygon fill="none" stroke="#000000" stroke-miterlimit="10" points="581.75,386.5 578.988,412.133 591.25,413.25 593.75,388 	"/>
	<polygon fill="none" stroke="#000000" stroke-miterlimit="10" points="575.25,438.5 578.988,412.133 591.25,413.25 587.5,440.25 	
		"/>
</g>
<g id="Unsorted">
	<rect x="140" y="666" fill="#FBB03B" stroke="#000000" stroke-miterlimit="10" width="63.5" height="63"/>
	<rect x="252.5" y="799.335" fill="none" stroke="#000000" stroke-miterlimit="10" width="20.125" height="14.165"/>
	<rect x="274.667" y="768.5" fill="none" stroke="#000000" stroke-miterlimit="10" width="18.833" height="30.835"/>
	<rect x="426.5" y="766.25" fill="none" stroke="#000000" stroke-miterlimit="10" width="46.375" height="30"/>
	<rect x="454" y="766.25" fill="none" stroke="#000000" stroke-miterlimit="10" width="18.875" height="30"/>
	<rect x="502" y="786.002" fill="none" stroke="#000000" stroke-miterlimit="10" width="10.25" height="31.334"/>
	<rect x="329.666" y="510" fill="none" stroke="#000000" stroke-miterlimit="10" width="91.334" height="47.75"/>
	<rect x="342.5" y="369.75" fill="#00FFFF" stroke="#000000" stroke-miterlimit="10" width="82.5" height="47.917"/>
	<path fill="none" stroke="#000000" stroke-miterlimit="10" d="M465.665,228.334l-10.665,74c0,0,64.665,6,64.665,7
		s9-73.333,9-73.333L465.665,228.334z"/>
	<polyline fill="none" stroke="#000000" stroke-miterlimit="10" points="426.332,401.672 430.332,371.668 446.999,371.668 
		510.665,379.001 507.998,404.001 479.666,404.001 	"/>
	<polygon fill="none" stroke="#000000" stroke-miterlimit="10" points="455,302.334 446.999,371.668 510.665,379.001 
		519.665,309.334 	"/>
	<rect x="479.666" y="404.001" fill="none" stroke="#000000" stroke-miterlimit="10" width="27.501" height="11.67"/>
	<polygon fill="none" stroke="#000000" stroke-miterlimit="10" points="594.168,245.5 589.668,277.5 651.168,285.667 656.168,253.5 
			"/>
	<polygon fill="none" stroke="#000000" stroke-miterlimit="10" points="585.168,308.667 589.668,277.5 651.168,285.667 
		647.168,316.667 	"/>
	<polygon fill="none" stroke="#000000" stroke-miterlimit="10" points="581.668,338.333 585.168,308.667 647.168,316.667 
		643.001,346.5 	"/>
	<line fill="none" stroke="#000000" stroke-miterlimit="10" x1="548.443" y1="442.153" x2="556.498" y2="384.375"/>
	<path fill="none" stroke="#000000" stroke-miterlimit="10" d="M549.998,383.501c1,0,22,2,22,2L565.665,437"/>
	<path fill="none" stroke="#000000" stroke-miterlimit="10" d="M549.455,434.898c-0.036,0.259,25.795,3.602,25.795,3.602"/>
	<polyline fill="none" stroke="#D4145A" stroke-width="7" stroke-miterlimit="10" points="609.799,342.079 604.75,374.668 
		619,375.5 	"/>
	<line fill="none" stroke="#000000" stroke-miterlimit="10" x1="571.998" y1="176.5" x2="627.375" y2="176.5"/>
	<polyline fill="none" stroke="#000000" stroke-miterlimit="10" points="604.75,176.5 594.168,245.5 560.998,240.5 568,186.5 
		591.25,186 	"/>
	<line fill="none" stroke="#000000" stroke-miterlimit="10" x1="586.369" y1="186.105" x2="575.25" y2="242.648"/>
	<line fill="none" stroke="#000000" stroke-miterlimit="10" x1="562.353" y1="228.334" x2="596.48" y2="230.42"/>
	<polyline fill="none" stroke="#000000" stroke-miterlimit="10" points="479.666,176.5 535.5,176.5 528.665,236.001 	"/>
	<rect x="452" y="509" fill="none" stroke="#000000" stroke-miterlimit="10" width="41.75" height="48.75"/>
	<rect x="452" y="477.25" fill="none" stroke="#000000" stroke-miterlimit="10" width="41.416" height="31.75"/>
	<rect x="183.5" y="206.251" fill="none" stroke="#000000" stroke-miterlimit="10" width="120.5" height="165.417"/>
	<polyline fill="none" stroke="#000000" stroke-miterlimit="10" points="169.75,372 97.5,375.5 97.5,483 140,480.25 	"/>
	<line fill="none" stroke="#000000" stroke-miterlimit="10" x1="324.375" y1="766.25" x2="293.5" y2="768.5"/>
	<line fill="none" stroke="#000000" stroke-miterlimit="10" x1="303.5" y1="799.335" x2="303.5" y2="768.5"/>
	<line fill="none" stroke="#000000" stroke-miterlimit="10" x1="305.5" y1="767.375" x2="305.5" y2="799.335"/>
	<line fill="none" stroke="#000000" stroke-miterlimit="10" x1="308.938" y1="799.335" x2="308.938" y2="767.375"/>
	<rect x="375.333" y="34.333" fill="none" stroke="#000000" stroke-miterlimit="10" width="368" height="142.167"/>
</g>
<g id="A0152">
	<polygon fill="#FBB03B" stroke="#000000" stroke-miterlimit="10" points="272.625,813.5 272.625,800.75 327.002,800.75 
		327.002,830 293.5,830 293.5,813.5 	"/>
</g>
</svg>
