<?xml version="1.0" encoding="utf-8"?>
<!-- Generator: Adobe Illustrator 15.0.2, SVG Export Plug-In . SVG Version: 6.00 Build 0)  -->
<!DOCTYPE svg PUBLIC "-//W3C//DTD SVG 1.1//EN" "http://www.w3.org/Graphics/SVG/1.1/DTD/svg11.dtd">
<svg version="1.1" id="Layer_1" xmlns="http://www.w3.org/2000/svg" xmlns:xlink="http://www.w3.org/1999/xlink" x="0px" y="0px"
	 width="768px" height="1024px" viewBox="0 0 768 1024" enable-background="new 0 0 768 1024" xml:space="preserve">
<rect x="376.232" y="40.846" fill="none" stroke="#000000" stroke-miterlimit="10" width="65.867" height="70.258"/>
<g>
	<defs>
		<rect id="SVGID_1_" width="768" height="1024"/>
	</defs>
	<clipPath id="SVGID_2_">
		<use xlink:href="#SVGID_1_"  overflow="visible"/>
	</clipPath>
	<path clip-path="url(#SVGID_2_)" fill="none" stroke="#000000" stroke-miterlimit="10" d="M419.777,74.328
		c0,2.526-2.047,4.574-4.574,4.574h-13.539c-2.526,0-4.574-2.048-4.574-4.574s2.048-4.574,4.574-4.574h13.539
		C417.73,69.754,419.777,71.802,419.777,74.328z"/>
</g>
<text transform="matrix(1 0 0 1 400.3828 76.2603)" font-family="'MyriadPro-Regular'" font-size="6.5867">B202</text>
<rect x="376.232" y="111.104" fill="none" stroke="#000000" stroke-miterlimit="10" width="65.867" height="66.599"/>
<g>
	<defs>
		<rect id="SVGID_3_" width="768" height="1024"/>
	</defs>
	<clipPath id="SVGID_4_">
		<use xlink:href="#SVGID_3_"  overflow="visible"/>
	</clipPath>
	<path clip-path="url(#SVGID_4_)" fill="none" stroke="#000000" stroke-miterlimit="10" d="M419.777,145.136
		c0,2.627-2.13,4.757-4.757,4.757h-13.174c-2.627,0-4.757-2.13-4.757-4.757c0-2.628,2.13-4.757,4.757-4.757h13.174
		C417.647,140.379,419.777,142.508,419.777,145.136z"/>
</g>
<text transform="matrix(1 0 0 1 400.5664 147.6162)" font-family="'MyriadPro-Regular'" font-size="6.5867">B203</text>
<rect x="376.232" y="177.703" fill="none" stroke="#000000" stroke-miterlimit="10" width="65.867" height="66.234"/>
<g>
	<defs>
		<rect id="SVGID_5_" width="768" height="1024"/>
	</defs>
	<clipPath id="SVGID_6_">
		<use xlink:href="#SVGID_5_"  overflow="visible"/>
	</clipPath>
	<path clip-path="url(#SVGID_6_)" fill="none" stroke="#000000" stroke-miterlimit="10" d="M419.777,210.821
		c0,2.324-1.883,4.208-4.207,4.208h-14.272c-2.324,0-4.208-1.884-4.208-4.208c0-2.324,1.884-4.208,4.208-4.208h14.272
		C417.895,206.613,419.777,208.497,419.777,210.821z"/>
</g>
<text transform="matrix(1 0 0 1 399.835 212.9365)" font-family="'MyriadPro-Regular'" font-size="6.5867">B204</text>
<rect x="376.232" y="243.938" fill="none" stroke="#000000" stroke-miterlimit="10" width="65.867" height="68.794"/>
<g>
	<defs>
		<rect id="SVGID_7_" width="768" height="1024"/>
	</defs>
	<clipPath id="SVGID_8_">
		<use xlink:href="#SVGID_7_"  overflow="visible"/>
	</clipPath>
	<path clip-path="url(#SVGID_8_)" fill="none" stroke="#000000" stroke-miterlimit="10" d="M421.607,274.492
		c0,2.122-1.721,3.842-3.842,3.842h-16.834c-2.121,0-3.842-1.72-3.842-3.842s1.721-3.842,3.842-3.842h16.834
		C419.887,270.65,421.607,272.37,421.607,274.492z"/>
</g>
<text transform="matrix(1 0 0 1 401.4795 276.7905)" font-family="'MyriadPro-Regular'" font-size="6.5867">B205</text>
<rect x="292.437" y="90.977" fill="none" stroke="#000000" stroke-miterlimit="10" width="40.984" height="25.249"/>
<g>
	<defs>
		<rect id="SVGID_9_" width="768" height="1024"/>
	</defs>
	<clipPath id="SVGID_10_">
		<use xlink:href="#SVGID_9_"  overflow="visible"/>
	</clipPath>
	<path clip-path="url(#SVGID_10_)" fill="none" stroke="#000000" stroke-miterlimit="10" d="M325.004,104.15
		c0,2.425-1.966,4.391-4.391,4.391H305.61c-2.425,0-4.391-1.966-4.391-4.391c0-2.425,1.966-4.391,4.391-4.391h15.003
		C323.038,99.759,325.004,101.725,325.004,104.15z"/>
</g>
<text transform="matrix(1 0 0 1 304.8784 105.8994)" font-family="'MyriadPro-Regular'" font-size="6.5867">B208</text>
<rect x="292.437" y="116.226" fill="none" stroke="#000000" stroke-miterlimit="10" width="40.984" height="21.224"/>
<g>
	<defs>
		<rect id="SVGID_11_" width="768" height="1024"/>
	</defs>
	<clipPath id="SVGID_12_">
		<use xlink:href="#SVGID_11_"  overflow="visible"/>
	</clipPath>
	<path clip-path="url(#SVGID_12_)" fill="none" stroke="#000000" stroke-miterlimit="10" d="M325.004,127.386
		c0,2.122-1.72,3.842-3.842,3.842h-16.101c-2.122,0-3.842-1.72-3.842-3.842c0-2.123,1.72-3.842,3.842-3.842h16.101
		C323.284,123.544,325.004,125.263,325.004,127.386z"/>
</g>
<text transform="matrix(1 0 0 1 304.147 130.0498)" font-family="'MyriadPro-Regular'" font-size="6.5867">B209</text>
<rect x="292.437" y="137.449" fill="none" stroke="#000000" stroke-miterlimit="10" width="62.94" height="18.296"/>
<g>
	<defs>
		<rect id="SVGID_13_" width="768" height="1024"/>
	</defs>
	<clipPath id="SVGID_14_">
		<use xlink:href="#SVGID_13_"  overflow="visible"/>
	</clipPath>
	<path clip-path="url(#SVGID_14_)" fill="none" stroke="#000000" stroke-miterlimit="10" d="M335.617,148.428
		c0,2.223-1.801,4.024-4.024,4.024h-17.567c-2.222,0-4.024-1.801-4.024-4.024c0-2.222,1.802-4.024,4.024-4.024h17.567
		C333.815,144.404,335.617,146.206,335.617,148.428z"/>
</g>
<text transform="matrix(1 0 0 1 313.1128 150.9102)" font-family="'MyriadPro-Regular'" font-size="6.5867">B210</text>
<rect x="292.437" y="155.746" fill="none" stroke="#000000" stroke-miterlimit="10" width="62.94" height="135.76"/>
<g>
	<defs>
		<rect id="SVGID_15_" width="768" height="1024"/>
	</defs>
	<clipPath id="SVGID_16_">
		<use xlink:href="#SVGID_15_"  overflow="visible"/>
	</clipPath>
	<path clip-path="url(#SVGID_16_)" fill="none" stroke="#000000" stroke-miterlimit="10" d="M335.617,219.327
		c0,2.375-2.211,4.299-4.939,4.299h-15.738c-2.727,0-4.938-1.924-4.938-4.299c0-2.374,2.211-4.298,4.938-4.298h15.738
		C333.406,215.029,335.617,216.953,335.617,219.327z"/>
</g>
<text transform="matrix(1 0 0 1 313.8438 220.7109)" font-family="'MyriadPro-Regular'" font-size="6.5867">B124</text>
<rect x="292.437" y="291.506" fill="none" stroke="#000000" stroke-miterlimit="10" width="40.252" height="53.79"/>
<g>
	<defs>
		<rect id="SVGID_17_" width="768" height="1024"/>
	</defs>
	<clipPath id="SVGID_18_">
		<use xlink:href="#SVGID_17_"  overflow="visible"/>
	</clipPath>
	<path clip-path="url(#SVGID_18_)" fill="none" stroke="#000000" stroke-miterlimit="10" d="M322.809,317.304
		c0,2.525-2.047,4.572-4.572,4.572h-13.178c-2.525,0-4.572-2.047-4.572-4.572c0-2.524,2.047-4.572,4.572-4.572h13.178
		C320.762,312.732,322.809,314.78,322.809,317.304z"/>
</g>
<text transform="matrix(1 0 0 1 303.8291 320.0112)" font-family="'MyriadPro-Regular'" font-size="6.5867">B220</text>
<rect x="292.437" y="345.296" fill="none" stroke="#000000" stroke-miterlimit="10" width="40.252" height="30.925"/>
<g>
	<defs>
		<rect id="SVGID_19_" width="768" height="1024"/>
	</defs>
	<clipPath id="SVGID_20_">
		<use xlink:href="#SVGID_19_"  overflow="visible"/>
	</clipPath>
	<path clip-path="url(#SVGID_20_)" fill="none" stroke="#000000" stroke-miterlimit="10" d="M323.907,360.852
		c0,2.274-1.843,4.117-4.117,4.117h-15.186c-2.274,0-4.116-1.843-4.116-4.117s1.842-4.117,4.116-4.117h15.186
		C322.063,356.735,323.907,358.578,323.907,360.852z"/>
</g>
<text transform="matrix(1 0 0 1 304.7876 362.7847)" font-family="'MyriadPro-Regular'" font-size="6.5867">B221</text>
<rect x="333.783" y="383.082" fill="none" stroke="#000000" stroke-miterlimit="10" width="21.956" height="29.641"/>
<g>
	<defs>
		<rect id="SVGID_21_" width="768" height="1024"/>
	</defs>
	<clipPath id="SVGID_22_">
		<use xlink:href="#SVGID_21_"  overflow="visible"/>
	</clipPath>
	<path clip-path="url(#SVGID_22_)" fill="none" stroke="#000000" stroke-miterlimit="10" d="M348.329,406.273
		c0,2.35-1.904,4.254-4.254,4.254c-2.349,0-4.254-1.904-4.254-4.254v-13.997c0-2.349,1.905-4.253,4.254-4.253
		c2.35,0,4.254,1.904,4.254,4.253V406.273z"/>
</g>
<text transform="matrix(-6.123234e-017 -1 1 -6.123234e-017 346.4199 406.6846)" font-family="'MyriadPro-Regular'" font-size="6.5867">B222</text>
<rect x="308.26" y="376.221" fill="none" stroke="#000000" stroke-miterlimit="10" width="24.429" height="36.501"/>
<g>
	<defs>
		<rect id="SVGID_23_" width="768" height="1024"/>
	</defs>
	<clipPath id="SVGID_24_">
		<use xlink:href="#SVGID_23_"  overflow="visible"/>
	</clipPath>
	<path clip-path="url(#SVGID_24_)" fill="none" stroke="#000000" stroke-miterlimit="10" d="M325.55,402.431
		c0,2.35-1.905,4.254-4.254,4.254c-2.35,0-4.254-1.904-4.254-4.254v-15.095c0-2.349,1.904-4.254,4.254-4.254
		c2.349,0,4.254,1.905,4.254,4.254V402.431z"/>
</g>
<text transform="matrix(-6.123234e-017 -1 1 -6.123234e-017 322.8857 402.2939)" font-family="'MyriadPro-Regular'" font-size="6.5867">B223</text>
<rect x="248.156" y="376.221" fill="none" stroke="#000000" stroke-miterlimit="10" width="60.104" height="36.501"/>
<g>
	<defs>
		<rect id="SVGID_25_" width="768" height="1024"/>
	</defs>
	<clipPath id="SVGID_26_">
		<use xlink:href="#SVGID_25_"  overflow="visible"/>
	</clipPath>
	<path clip-path="url(#SVGID_26_)" fill="none" stroke="#000000" stroke-miterlimit="10" d="M292.437,394.197
		c0,2.046-1.659,3.705-3.705,3.705h-16.287c-2.046,0-3.705-1.659-3.705-3.705s1.659-3.705,3.705-3.705h16.287
		C290.777,390.492,292.437,392.151,292.437,394.197z"/>
</g>
<text transform="matrix(1 0 0 1 272.3081 396.542)" font-family="'MyriadPro-Regular'" font-size="6.5867">B224</text>
<rect x="219.339" y="376.222" fill="none" stroke="#000000" stroke-miterlimit="10" width="28.817" height="36.501"/>
<g>
	<defs>
		<rect id="SVGID_27_" width="768" height="1024"/>
	</defs>
	<clipPath id="SVGID_28_">
		<use xlink:href="#SVGID_27_"  overflow="visible"/>
	</clipPath>
	<path clip-path="url(#SVGID_28_)" fill="none" stroke="#000000" stroke-miterlimit="10" d="M245.137,394.79
		c0,2.374-1.924,4.298-4.298,4.298h-13.634c-2.374,0-4.298-1.924-4.298-4.298s1.924-4.298,4.298-4.298h13.634
		C243.213,390.492,245.137,392.416,245.137,394.79z"/>
</g>
<text transform="matrix(1 0 0 1 226.0635 396.6797)" font-family="'MyriadPro-Regular'" font-size="6.5867">B225</text>
<rect x="197.657" y="376.222" fill="none" stroke="#000000" stroke-miterlimit="10" width="21.682" height="36.501"/>
<g>
	<defs>
		<rect id="SVGID_29_" width="768" height="1024"/>
	</defs>
	<clipPath id="SVGID_30_">
		<use xlink:href="#SVGID_29_"  overflow="visible"/>
	</clipPath>
	<path clip-path="url(#SVGID_30_)" fill="none" stroke="#000000" stroke-miterlimit="10" d="M213.301,405.861
		c0,2.577-2.089,4.666-4.666,4.666c-2.576,0-4.665-2.089-4.665-4.666v-14.546c0-2.577,2.089-4.665,4.665-4.665
		c2.577,0,4.666,2.088,4.666,4.665V405.861z"/>
</g>
<text transform="matrix(-6.123234e-017 -1 1 -6.123234e-017 210.7993 405.0386)" font-family="'MyriadPro-Regular'" font-size="6.5867">B226</text>
<rect x="169.665" y="376.222" fill="none" stroke="#000000" stroke-miterlimit="10" width="27.993" height="36.501"/>
<g>
	<defs>
		<rect id="SVGID_31_" width="768" height="1024"/>
	</defs>
	<clipPath id="SVGID_32_">
		<use xlink:href="#SVGID_31_"  overflow="visible"/>
	</clipPath>
	<path clip-path="url(#SVGID_32_)" fill="none" stroke="#000000" stroke-miterlimit="10" d="M195.188,396.393
		c0,2.501-2.027,4.528-4.528,4.528h-13.449c-2.501,0-4.528-2.027-4.528-4.528c0-2.5,2.027-4.528,4.528-4.528h13.449
		C193.161,391.865,195.188,393.893,195.188,396.393z"/>
</g>
<text transform="matrix(1 0 0 1 176.1147 398.0503)" font-family="'MyriadPro-Regular'" font-size="6.5867">B227</text>
<rect x="94.192" y="376.221" fill="none" stroke="#000000" stroke-miterlimit="10" width="27.719" height="24.7"/>
<g>
	<defs>
		<rect id="SVGID_33_" width="768" height="1024"/>
	</defs>
	<clipPath id="SVGID_34_">
		<use xlink:href="#SVGID_33_"  overflow="visible"/>
	</clipPath>
	<path clip-path="url(#SVGID_34_)" fill="none" stroke="#000000" stroke-miterlimit="10" d="M119.166,390.561
		c0,2.16-1.751,3.911-3.911,3.911h-15.232c-2.159,0-3.911-1.751-3.911-3.911s1.752-3.911,3.911-3.911h15.232
		C117.415,386.65,119.166,388.401,119.166,390.561z"/>
</g>
<text transform="matrix(1 0 0 1 100.5039 392.9736)" font-family="'MyriadPro-Regular'" font-size="6.5867">B234</text>
<rect x="94.191" y="400.921" fill="none" stroke="#000000" stroke-miterlimit="10" width="27.719" height="22.779"/>
<g>
	<defs>
		<rect id="SVGID_35_" width="768" height="1024"/>
	</defs>
	<clipPath id="SVGID_36_">
		<use xlink:href="#SVGID_35_"  overflow="visible"/>
	</clipPath>
	<path clip-path="url(#SVGID_36_)" fill="none" stroke="#000000" stroke-miterlimit="10" d="M119.166,412.448
		c0,2.122-1.72,3.842-3.842,3.842H99.955c-2.122,0-3.843-1.72-3.843-3.842c0-2.123,1.721-3.842,3.843-3.842h15.369
		C117.446,408.606,119.166,410.325,119.166,412.448z"/>
</g>
<text transform="matrix(1 0 0 1 100.0923 415.2036)" font-family="'MyriadPro-Regular'" font-size="6.5867">B235</text>
<rect x="94.191" y="423.7" fill="none" stroke="#000000" stroke-miterlimit="10" width="27.719" height="24.7"/>
<g>
	<defs>
		<rect id="SVGID_37_" width="768" height="1024"/>
	</defs>
	<clipPath id="SVGID_38_">
		<use xlink:href="#SVGID_37_"  overflow="visible"/>
	</clipPath>
	<path clip-path="url(#SVGID_38_)" fill="none" stroke="#000000" stroke-miterlimit="10" d="M119.166,437.56
		c0,2.198-1.782,3.979-3.979,3.979h-15.095c-2.197,0-3.98-1.781-3.98-3.979c0-2.198,1.783-3.979,3.98-3.979h15.095
		C117.384,433.581,119.166,435.362,119.166,437.56z"/>
</g>
<text transform="matrix(1 0 0 1 99.7495 439.2183)" font-family="'MyriadPro-Regular'" font-size="6.5867">B236</text>
<rect x="94.191" y="448.4" fill="none" stroke="#000000" stroke-miterlimit="10" width="27.719" height="47.205"/>
<g>
	<defs>
		<rect id="SVGID_39_" width="768" height="1024"/>
	</defs>
	<clipPath id="SVGID_40_">
		<use xlink:href="#SVGID_39_"  overflow="visible"/>
	</clipPath>
	<path clip-path="url(#SVGID_40_)" fill="none" stroke="#000000" stroke-miterlimit="10" d="M119.166,469.945
		c0,2.198-1.782,3.979-3.979,3.979h-15.095c-2.197,0-3.98-1.781-3.98-3.979c0-2.198,1.783-3.979,3.98-3.979h15.095
		C117.384,465.966,119.166,467.747,119.166,469.945z"/>
</g>
<text transform="matrix(1 0 0 1 101.1216 472.2891)" font-family="'MyriadPro-Regular'" font-size="6.5867">B237</text>
<rect x="132.065" y="502.192" fill="none" stroke="#000000" stroke-miterlimit="10" width="21.682" height="37.05"/>
<g>
	<defs>
		<rect id="SVGID_41_" width="768" height="1024"/>
	</defs>
	<clipPath id="SVGID_42_">
		<use xlink:href="#SVGID_41_"  overflow="visible"/>
	</clipPath>
	<path clip-path="url(#SVGID_42_)" fill="none" stroke="#000000" stroke-miterlimit="10" d="M138.652,512.896
		c0-2.349,1.904-4.254,4.254-4.254s4.254,1.905,4.254,4.254v15.644c0,2.349-1.904,4.254-4.254,4.254s-4.254-1.905-4.254-4.254
		V512.896z"/>
</g>
<text transform="matrix(-6.123234e-017 -1 1 -6.123234e-017 145.1123 527.8525)" font-family="'MyriadPro-Regular'" font-size="6.5867">B240</text>
<rect x="153.747" y="502.192" fill="none" stroke="#000000" stroke-miterlimit="10" width="22.367" height="37.05"/>
<g>
	<defs>
		<rect id="SVGID_43_" width="768" height="1024"/>
	</defs>
	<clipPath id="SVGID_44_">
		<use xlink:href="#SVGID_43_"  overflow="visible"/>
	</clipPath>
	<path clip-path="url(#SVGID_44_)" fill="none" stroke="#000000" stroke-miterlimit="10" d="M168.292,531.695
		c0,2.197-1.782,3.979-3.979,3.979c-2.198,0-3.98-1.781-3.98-3.979v-16.192c0-2.198,1.782-3.979,3.98-3.979
		c2.197,0,3.979,1.781,3.979,3.979V531.695z"/>
</g>
<text transform="matrix(-6.123234e-017 -1 1 -6.123234e-017 166.7939 530.0479)" font-family="'MyriadPro-Regular'" font-size="6.5867">B241</text>
<rect x="176.114" y="488.744" fill="none" stroke="#000000" stroke-miterlimit="10" width="84.667" height="50.498"/>
<g>
	<defs>
		<rect id="SVGID_45_" width="768" height="1024"/>
	</defs>
	<clipPath id="SVGID_46_">
		<use xlink:href="#SVGID_45_"  overflow="visible"/>
	</clipPath>
	<path clip-path="url(#SVGID_46_)" fill="none" stroke="#000000" stroke-miterlimit="10" d="M229.768,516.052
		c0,2.501-2.027,4.528-4.528,4.528h-14.59c-2.501,0-4.528-2.027-4.528-4.528s2.027-4.528,4.528-4.528h14.59
		C227.741,511.524,229.768,513.551,229.768,516.052z"/>
</g>
<text transform="matrix(1 0 0 1 210.2148 517.6416)" font-family="'MyriadPro-Regular'" font-size="6.5867">B242</text>
<rect x="260.781" y="500.545" fill="none" stroke="#000000" stroke-miterlimit="10" width="25.661" height="38.697"/>
<g>
	<defs>
		<rect id="SVGID_47_" width="768" height="1024"/>
	</defs>
	<clipPath id="SVGID_48_">
		<use xlink:href="#SVGID_47_"  overflow="visible"/>
	</clipPath>
	<path clip-path="url(#SVGID_48_)" fill="none" stroke="#000000" stroke-miterlimit="10" d="M268.74,512.484
		c0-2.122,1.72-3.843,3.842-3.843s3.843,1.721,3.843,3.843v16.467c0,2.121-1.721,3.842-3.843,3.842s-3.842-1.721-3.842-3.842
		V512.484z"/>
</g>
<text transform="matrix(-6.123234e-017 -1 1 -6.123234e-017 274.3091 528.0605)" font-family="'MyriadPro-Regular'" font-size="6.5867">B243</text>
<rect x="391.6" y="399.411" fill="none" stroke="#000000" stroke-miterlimit="10" width="56.721" height="112.112"/>
<g>
	<defs>
		<rect id="SVGID_49_" width="768" height="1024"/>
	</defs>
	<clipPath id="SVGID_50_">
		<use xlink:href="#SVGID_49_"  overflow="visible"/>
	</clipPath>
	<path clip-path="url(#SVGID_50_)" fill="none" stroke="#000000" stroke-miterlimit="10" d="M431.486,455.264
		c0,2.324-1.884,4.208-4.208,4.208h-13.905c-2.324,0-4.208-1.884-4.208-4.208c0-2.325,1.884-4.208,4.208-4.208h13.905
		C429.603,451.056,431.486,452.938,431.486,455.264z"/>
</g>
<text transform="matrix(1 0 0 1 412.459 456.8311)" font-family="'MyriadPro-Regular'" font-size="6.5867">B213</text>
<rect x="264.622" y="423.973" fill="none" stroke="#000000" stroke-miterlimit="10" width="91.117" height="66.599"/>
<g>
	<defs>
		<rect id="SVGID_51_" width="768" height="1024"/>
	</defs>
	<clipPath id="SVGID_52_">
		<use xlink:href="#SVGID_51_"  overflow="visible"/>
	</clipPath>
	<path clip-path="url(#SVGID_52_)" fill="none" stroke="#000000" stroke-miterlimit="10" d="M323.562,457.641
		c0,3.031-2.457,5.487-5.487,5.487h-19.629c-3.03,0-5.487-2.456-5.487-5.487c0-3.03,2.457-5.487,5.487-5.487h19.629
		C321.104,452.154,323.562,454.611,323.562,457.641z"/>
</g>
<text transform="matrix(1 0 0 1 299.8203 459.2988)" font-family="'MyriadPro-Regular'" font-size="6.5867">B214</text>
<polygon fill="none" stroke="#000000" stroke-miterlimit="10" points="286.441,500.545 339.821,500.545 339.821,511.523 
	335.613,511.523 335.248,539.242 286.441,539.242 "/>
<g>
	<defs>
		<rect id="SVGID_53_" width="768" height="1024"/>
	</defs>
	<clipPath id="SVGID_54_">
		<use xlink:href="#SVGID_53_"  overflow="visible"/>
	</clipPath>
	<path clip-path="url(#SVGID_54_)" fill="none" stroke="#000000" stroke-miterlimit="10" d="M323.907,519.825
		c0,2.084-1.689,3.773-3.773,3.773h-18.437c-2.084,0-3.774-1.689-3.774-3.773s1.69-3.773,3.774-3.773h18.437
		C322.218,516.052,323.907,517.741,323.907,519.825z"/>
</g>
<text transform="matrix(1 0 0 1 303.4136 521.9639)" font-family="'MyriadPro-Regular'" font-size="6.5867">B244</text>
<rect x="335.248" y="539.242" fill="none" stroke="#000000" stroke-miterlimit="10" width="29.274" height="50.499"/>
<g>
	<defs>
		<rect id="SVGID_55_" width="768" height="1024"/>
	</defs>
	<clipPath id="SVGID_56_">
		<use xlink:href="#SVGID_55_"  overflow="visible"/>
	</clipPath>
	<path clip-path="url(#SVGID_56_)" fill="none" stroke="#000000" stroke-miterlimit="10" d="M362.326,563.394
		c0,2.274-1.843,4.117-4.117,4.117h-15.643c-2.274,0-4.117-1.843-4.117-4.117c0-2.272,1.843-4.116,4.117-4.116h15.643
		C360.483,559.277,362.326,561.121,362.326,563.394z"/>
</g>
<text transform="matrix(1 0 0 1 342.1548 565.0518)" font-family="'MyriadPro-Regular'" font-size="6.5867">2.107</text>
<rect x="373.304" y="537.87" fill="none" stroke="#000000" stroke-miterlimit="10" width="34.306" height="45.284"/>
<g>
	<defs>
		<rect id="SVGID_57_" width="768" height="1024"/>
	</defs>
	<clipPath id="SVGID_58_">
		<use xlink:href="#SVGID_57_"  overflow="visible"/>
	</clipPath>
	<path clip-path="url(#SVGID_58_)" fill="none" stroke="#000000" stroke-miterlimit="10" d="M402.743,560.512
		c0,2.388-2.214,4.323-4.945,4.323h-14.684c-2.73,0-4.944-1.936-4.944-4.323c0-2.387,2.214-4.322,4.944-4.322h14.684
		C400.529,556.189,402.743,558.125,402.743,560.512z"/>
</g>
<text transform="matrix(1 0 0 1 382.3613 562.6504)" font-family="'MyriadPro-Regular'" font-size="6.5867">2.108</text>
<rect x="335.248" y="589.741" fill="none" stroke="#000000" stroke-miterlimit="10" width="29.274" height="52.145"/>
<g>
	<defs>
		<rect id="SVGID_59_" width="768" height="1024"/>
	</defs>
	<clipPath id="SVGID_60_">
		<use xlink:href="#SVGID_59_"  overflow="visible"/>
	</clipPath>
	<path clip-path="url(#SVGID_60_)" fill="none" stroke="#000000" stroke-miterlimit="10" d="M362.326,615.813
		c0,2.121-1.72,3.842-3.842,3.842h-16.193c-2.122,0-3.842-1.721-3.842-3.842c0-2.122,1.72-3.843,3.842-3.843h16.193
		C360.606,611.971,362.326,613.691,362.326,615.813z"/>
</g>
<text transform="matrix(1 0 0 1 341.7427 617.6777)" font-family="'MyriadPro-Regular'" font-size="6.5867">2.109</text>
<rect x="373.304" y="583.154" fill="none" stroke="#000000" stroke-miterlimit="10" width="34.306" height="35.472"/>
<g>
	<defs>
		<rect id="SVGID_61_" width="768" height="1024"/>
	</defs>
	<clipPath id="SVGID_62_">
		<use xlink:href="#SVGID_61_"  overflow="visible"/>
	</clipPath>
	<path clip-path="url(#SVGID_62_)" fill="none" stroke="#000000" stroke-miterlimit="10" d="M402.743,600.444
		c0,2.273-1.844,4.116-4.117,4.116h-15.168c-2.274,0-4.116-1.843-4.116-4.116c0-2.274,1.842-4.117,4.116-4.117h15.168
		C400.899,596.327,402.743,598.17,402.743,600.444z"/>
</g>
<text transform="matrix(1 0 0 1 383.0015 602.5488)" font-family="'MyriadPro-Regular'" font-size="6.5867">2.110</text>
<rect x="373.303" y="618.626" fill="none" stroke="#000000" stroke-miterlimit="10" width="34.306" height="11.458"/>
<g>
	<defs>
		<rect id="SVGID_63_" width="768" height="1024"/>
	</defs>
	<clipPath id="SVGID_64_">
		<use xlink:href="#SVGID_63_"  overflow="visible"/>
	</clipPath>
	<path clip-path="url(#SVGID_64_)" fill="none" stroke="#000000" stroke-miterlimit="10" d="M379.342,624.32
		c0-1.971,1.542-3.567,3.447-3.567h16.372c1.903,0,3.446,1.597,3.446,3.567c0,1.97-1.543,3.566-3.446,3.566h-16.372
		C380.884,627.887,379.342,626.29,379.342,624.32z"/>
</g>
<text transform="matrix(1 0 0 1 383.001 626.7549)" font-family="'MyriadPro-Regular'" font-size="6.5867">2.117</text>
<polygon fill="none" stroke="#000000" stroke-miterlimit="10" points="335.248,674.271 303.319,674.271 303.319,684.425 
	273.611,684.425 273.611,641.886 335.248,641.886 335.248,643.258 "/>
<g>
	<defs>
		<rect id="SVGID_65_" width="768" height="1024"/>
	</defs>
	<clipPath id="SVGID_66_">
		<use xlink:href="#SVGID_65_"  overflow="visible"/>
	</clipPath>
	<path clip-path="url(#SVGID_66_)" fill="none" stroke="#000000" stroke-miterlimit="10" d="M307.985,661.646
		c0,2.122-1.72,3.843-3.842,3.843h-15.095c-2.122,0-3.842-1.721-3.842-3.843c0-2.121,1.72-3.842,3.842-3.842h15.095
		C306.266,657.804,307.985,659.524,307.985,661.646z"/>
</g>
<text transform="matrix(1 0 0 1 288.3975 663.167)" font-family="'MyriadPro-Regular'" font-size="6.5867">2.124</text>
<rect x="273.612" y="684.425" fill="none" stroke="#000000" stroke-miterlimit="10" width="98.32" height="33.208"/>
<g>
	<defs>
		<rect id="SVGID_67_" width="768" height="1024"/>
	</defs>
	<clipPath id="SVGID_68_">
		<use xlink:href="#SVGID_67_"  overflow="visible"/>
	</clipPath>
	<path clip-path="url(#SVGID_68_)" fill="none" stroke="#000000" stroke-miterlimit="10" d="M364.521,701.578
		c0,2.197-1.782,3.979-3.979,3.979h-16.741c-2.198,0-3.98-1.781-3.98-3.979c0-2.198,1.782-3.979,3.98-3.979h16.741
		C362.739,697.6,364.521,699.38,364.521,701.578z"/>
</g>
<text transform="matrix(1 0 0 1 343.3892 703.9229)" font-family="'MyriadPro-Regular'" font-size="6.5867">2.123</text>
<g>
	<defs>
		<rect id="SVGID_69_" width="768" height="1024"/>
	</defs>
	<clipPath id="SVGID_70_">
		<use xlink:href="#SVGID_69_"  overflow="visible"/>
	</clipPath>
	
		<rect x="349.154" y="717.633" clip-path="url(#SVGID_70_)" fill="none" stroke="#000000" stroke-miterlimit="10" width="22.778" height="12.258"/>
	<path clip-path="url(#SVGID_70_)" fill="none" stroke="#000000" stroke-miterlimit="10" d="M350.148,723.526
		c0-2.491,1.796-4.511,4.012-4.511h11.943c2.214,0,4.01,2.02,4.01,4.511c0,2.489-1.796,4.508-4.01,4.508H354.16
		C351.944,728.034,350.148,726.016,350.148,723.526z"/>
</g>
<text transform="matrix(1 0 0 1.1213 351.958 725.2939)" font-family="'MyriadPro-Regular'" font-size="5.6453">2.123A</text>
<rect x="371.932" y="684.425" fill="none" stroke="#000000" stroke-miterlimit="10" width="35.678" height="17.153"/>
<g>
	<defs>
		<rect id="SVGID_71_" width="768" height="1024"/>
	</defs>
	<clipPath id="SVGID_72_">
		<use xlink:href="#SVGID_71_"  overflow="visible"/>
	</clipPath>
	<path clip-path="url(#SVGID_72_)" fill="none" stroke="#000000" stroke-miterlimit="10" d="M402.606,693.207
		c0,2.425-1.966,4.392-4.391,4.392h-15.654c-2.425,0-4.392-1.967-4.392-4.392s1.967-4.391,4.392-4.391h15.654
		C400.641,688.816,402.606,690.782,402.606,693.207z"/>
</g>
<text transform="matrix(1 0 0 1 382.1558 694.7285)" font-family="'MyriadPro-Regular'" font-size="6.5867">2.127</text>
<rect x="371.932" y="701.578" fill="none" stroke="#000000" stroke-miterlimit="10" width="35.678" height="16.055"/>
<g>
	<defs>
		<rect id="SVGID_73_" width="768" height="1024"/>
	</defs>
	<clipPath id="SVGID_74_">
		<use xlink:href="#SVGID_73_"  overflow="visible"/>
	</clipPath>
	<path clip-path="url(#SVGID_74_)" fill="none" stroke="#000000" stroke-miterlimit="10" d="M402.606,709.674
		c0,2.274-1.843,4.117-4.116,4.117h-16.204c-2.274,0-4.117-1.843-4.117-4.117c0-2.273,1.843-4.116,4.117-4.116h16.204
		C400.764,705.558,402.606,707.4,402.606,709.674z"/>
</g>
<text transform="matrix(1 0 0 1 380.9888 711.6064)" font-family="'MyriadPro-Regular'" font-size="6.5867">2.128</text>
<rect x="380.988" y="630.084" fill="none" stroke="#000000" stroke-miterlimit="10" width="26.622" height="10.43"/>
<g>
	<defs>
		<rect id="SVGID_75_" width="768" height="1024"/>
	</defs>
	<clipPath id="SVGID_76_">
		<use xlink:href="#SVGID_75_"  overflow="visible"/>
	</clipPath>
	<path clip-path="url(#SVGID_76_)" fill="none" stroke="#000000" stroke-miterlimit="10" d="M386.05,635.298
		c0-1.535,1.245-2.78,2.78-2.78h10.642c1.536,0,2.781,1.245,2.781,2.78c0,1.536-1.245,2.781-2.781,2.781H388.83
		C387.295,638.079,386.05,636.834,386.05,635.298z"/>
</g>
<text transform="matrix(1 0 0 1 387.9727 636.543)" font-family="'MyriadPro-Regular'" font-size="4.9433">2.118</text>
<rect x="380.988" y="640.514" fill="none" stroke="#000000" stroke-miterlimit="10" width="26.622" height="11.526"/>
<g>
	<defs>
		<rect id="SVGID_77_" width="768" height="1024"/>
	</defs>
	<clipPath id="SVGID_78_">
		<use xlink:href="#SVGID_77_"  overflow="visible"/>
	</clipPath>
	<path clip-path="url(#SVGID_78_)" fill="none" stroke="#000000" stroke-miterlimit="10" d="M385.711,646.276
		c0-1.693,1.207-3.066,2.695-3.066h11.785c1.49,0,2.696,1.373,2.696,3.066c0,1.694-1.206,3.067-2.696,3.067h-11.785
		C386.918,649.344,385.711,647.971,385.711,646.276z"/>
</g>
<text transform="matrix(1 0 0 1 387.668 647.7842)" font-family="'MyriadPro-Regular'" font-size="4.7978">2.119</text>
<rect x="303.32" y="674.271" fill="none" stroke="#000000" stroke-miterlimit="10" width="16.192" height="10.153"/>
<g>
	<defs>
		<rect id="SVGID_79_" width="768" height="1024"/>
	</defs>
	<clipPath id="SVGID_80_">
		<use xlink:href="#SVGID_79_"  overflow="visible"/>
	</clipPath>
	<path clip-path="url(#SVGID_80_)" fill="none" stroke="#000000" stroke-miterlimit="10" d="M315.429,676.895
		c1.244,0,2.254,1.009,2.254,2.254c0,1.244-1.01,2.253-2.254,2.253h-8.746c-1.245,0-2.254-1.009-2.254-2.253
		c0-1.245,1.009-2.254,2.254-2.254H315.429z"/>
</g>
<text transform="matrix(1 0 0 1 306.458 680.3896)" font-family="'MyriadPro-Regular'" font-size="4.2343">2.125</text>
<rect x="319.512" y="674.271" fill="none" stroke="#000000" stroke-miterlimit="10" width="15.735" height="9.515"/>
<g>
	<defs>
		<rect id="SVGID_81_" width="768" height="1024"/>
	</defs>
	<clipPath id="SVGID_82_">
		<use xlink:href="#SVGID_81_"  overflow="visible"/>
	</clipPath>
	<path clip-path="url(#SVGID_82_)" fill="none" stroke="#000000" stroke-miterlimit="10" d="M334.377,679.341
		c0,1.472-1.211,2.663-2.704,2.663h-8.554c-1.493,0-2.704-1.191-2.704-2.663s1.211-2.664,2.704-2.664h8.554
		C333.166,676.677,334.377,677.869,334.377,679.341z"/>
</g>
<text transform="matrix(1 0 0 1 322.2749 680.5)" font-family="'MyriadPro-Regular'" font-size="4.4481">2.126</text>
<rect x="407.609" y="684.425" fill="none" stroke="#000000" stroke-miterlimit="10" width="53.335" height="33.208"/>
<g>
	<defs>
		<rect id="SVGID_83_" width="768" height="1024"/>
	</defs>
	<clipPath id="SVGID_84_">
		<use xlink:href="#SVGID_83_"  overflow="visible"/>
	</clipPath>
	<path clip-path="url(#SVGID_84_)" fill="none" stroke="#000000" stroke-miterlimit="10" d="M446.308,700.96
		c0,2.539-2.058,4.598-4.597,4.598h-13.676c-2.54,0-4.598-2.059-4.598-4.598c0-2.538,2.058-4.597,4.598-4.597h13.676
		C444.25,696.363,446.308,698.422,446.308,700.96z"/>
</g>
<text transform="matrix(1 0 0 1 427.0059 702.8926)" font-family="'MyriadPro-Regular'" font-size="6.5867">2.130</text>
<rect x="460.944" y="684.425" fill="none" stroke="#000000" stroke-miterlimit="10" width="54.342" height="33.208"/>
<g>
	<defs>
		<rect id="SVGID_85_" width="768" height="1024"/>
	</defs>
	<clipPath id="SVGID_86_">
		<use xlink:href="#SVGID_85_"  overflow="visible"/>
	</clipPath>
	<path clip-path="url(#SVGID_86_)" fill="none" stroke="#000000" stroke-miterlimit="10" d="M501.381,700.959
		c0,2.54-1.895,4.599-4.23,4.599h-16.056c-2.337,0-4.231-2.059-4.231-4.599c0-2.537,1.895-4.596,4.231-4.596h16.056
		C499.486,696.363,501.381,698.422,501.381,700.959z"/>
</g>
<text transform="matrix(1 0 0 1 481.3477 702.71)" font-family="'MyriadPro-Regular'" font-size="6.5867">2.131</text>
<rect x="515.286" y="684.425" fill="none" stroke="#000000" stroke-miterlimit="10" width="52.328" height="33.208"/>
<g>
	<defs>
		<rect id="SVGID_87_" width="768" height="1024"/>
	</defs>
	<clipPath id="SVGID_88_">
		<use xlink:href="#SVGID_87_"  overflow="visible"/>
	</clipPath>
	<path clip-path="url(#SVGID_88_)" fill="none" stroke="#000000" stroke-miterlimit="10" d="M553.709,700.96
		c0,2.539-2.059,4.598-4.597,4.598h-13.494c-2.539,0-4.598-2.059-4.598-4.598c0-2.538,2.059-4.597,4.598-4.597h13.494
		C551.65,696.363,553.709,698.422,553.709,700.96z"/>
</g>
<text transform="matrix(1 0 0 1 534.3613 702.7314)" font-family="'MyriadPro-Regular'" font-size="6.5867">2.132</text>
<rect x="380.988" y="652.04" fill="none" stroke="#000000" stroke-miterlimit="10" width="13.311" height="12.762"/>
<rect x="394.094" y="652.04" fill="none" stroke="#000000" stroke-miterlimit="10" width="13.312" height="12.762"/>
<text transform="matrix(1 0 0 1 382.1118 658.8789)" font-family="'MyriadPro-Regular'" font-size="3.4826">2.120A</text>
<g>
	<defs>
		<rect id="SVGID_89_" width="768" height="1024"/>
	</defs>
	<clipPath id="SVGID_90_">
		<use xlink:href="#SVGID_89_"  overflow="visible"/>
	</clipPath>
	<path clip-path="url(#SVGID_90_)" fill="none" stroke="#000000" stroke-miterlimit="10" d="M393.121,657.983
		c0,1.313-1.388,2.377-3.1,2.377h-5.688c-1.711,0-3.098-1.063-3.098-2.377c0-1.312,1.387-2.375,3.098-2.375h5.688
		C391.733,655.608,393.121,656.672,393.121,657.983z"/>
</g>
<text transform="matrix(1 0 0 1 395.2031 659.1641)" font-family="'MyriadPro-Regular'" font-size="3.4826">2.120B</text>
<g>
	<defs>
		<rect id="SVGID_91_" width="768" height="1024"/>
	</defs>
	<clipPath id="SVGID_92_">
		<use xlink:href="#SVGID_91_"  overflow="visible"/>
	</clipPath>
	<path clip-path="url(#SVGID_92_)" fill="none" stroke="#000000" stroke-miterlimit="10" d="M406.355,658.097
		c0,1.408-1.44,2.549-3.218,2.549h-5.907c-1.776,0-3.218-1.141-3.218-2.549s1.441-2.549,3.218-2.549h5.907
		C404.915,655.548,406.355,656.688,406.355,658.097z"/>
</g>
<polygon fill="none" stroke="#000000" stroke-miterlimit="10" points="509.018,656.157 511.214,642.16 548.401,642.16 
	546.343,656.157 "/>
<g>
	<defs>
		<rect id="SVGID_93_" width="768" height="1024"/>
	</defs>
	<clipPath id="SVGID_94_">
		<use xlink:href="#SVGID_93_"  overflow="visible"/>
	</clipPath>
	<path clip-path="url(#SVGID_94_)" fill="none" stroke="#000000" stroke-miterlimit="10" d="M541.282,649.201
		c0,2.288-1.854,4.143-4.142,4.143h-15.86c-2.288,0-4.144-1.854-4.144-4.143c0-2.287,1.855-4.143,4.144-4.143h15.86
		C539.428,645.059,541.282,646.914,541.282,649.201z"/>
</g>
<text transform="matrix(1 0 0 1 520.3984 651.2813)" font-family="'MyriadPro-Regular'" font-size="6.8571">2.134</text>
<polygon fill="none" stroke="#000000" stroke-miterlimit="10" points="509.018,656.157 507.783,664.802 536.542,664.802 
	538.246,656.157 "/>
<g>
	<defs>
		<rect id="SVGID_95_" width="768" height="1024"/>
	</defs>
	<clipPath id="SVGID_96_">
		<use xlink:href="#SVGID_95_"  overflow="visible"/>
	</clipPath>
	<path clip-path="url(#SVGID_96_)" fill="none" stroke="#000000" stroke-miterlimit="10" d="M531.727,660.479
		c0,1.862-1.509,3.37-3.371,3.37h-10.682c-1.862,0-3.37-1.508-3.37-3.37s1.508-3.37,3.37-3.37h10.682
		C530.218,657.109,531.727,658.617,531.727,660.479z"/>
</g>
<text transform="matrix(1 0 0 1 517.001 661.7842)" font-family="'MyriadPro-Regular'" font-size="4.9781">2.111</text>
<rect x="333.421" y="90.977" fill="none" stroke="#000000" stroke-miterlimit="10" width="22.73" height="13.173"/>
<g>
	<defs>
		<rect id="SVGID_97_" width="768" height="1024"/>
	</defs>
	<clipPath id="SVGID_98_">
		<use xlink:href="#SVGID_97_"  overflow="visible"/>
	</clipPath>
	<path clip-path="url(#SVGID_98_)" fill="#3F3D3D" d="M354.23,97.931c0,1.818-1.474,3.292-3.292,3.292h-12.029
		c-1.818,0-3.292-1.474-3.292-3.292c0-1.818,1.474-3.292,3.292-3.292h12.029C352.756,94.639,354.23,96.113,354.23,97.931"/>
	<path clip-path="url(#SVGID_98_)" fill="none" stroke="#000000" stroke-miterlimit="10" d="M354.23,97.931
		c0,1.818-1.474,3.292-3.292,3.292h-12.029c-1.818,0-3.292-1.474-3.292-3.292c0-1.818,1.474-3.292,3.292-3.292h12.029
		C352.756,94.639,354.23,96.113,354.23,97.931z"/>
</g>
<text transform="matrix(1 0 0 1 340.5327 99.4731)" fill="#FFFFFF" font-family="'MyriadPro-Regular'" font-size="5.4889">WC</text>
<g>
	<defs>
		<rect id="SVGID_99_" width="768" height="1024"/>
	</defs>
	<clipPath id="SVGID_100_">
		<use xlink:href="#SVGID_99_"  overflow="visible"/>
	</clipPath>
	
		<rect x="333.421" y="124.642" clip-path="url(#SVGID_100_)" fill="none" stroke="#000000" stroke-miterlimit="10" width="21.956" height="12.808"/>
	<path clip-path="url(#SVGID_100_)" fill="#3F3D3D" d="M353.455,131.596c0,1.817-1.474,3.292-3.292,3.292h-12.028
		c-1.819,0-3.293-1.475-3.293-3.292c0-1.818,1.474-3.292,3.293-3.292h12.028C351.981,128.304,353.455,129.778,353.455,131.596"/>
	<path clip-path="url(#SVGID_100_)" fill="none" stroke="#000000" stroke-miterlimit="10" d="M353.455,131.596
		c0,1.817-1.474,3.292-3.292,3.292h-12.028c-1.819,0-3.293-1.475-3.293-3.292c0-1.818,1.474-3.292,3.293-3.292h12.028
		C351.981,128.304,353.455,129.778,353.455,131.596z"/>
</g>
<text transform="matrix(1 0 0 1 339.7583 133.1387)" fill="#FFFFFF" font-family="'MyriadPro-Regular'" font-size="5.4889">WC</text>
<g>
	<defs>
		<rect id="SVGID_101_" width="768" height="1024"/>
	</defs>
	<clipPath id="SVGID_102_">
		<use xlink:href="#SVGID_101_"  overflow="visible"/>
	</clipPath>
	
		<rect x="333.098" y="319.136" clip-path="url(#SVGID_102_)" fill="none" stroke="#000000" stroke-miterlimit="10" width="22.642" height="15.781"/>
	<path clip-path="url(#SVGID_102_)" fill="#3F3D3D" d="M353.758,327.705c0,2.24-1.521,4.056-3.396,4.056h-12.405
		c-1.875,0-3.394-1.816-3.394-4.056c0-2.241,1.519-4.057,3.394-4.057h12.405C352.237,323.648,353.758,325.464,353.758,327.705"/>
	<path clip-path="url(#SVGID_102_)" fill="none" stroke="#000000" stroke-miterlimit="10" d="M353.758,327.705
		c0,2.24-1.521,4.056-3.396,4.056h-12.405c-1.875,0-3.394-1.816-3.394-4.056c0-2.241,1.519-4.057,3.394-4.057h12.405
		C352.237,323.648,353.758,325.464,353.758,327.705z"/>
</g>
<text transform="matrix(1 0 0 1.1948 339.8911 329.6055)" fill="#FFFFFF" font-family="'MyriadPro-Regular'" font-size="5.6604">WC</text>
<g>
	<defs>
		<rect id="SVGID_103_" width="768" height="1024"/>
	</defs>
	<clipPath id="SVGID_104_">
		<use xlink:href="#SVGID_103_"  overflow="visible"/>
	</clipPath>
	
		<rect x="333.098" y="354.951" clip-path="url(#SVGID_104_)" fill="none" stroke="#000000" stroke-miterlimit="10" width="22.642" height="15.756"/>
	<path clip-path="url(#SVGID_104_)" fill="#3F3D3D" d="M353.758,363.506c0,2.236-1.521,4.05-3.396,4.05h-12.405
		c-1.875,0-3.394-1.814-3.394-4.05s1.519-4.05,3.394-4.05h12.405C352.237,359.456,353.758,361.271,353.758,363.506"/>
	<path clip-path="url(#SVGID_104_)" fill="none" stroke="#000000" stroke-miterlimit="10" d="M353.758,363.506
		c0,2.236-1.521,4.05-3.396,4.05h-12.405c-1.875,0-3.394-1.814-3.394-4.05s1.519-4.05,3.394-4.05h12.405
		C352.237,359.456,353.758,361.271,353.758,363.506z"/>
</g>
<text transform="matrix(1 0 0 1.1929 339.6328 365.4033)" fill="#FFFFFF" font-family="'MyriadPro-Regular'" font-size="5.6604">WC</text>
<g>
	<defs>
		<rect id="SVGID_105_" width="768" height="1024"/>
	</defs>
	<clipPath id="SVGID_106_">
		<use xlink:href="#SVGID_105_"  overflow="visible"/>
	</clipPath>
	
		<rect x="148.414" y="389.943" clip-path="url(#SVGID_106_)" fill="none" stroke="#000000" stroke-miterlimit="10" width="21.033" height="12.053"/>
	<path clip-path="url(#SVGID_106_)" fill="#3F3D3D" d="M167.945,395.971c0,1.817-1.428,3.292-3.189,3.292h-11.653
		c-1.762,0-3.19-1.475-3.19-3.292c0-1.818,1.428-3.292,3.19-3.292h11.653C166.517,392.679,167.945,394.153,167.945,395.971"/>
	<path clip-path="url(#SVGID_106_)" fill="none" stroke="#000000" stroke-miterlimit="10" d="M167.945,395.971
		c0,1.817-1.428,3.292-3.189,3.292h-11.653c-1.762,0-3.19-1.475-3.19-3.292c0-1.818,1.428-3.292,3.19-3.292h11.653
		C166.517,392.679,167.945,394.153,167.945,395.971z"/>
</g>
<text transform="matrix(1 0 0 1.0323 154.6758 397.5127)" fill="#FFFFFF" font-family="'MyriadPro-Regular'" font-size="5.3174">WC</text>
<g>
	<defs>
		<rect id="SVGID_107_" width="768" height="1024"/>
	</defs>
	<clipPath id="SVGID_108_">
		<use xlink:href="#SVGID_107_"  overflow="visible"/>
	</clipPath>
	
		<rect x="148.532" y="402.019" clip-path="url(#SVGID_108_)" fill="none" stroke="#000000" stroke-miterlimit="10" width="20.796" height="10.704"/>
	<path clip-path="url(#SVGID_108_)" fill="#3F3D3D" d="M167.66,407.557c0,1.693-1.383,3.067-3.089,3.067h-11.282
		c-1.705,0-3.088-1.374-3.088-3.067c0-1.695,1.383-3.068,3.088-3.068h11.282C166.277,404.489,167.66,405.862,167.66,407.557"/>
	<path clip-path="url(#SVGID_108_)" fill="none" stroke="#000000" stroke-miterlimit="10" d="M167.66,407.557
		c0,1.693-1.383,3.067-3.089,3.067h-11.282c-1.705,0-3.088-1.374-3.088-3.067c0-1.695,1.383-3.068,3.088-3.068h11.282
		C166.277,404.489,167.66,405.862,167.66,407.557z"/>
</g>
<text transform="matrix(1.1419 0 0 1 154.8125 409.186)" fill="#FFFFFF" font-family="'MyriadPro-Regular'" font-size="4.5089">WC</text>
<g>
	<defs>
		<rect id="SVGID_109_" width="768" height="1024"/>
	</defs>
	<clipPath id="SVGID_110_">
		<use xlink:href="#SVGID_109_"  overflow="visible"/>
	</clipPath>
	
		<rect x="335.248" y="663.155" clip-path="url(#SVGID_110_)" fill="none" stroke="#000000" stroke-miterlimit="10" width="29.274" height="10.224"/>
	<path clip-path="url(#SVGID_110_)" fill="#3F3D3D" d="M362.52,669.227c0,2.063-1.96,3.738-4.377,3.738h-15.991
		c-2.419,0-4.375-1.675-4.375-3.738c0-2.066,1.956-3.738,4.375-3.738h15.991C360.56,665.488,362.52,667.16,362.52,669.227"/>
	<path clip-path="url(#SVGID_110_)" fill="none" stroke="#000000" stroke-miterlimit="10" d="M362.52,669.227
		c0,2.063-1.96,3.738-4.377,3.738h-15.991c-2.419,0-4.375-1.675-4.375-3.738c0-2.066,1.956-3.738,4.375-3.738h15.991
		C360.56,665.488,362.52,667.16,362.52,669.227z"/>
</g>
<text transform="matrix(1.1706 0 0 1 344.6436 670.9785)" fill="#FFFFFF" font-family="'MyriadPro-Regular'" font-size="6.2338">WC</text>
<line fill="none" stroke="#000000" stroke-miterlimit="10" x1="148.414" y1="389.943" x2="148.414" y2="376.222"/>
<rect x="134.718" y="426.169" fill="none" stroke="#000000" stroke-miterlimit="10" width="126.063" height="62.575"/>
<rect x="318.049" y="62.073" fill="none" stroke="#000000" stroke-miterlimit="10" width="38.102" height="28.904"/>
<rect x="356.151" y="62.072" fill="none" stroke="#000000" stroke-miterlimit="10" width="20.081" height="28.904"/>
<rect x="418.316" y="312.732" fill="none" stroke="#000000" stroke-miterlimit="10" width="23.782" height="86.356"/>
<line fill="none" stroke="#000000" stroke-miterlimit="10" x1="355.739" y1="370.707" x2="355.739" y2="383.082"/>
<g>
	<defs>
		<rect id="SVGID_111_" width="768" height="1024"/>
	</defs>
	<clipPath id="SVGID_112_">
		<use xlink:href="#SVGID_111_"  overflow="visible"/>
	</clipPath>
	<path clip-path="url(#SVGID_112_)" fill="none" stroke="#000000" stroke-miterlimit="10" d="M333.506,719.016v264.832h271.433
		V717.633l44.276,5.893c0,0,7.684-73.863,8.782-74.367c1.098-0.504-54.89-8.555-54.89-8.555l3.293-22.321l55.987,8.473l9.148-68.119
		l-88.921-10.977l-15.002,107.889v28.877l-1.466,285.514l-194.31,0.365l0.093-252.671h-38.425V719.016z"/>
	<polygon clip-path="url(#SVGID_112_)" fill="none" stroke="#000000" stroke-miterlimit="10" points="582.616,547.659 
		536.542,540.706 523.378,641.887 548.401,642.16 546.343,656.157 567.614,655.548 	"/>
	<polyline clip-path="url(#SVGID_112_)" fill="none" stroke="#000000" stroke-miterlimit="10" points="507.783,664.802 
		488.115,664.802 488.115,654.328 447.587,654.328 447.587,664.802 422.704,664.802 	"/>
	
		<rect x="407.609" y="652.04" clip-path="url(#SVGID_112_)" fill="none" stroke="#000000" stroke-miterlimit="10" width="15.828" height="12.762"/>
	<path clip-path="url(#SVGID_112_)" fill="none" stroke="#000000" stroke-miterlimit="10" d="M409.349,342.777
		c6.038-5.733,11.601-21.661-6.039-23.641h-24.517v10.798c0,0,8.783,0.672,18.297,0c9.664-0.682,0,5.718,0,5.718l-22.322,9.644
		l4.924,9.655C379.691,354.951,407.744,344.3,409.349,342.777z"/>
	
		<rect x="383.001" y="762.094" clip-path="url(#SVGID_112_)" fill="none" stroke="#000000" stroke-miterlimit="10" width="172.536" height="163.204"/>
	<rect x="383.001" y="762.094" clip-path="url(#SVGID_112_)" fill="#666666" width="24.608" height="163.204"/>
	
		<rect x="383.001" y="762.094" clip-path="url(#SVGID_112_)" fill="none" stroke="#000000" stroke-miterlimit="10" width="24.608" height="163.204"/>
	<rect x="531.02" y="762.094" clip-path="url(#SVGID_112_)" fill="#666666" width="24.518" height="163.204"/>
	
		<rect x="531.02" y="762.094" clip-path="url(#SVGID_112_)" fill="none" stroke="#000000" stroke-miterlimit="10" width="24.518" height="163.204"/>
	<polyline clip-path="url(#SVGID_112_)" fill="none" stroke="#000000" stroke-miterlimit="10" points="121.911,495.605 
		132.064,495.605 132.064,502.192 	"/>
	
		<rect x="373.304" y="630.084" clip-path="url(#SVGID_112_)" fill="none" stroke="#000000" stroke-miterlimit="10" width="7.685" height="34.718"/>
	
		<rect x="377.146" y="511.523" clip-path="url(#SVGID_112_)" fill="none" stroke="#000000" stroke-miterlimit="10" width="71.174" height="26.347"/>
	
		<line clip-path="url(#SVGID_112_)" fill="none" stroke="#000000" stroke-miterlimit="10" x1="370.926" y1="511.523" x2="335.613" y2="511.523"/>
	<polygon clip-path="url(#SVGID_112_)" fill="none" stroke="#000000" stroke-miterlimit="10" points="337.626,535.035 
		337.626,515.091 339.821,515.091 358.621,515.091 358.621,535.035 	"/>
	<polyline clip-path="url(#SVGID_112_)" fill="none" stroke="#000000" stroke-miterlimit="10" points="339.821,535.035 
		339.821,525.063 339.821,520.58 339.821,515.091 343.114,515.091 343.114,519.894 343.114,525.063 343.114,529.911 
		343.114,535.035 345.31,535.035 345.31,529.911 345.31,525.063 345.31,520.58 345.31,515.091 348.123,515.091 348.123,519.894 
		348.123,525.063 348.123,529.729 348.123,535.035 350.387,535.035 350.387,530.46 350.387,525.063 350.387,520.718 
		350.387,515.091 353.271,515.091 353.271,520.58 353.271,525.063 353.271,530.096 353.271,535.035 355.739,535.035 
		355.739,530.278 355.739,525.063 355.739,519.894 355.739,515.091 358.621,515.091 358.621,519.894 337.626,519.894 
		337.626,525.063 358.621,525.063 358.621,530.278 337.259,530.186 	"/>
	<polyline clip-path="url(#SVGID_112_)" fill="none" stroke="#000000" stroke-miterlimit="10" points="380.347,342.885 
		384.475,353.118 387.066,352.116 382.397,342 384.765,340.978 389.088,351.332 391.601,350.011 386.813,340.092 388.716,339.271 
		393.904,349.441 396.131,348.556 390.966,338.298 392.784,337.512 398.262,347.702 400.2,346.917 394.988,336.561 397.09,335.652 
		402.438,345.994 404.099,345.296 399.212,334.038 400.514,332.776 405.821,344.551 	"/>
	<polygon clip-path="url(#SVGID_112_)" fill="none" stroke="#000000" stroke-miterlimit="10" points="341.194,87.777 
		322.669,87.777 320.198,87.777 320.198,66.919 322.669,66.919 341.194,66.919 	"/>
	<polyline clip-path="url(#SVGID_112_)" fill="none" stroke="#000000" stroke-miterlimit="10" points="322.806,82.014 
		322.668,87.778 325.825,87.778 325.825,82.014 325.825,76.523 325.825,72.134 325.825,66.92 328.295,66.92 328.295,72.409 
		328.295,77.073 328.295,82.014 328.295,87.778 330.697,87.778 330.697,81.74 330.697,77.348 330.697,72.134 330.697,66.92 
		333.421,66.92 333.421,72.134 333.421,77.348 333.421,81.877 333.421,87.778 335.617,87.778 335.617,81.74 335.617,77.073 
		335.617,71.583 335.617,66.92 338.175,66.92 338.175,72.134 338.175,77.073 338.175,82.288 338.175,87.778 341.194,87.778 
		341.194,82.152 320.199,81.877 320.199,77.348 341.194,77.073 341.194,72.271 320.199,72.409 320.199,69.115 341.194,68.978 
		341.194,66.92 322.668,66.92 322.806,81.328 	"/>
	<path clip-path="url(#SVGID_112_)" fill="none" stroke="#000000" stroke-miterlimit="10" d="M588.882,548.434
		c0,0,0.823-10.838,1.235-10.838c0.197,0,24.563,2.333,24.563,2.333l-1.539,11.499l-12.586-1.554"/>
	<polyline clip-path="url(#SVGID_112_)" fill="none" stroke="#000000" stroke-miterlimit="10" points="612.633,540.706 
		610.605,550.556 607.954,550.787 610.439,539.523 607.682,539.349 605.486,550.633 603.001,550.176 605.248,539.77 
		602.665,539.446 600.555,549.874 	"/>
	<polyline clip-path="url(#SVGID_112_)" fill="none" stroke="#000000" stroke-miterlimit="10" points="601.239,546.489 
		613.519,548.602 613.519,545.068 601.781,542.124 	"/>
	<polygon clip-path="url(#SVGID_112_)" fill="none" stroke="#000000" stroke-miterlimit="10" points="488.115,675.23 
		447.587,675.23 447.587,666.553 447.587,664.802 488.115,664.802 488.115,666.553 	"/>
	<polyline clip-path="url(#SVGID_112_)" fill="none" stroke="#000000" stroke-miterlimit="10" points="447.587,671.9 488.115,671.9 
		488.115,668.267 447.587,668.267 	"/>
	<polyline clip-path="url(#SVGID_112_)" fill="none" stroke="#000000" stroke-miterlimit="10" points="452.619,664.802 
		452.619,675.23 458.016,675.23 457.834,664.868 460.944,664.868 460.944,675.23 465.244,675.23 465.244,664.868 469.635,664.868 
		469.544,675.23 473.386,675.23 473.478,664.868 476.862,664.868 476.862,675.23 481.345,675.23 481.347,664.868 485.004,664.868 
		485.004,675.23 	"/>
	
		<line clip-path="url(#SVGID_112_)" fill="none" stroke="#000000" stroke-miterlimit="10" x1="355.376" y1="291.506" x2="355.739" y2="319.136"/>
	<circle clip-path="url(#SVGID_112_)" fill="none" stroke="#000000" stroke-miterlimit="10" cx="248.156" cy="475.752" r="11.161"/>
	<polyline clip-path="url(#SVGID_112_)" fill="none" stroke="#000000" stroke-miterlimit="10" points="248.156,486.913 
		248.156,475.752 259.317,475.752 	"/>
	<polyline clip-path="url(#SVGID_112_)" fill="none" stroke="#000000" stroke-miterlimit="10" points="255.465,467.329 
		248.156,475.752 248.156,464.591 	"/>
	<polyline clip-path="url(#SVGID_112_)" fill="none" stroke="#000000" stroke-miterlimit="10" points="240.011,467.966 
		247.608,475.752 237.074,474.458 	"/>
	<polyline clip-path="url(#SVGID_112_)" fill="none" stroke="#000000" stroke-miterlimit="10" points="239.326,482.561 
		248.157,475.751 242.616,485.441 	"/>
	
		<rect x="94.192" y="362.829" clip-path="url(#SVGID_112_)" fill="none" stroke="#000000" stroke-miterlimit="10" width="198.245" height="13.392"/>
</g>
</svg>
