<?xml version="1.0" encoding="utf-8"?>
<!-- Generator: Adobe Illustrator 16.0.0, SVG Export Plug-In . SVG Version: 6.00 Build 0)  -->
<!DOCTYPE svg PUBLIC "-//W3C//DTD SVG 1.1//EN" "http://www.w3.org/Graphics/SVG/1.1/DTD/svg11.dtd">
<svg version="1.1" xmlns="http://www.w3.org/2000/svg" xmlns:xlink="http://www.w3.org/1999/xlink" x="0px" y="0px"
	 width="561.081px" height="920.954px" viewBox="0 0 561.081 920.954" enable-background="new 0 0 561.081 920.954"
	 xml:space="preserve">
<g id="Layer_2">
	<polygon fill="#F7931E" stroke="#000000" stroke-miterlimit="10" points="261,86.222 261,28.222 273.616,28.222 273.616,13.555 
		320.667,13.555 320.667,86.222 	"/>
</g>
<g id="WC">
	<rect x="211.333" y="93.887" fill="none" stroke="#000000" stroke-miterlimit="10" width="16.667" height="15.667"/>
	<rect x="224" y="285.887" fill="none" stroke="#000000" stroke-miterlimit="10" width="20.333" height="18.667"/>
	<rect x="224" y="304.554" fill="#39B54A" stroke="#000000" stroke-miterlimit="10" width="20.333" height="19.667"/>
	<rect x="48.333" y="469.886" fill="#39B54A" stroke="#000000" stroke-miterlimit="10" width="10.333" height="17.336"/>
	<rect x="58.667" y="469.886" fill="#39B54A" stroke="#000000" stroke-miterlimit="10" width="11.333" height="17.336"/>
	<rect x="288.705" y="609.887" fill="#39B54A" stroke="#000000" stroke-miterlimit="10" width="6.592" height="20"/>
	<rect x="324.334" y="665.554" fill="#39B54A" stroke="#000000" stroke-miterlimit="10" width="12.667" height="26"/>
	<rect x="337" y="665.554" fill="#39B54A" stroke="#000000" stroke-miterlimit="10" width="14" height="26"/>
	<rect x="293.75" y="778.821" fill="#39B54A" stroke="#000000" stroke-miterlimit="10" width="25.75" height="12.065"/>
	<rect x="293.75" y="790.886" fill="#39B54A" stroke="#000000" stroke-miterlimit="10" width="25.75" height="12.001"/>
	<rect x="413.5" y="776.637" fill="#39B54A" stroke="#000000" stroke-miterlimit="10" width="25" height="12.249"/>
	<rect x="413.5" y="788.886" fill="#39B54A" stroke="#000000" stroke-miterlimit="10" width="25" height="12.251"/>
	<rect x="468.75" y="663.364" fill="#39B54A" stroke="#000000" stroke-miterlimit="10" width="12.375" height="12.773"/>
	<polygon fill="#39B54A" stroke="#000000" stroke-miterlimit="10" points="445.334,555.107 449.461,518.684 460.336,519.464 
		455.693,555.887 	"/>
	<polyline fill="none" stroke="#000000" stroke-miterlimit="10" points="524.636,620.256 476.75,613.887 476.75,620.256 
		523.806,626.428 524.636,620.256 	"/>
	<polyline fill="none" stroke="#000000" stroke-miterlimit="10" points="476.75,613.887 478,599.387 491.613,601.352 
		490.489,615.714 497.466,616.643 499.031,602.422 505.82,603.403 503.75,616.643 511.345,617.349 512.573,604.377 519.607,605.392 
		518.25,618.474 	"/>
	<polyline fill="none" stroke="#000000" stroke-miterlimit="10" points="522.914,638.554 515.584,637.248 517.246,625.5 
		509.475,624.495 509.063,635.637 502.253,634.928 503.516,623.767 476.75,620.256 474.332,629.887 	"/>
	<rect x="413.5" y="664.387" fill="none" stroke="#000000" stroke-miterlimit="10" width="23.5" height="25.5"/>
	<rect x="383" y="664.387" fill="none" stroke="#000000" stroke-miterlimit="10" width="12.5" height="25.5"/>
	<rect x="395.5" y="664.387" fill="none" stroke="#000000" stroke-miterlimit="10" width="12" height="25.5"/>
	<rect x="293.75" y="665.554" fill="none" stroke="#000000" stroke-miterlimit="10" width="25.75" height="26"/>
	<rect x="293.75" y="703.137" fill="none" stroke="#000000" stroke-miterlimit="10" width="25.75" height="13.091"/>
	<rect x="189" y="131.887" fill="none" stroke="#000000" stroke-miterlimit="10" width="39" height="15.334"/>
	<rect x="211.333" y="69.387" fill="none" stroke="#000000" stroke-miterlimit="10" width="31.917" height="24.5"/>
	<rect x="243.25" y="69.387" fill="none" stroke="#000000" stroke-miterlimit="10" width="17.75" height="24.835"/>
	<rect x="228" y="93.887" fill="none" stroke="#000000" stroke-miterlimit="10" width="15.25" height="53.334"/>
	<rect x="48.333" y="449.221" fill="none" stroke="#000000" stroke-miterlimit="10" width="21.667" height="20.665"/>
	<rect x="70" y="449.221" fill="none" stroke="#000000" stroke-miterlimit="10" width="18.166" height="38.001"/>
	<rect x="293.75" y="703.137" fill="none" stroke="#000000" stroke-miterlimit="10" width="144.75" height="137"/>
	<rect x="224" y="269.555" fill="#8CC63F" stroke="#000000" stroke-miterlimit="10" width="20.333" height="16.333"/>
	<rect x="225.667" y="347.387" fill="#0000FF" stroke="#000000" stroke-miterlimit="10" width="17.833" height="13.5"/>
	<line fill="none" stroke="#000000" stroke-miterlimit="10" x1="236.833" y1="324.22" x2="236.833" y2="347.387"/>
	<polyline fill="none" stroke="#000000" stroke-miterlimit="10" points="243.5,360.887 243.5,373.554 236.833,373.554 
		236.833,390.22 	"/>
	<line fill="none" stroke="#000000" stroke-miterlimit="10" x1="299" y1="288.222" x2="299.833" y2="337.553"/>
	<line fill="none" stroke="#000000" stroke-miterlimit="10" x1="299.417" y1="343.22" x2="299.833" y2="364.553"/>
	
		<rect x="358.764" y="620.526" transform="matrix(-0.9994 0.0349 -0.0349 -0.9994 750.0811 1237.5366)" fill="#0000FF" stroke="#000000" stroke-miterlimit="10" width="10.93" height="9.59"/>
	<polyline fill="#C1272D" stroke="#000000" stroke-miterlimit="10" points="347.417,621.383 358.6,620.72 358.6,624.178 
		347.013,624.178 347.27,626.428 358.6,626.428 358.6,628.137 347.22,628.137 	"/>
</g>
<g id="B112">
	<polygon fill="none" stroke="#000000" stroke-miterlimit="10" points="255.334,94.222 261,94.222 261,86.222 277.667,86.222 
		277.667,111.555 255.334,111.555 	"/>
</g>
<g id="B111">
	<rect x="255.334" y="111.555" fill="none" stroke="#000000" stroke-miterlimit="10" width="32" height="18.667"/>
</g>
<g id="B110">
	<rect x="287.334" y="111.555" fill="none" stroke="#000000" stroke-miterlimit="10" width="33.333" height="18.667"/>
</g>
<g id="B115">
	<rect x="261" y="130.222" fill="#F7931E" stroke="#000000" stroke-miterlimit="10" width="59.667" height="59"/>
	<rect x="261" y="189.222" fill="#F7931E" stroke="#000000" stroke-miterlimit="10" width="59.667" height="40.667"/>
</g>
<g id="B116">
	<rect x="261" y="229.889" fill="#F7931E" stroke="#000000" stroke-miterlimit="10" width="59.667" height="58.333"/>
</g>
<g id="B120">
	<rect x="189" y="93.887" fill="none" stroke="#000000" stroke-miterlimit="10" width="22.333" height="15.667"/>
</g>
<g id="B121">
	<rect x="189" y="109.553" fill="none" stroke="#000000" stroke-miterlimit="10" width="22.333" height="22.333"/>
</g>
<g id="B118">
	<rect x="211.333" y="109.553" fill="none" stroke="#000000" stroke-miterlimit="10" width="16.667" height="22.333"/>
</g>
<g id="B124">
	<rect x="189" y="210.888" fill="#F7931E" stroke="#000000" stroke-miterlimit="10" width="55.334" height="58.667"/>
	<rect x="189" y="147.221" fill="#F7931E" stroke="#000000" stroke-miterlimit="10" width="55.334" height="63.667"/>
</g>
<g id="B138">
	<rect x="48.333" y="333.887" fill="#F7931E" stroke="#000000" stroke-miterlimit="10" width="79.667" height="53"/>
</g>
<g id="B147">
	<rect x="88.166" y="448.816" fill="none" stroke="#000000" stroke-miterlimit="10" width="29.834" height="38.406"/>
</g>
<g id="B145">
	<rect x="146.667" y="448.816" fill="none" stroke="#000000" stroke-miterlimit="10" width="20.333" height="38.406"/>
</g>
<g id="B144">
	<rect x="167" y="448.272" fill="none" stroke="#000000" stroke-miterlimit="10" width="19.333" height="38.95"/>
</g>
<g id="B143">
	<rect x="186.5" y="448.098" fill="none" stroke="#000000" stroke-miterlimit="10" width="27.667" height="39.124"/>
</g>
<g id="B128">
	<rect x="276" y="364.553" fill="none" stroke="#000000" stroke-miterlimit="10" width="23" height="32.667"/>
</g>
<g id="B127">
	<rect id="B127_1_" x="276" y="397.219" fill="none" stroke="#000000" stroke-miterlimit="10" width="23" height="16.333"/>
	<rect id="B127.1" x="299" y="364.553" fill="none" stroke="#000000" stroke-miterlimit="10" width="27.667" height="16.333"/>
	<rect id="B127.2" x="299" y="380.886" fill="none" stroke="#000000" stroke-miterlimit="10" width="27.667" height="16.333"/>
	<rect id="B127.3" x="299" y="397.219" fill="none" stroke="#000000" stroke-miterlimit="10" width="27.667" height="16.333"/>
</g>
<g id="B131">
	<rect id="B131_1_" x="276" y="428.886" fill="none" stroke="#000000" stroke-miterlimit="10" width="23" height="35.333"/>
	<rect id="B131.1" x="299" y="413.553" fill="none" stroke="#000000" stroke-miterlimit="10" width="27.667" height="15.333"/>
	<rect id="B131.2" x="299" y="428.886" fill="none" stroke="#000000" stroke-miterlimit="10" width="27.667" height="35.333"/>
</g>
<g id="B146">
	<rect x="118" y="448.816" fill="none" stroke="#000000" stroke-miterlimit="10" width="28.667" height="38.406"/>
</g>
<g id="B139">
	<rect x="15" y="333.887" fill="none" stroke="#000000" stroke-miterlimit="10" width="33.333" height="115.334"/>
</g>
<g id="B109">
	<rect x="277.667" y="86.222" fill="none" stroke="#000000" stroke-miterlimit="10" width="43" height="25.333"/>
</g>
<g id="A1127">
	<rect x="239.297" y="679.191" fill="#F7931E" stroke="#000000" stroke-miterlimit="10" width="24.444" height="37.037"/>
</g>
<g id="A1129">
	<rect x="239.297" y="716.228" fill="#F7931E" stroke="#000000" stroke-miterlimit="10" width="24.444" height="37.777"/>
</g>
<g id="A1130">
	<rect x="239.297" y="754.005" fill="#F7931E" stroke="#000000" stroke-miterlimit="10" width="24.444" height="24.815"/>
</g>
<g id="A1141">
	<rect x="239.297" y="778.821" fill="#F7931E" stroke="#000000" stroke-miterlimit="10" width="24.444" height="36.666"/>
</g>
<g id="A1143">
	<rect x="239.297" y="815.487" fill="#F7931E" stroke="#000000" stroke-miterlimit="10" width="24.444" height="38.889"/>
</g>
<g id="A1146">
	<rect x="225.964" y="865.857" fill="#F7931E" stroke="#000000" stroke-miterlimit="10" width="37.778" height="38.148"/>
</g>
<g id="A1147">
	<rect x="263.742" y="877.387" fill="none" stroke="#000000" stroke-miterlimit="10" width="12.593" height="19.951"/>
</g>
<g id="A1148">
	<rect x="276.334" y="877.387" fill="#F7931E" stroke="#000000" stroke-miterlimit="10" width="41.111" height="26.618"/>
</g>
<g id="A1125">
	<rect x="366.705" y="877.387" fill="#F7931E" stroke="#000000" stroke-miterlimit="10" width="48.795" height="26.618"/>
</g>
<g id="A1123">
	<rect x="415.5" y="877.387" fill="#F7931E" stroke="#000000" stroke-miterlimit="10" width="41.25" height="26.618"/>
</g>
<g id="A1122">
	<rect x="456.75" y="877.387" fill="none" stroke="#000000" stroke-miterlimit="10" width="12" height="17"/>
</g>
<g id="A1121">
	<rect x="468.75" y="863.137" fill="#F7931E" stroke="#000000" stroke-miterlimit="10" width="38" height="37.5"/>
</g>
<g id="A1120">
	<rect x="468.75" y="850.637" fill="none" stroke="#000000" stroke-miterlimit="10" width="18.25" height="12.5"/>
</g>
<g id="A1118">
	<rect x="468.75" y="813.387" fill="#F7931E" stroke="#000000" stroke-miterlimit="10" width="24.75" height="37.25"/>
</g>
<g id="A1150">
	<rect x="317.445" y="877.387" fill="#F7931E" stroke="#000000" stroke-miterlimit="10" width="49.259" height="26.618"/>
</g>
<g id="A1145">
	<rect x="240.75" y="854.375" fill="none" stroke="#000000" stroke-miterlimit="10" width="22.992" height="11.481"/>
</g>
<g id="A1112">
	<rect x="468.75" y="713.137" fill="#F7931E" stroke="#000000" stroke-miterlimit="10" width="24.75" height="38"/>
</g>
<g id="A1113">
	<rect x="468.75" y="751.137" fill="#F7931E" stroke="#000000" stroke-miterlimit="10" width="24.75" height="25"/>
</g>
<g id="A1117">
	<rect x="468.75" y="776.137" fill="#F7931E" stroke="#000000" stroke-miterlimit="10" width="24.75" height="37.25"/>
</g>
<g id="A1100">
	<rect x="468.75" y="676.137" fill="#F7931E" stroke="#000000" stroke-miterlimit="10" width="24.75" height="37"/>
</g>
<g id="A1142">
	<rect x="293.75" y="802.887" fill="none" stroke="#000000" stroke-miterlimit="10" width="25.75" height="12.6"/>
</g>
<g id="A1137">
	<rect x="293.75" y="765.387" fill="none" stroke="#000000" stroke-miterlimit="10" width="25.75" height="13.434"/>
</g>
<g id="A1136">
	<rect x="293.75" y="752.887" fill="none" stroke="#000000" stroke-miterlimit="10" width="25.75" height="12.5"/>
</g>
<g id="A1133">
	<rect x="293.75" y="740.887" fill="none" stroke="#000000" stroke-miterlimit="10" width="25.75" height="12"/>
</g>
<g id="A1132">
	<rect x="293.75" y="728.637" fill="none" stroke="#000000" stroke-miterlimit="10" width="25.75" height="12.25"/>
</g>
<g id="A1128">
	<rect x="293.75" y="716.228" fill="none" stroke="#000000" stroke-miterlimit="10" width="25.75" height="12.409"/>
</g>
<g id="A1149">
	<rect x="319.5" y="840.137" fill="none" stroke="#000000" stroke-miterlimit="10" width="47.25" height="18.5"/>
</g>
<g id="A1124">
	<rect x="366.75" y="840.137" fill="none" stroke="#000000" stroke-miterlimit="10" width="46.75" height="18.5"/>
</g>
<g id="A1106">
	<rect x="413.5" y="726.637" fill="none" stroke="#000000" stroke-miterlimit="10" width="25" height="12.25"/>
</g>
<g id="A1107">
	<rect x="413.5" y="738.887" fill="none" stroke="#000000" stroke-miterlimit="10" width="25" height="12.75"/>
</g>
<g id="A1110">
	<rect x="413.5" y="751.637" fill="none" stroke="#000000" stroke-miterlimit="10" width="25" height="12.5"/>
</g>
<g id="A1111">
	<rect x="413.5" y="764.137" fill="none" stroke="#000000" stroke-miterlimit="10" width="25" height="12.5"/>
</g>
<g id="A1115">
	<rect x="413.5" y="801.137" fill="none" stroke="#000000" stroke-miterlimit="10" width="25" height="13.25"/>
</g>
<g id="A1213">
	<polygon fill="none" stroke="#000000" stroke-miterlimit="10" points="468.75,663.221 474.332,629.887 522.332,638.554 
		517.666,668.887 493.5,666.221 493.5,663.887 	"/>
</g>
<g id="MIsc">
	<polyline fill="none" stroke="#000000" stroke-miterlimit="10" points="189,269.555 189,333.887 128,333.887 128,386.887 
		48.333,386.887 48.333,449.221 228.5,447.888 	"/>
	<path fill="none" stroke="#000000" stroke-miterlimit="10" d="M151.5,281.887"/>
	<rect x="252.75" y="502.637" fill="none" stroke="#000000" stroke-miterlimit="10" width="60.083" height="99.25"/>
	<rect x="280" y="502.637" fill="none" stroke="#000000" stroke-miterlimit="10" width="32.833" height="14.25"/>
	<rect x="296.417" y="516.887" fill="none" stroke="#000000" stroke-miterlimit="10" width="16.417" height="12.25"/>
	<rect x="288.705" y="586.387" fill="none" stroke="#000000" stroke-miterlimit="10" width="24.128" height="15.5"/>
	<polygon fill="none" stroke="#000000" stroke-miterlimit="10" points="481.125,580.137 488,524.387 537,530.887 529.25,586.637 	
		"/>
	<polyline fill="none" stroke="#000000" stroke-miterlimit="10" points="481.125,580.137 478,599.387 526.5,606.387 
		522.332,637.387 	"/>
	<polygon fill="none" stroke="#000000" stroke-miterlimit="10" points="417.25,551.387 422,515.637 449.25,518.887 445.334,555.137 
			"/>
	<polyline fill="none" stroke="#000000" stroke-miterlimit="10" points="417.25,551.387 411.25,600.137 401.75,601.387 
		399.75,611.887 415.75,611.887 	"/>
	<path fill="none" stroke="#000000" stroke-miterlimit="10" d="M423.75,611.887c0.75,0.25,23.5,0,23.5,0l8.125-56"/>
	<rect x="214" y="447.888" fill="none" stroke="#000000" stroke-miterlimit="10" width="14.5" height="14.998"/>
	<rect x="214" y="462.886" fill="none" stroke="#000000" stroke-miterlimit="10" width="14.5" height="24.336"/>
	<rect x="228.5" y="462.886" fill="none" stroke="#000000" stroke-miterlimit="10" width="36" height="24.336"/>
	<rect x="242.833" y="446.553" fill="none" stroke="#000000" stroke-miterlimit="10" width="13.167" height="16.333"/>
	<polyline fill="none" stroke="#000000" stroke-miterlimit="10" points="204.667,436.719 204.667,426.553 256,426.553 256,446.553 	
		"/>
	<path fill="none" stroke="#000000" stroke-miterlimit="10" d="M236.833,397.219c0,0-0.501,29.333,0,29.333"/>
	<line fill="none" stroke="#000000" stroke-miterlimit="10" x1="312.833" y1="485.383" x2="264.5" y2="485.383"/>
	<path fill="none" stroke="#000000" stroke-miterlimit="10" d="M326.75,487.222v-23.003l0.334,157.164h20.333
		c0,0-0.5-11.992,0-11.496s35.666,0,35.666,0v20.084h-35.916l0.25-8.588"/>
	<polyline fill="none" stroke="#000000" stroke-miterlimit="10" points="383,627.006 369.756,627.006 369.756,624.178 383,624.178 
		383.083,622.421 369.858,622.639 369.523,620.338 383.083,620.304 410.25,620.304 410.834,611.999 399.75,611.887 399.084,620.304 
			"/>
	<line fill="none" stroke="#000000" stroke-miterlimit="10" x1="460.058" y1="521.647" x2="488" y2="524.387"/>
	<polygon fill="none" stroke="#000000" stroke-miterlimit="10" points="465.668,521.647 465.668,512.887 486.334,515.637 
		486.334,524.224 	"/>
	<polyline fill="none" stroke="#000000" stroke-miterlimit="10" points="252.75,601.887 200.167,601.887 200.167,667.22 
		263.742,666.721 263.742,679.191 239.297,679.191 239.297,666.913 	"/>
	<path fill="none" stroke="#000000" stroke-miterlimit="10" d="M264.5,660.221c0,0,27.167-9.167,0-23.167V660.221z"/>
	<line fill="none" stroke="#000000" stroke-miterlimit="10" x1="200.167" y1="629.971" x2="274.5" y2="629.887"/>
	<line fill="none" stroke="#000000" stroke-miterlimit="10" x1="280.667" y1="629.887" x2="285.667" y2="629.887"/>
	<polyline fill="none" stroke="#000000" stroke-miterlimit="10" points="241,601.887 241,611.054 252.75,611.054 252.75,606.471 	
		"/>
	<polyline fill="none" stroke="#000000" stroke-miterlimit="10" points="269.5,629.887 269.5,609.887 252.75,609.887 
		252.75,621.054 269.5,621.054 	"/>
	<polyline fill="none" stroke="#000000" stroke-miterlimit="10" points="214,487.222 214,502.637 252.75,502.637 	"/>
	<polyline fill="none" stroke="#000000" stroke-miterlimit="10" points="312.833,606.471 312.833,629.405 295.297,629.887 	"/>
	<path fill="#C1272D" d="M279.561,303.969"/>
	<path fill="#C1272D" stroke="#000000" stroke-miterlimit="10" d="M264.5,303.969h18.291c4.124,1.582,0,3.918,0,3.918l-22.624,8.748
		l4.333,9.085l27.167-11.333c8.667-14.833-4.5-20.836-4.5-20.836H264.5V303.969v0.584"/>
	<polyline fill="#C1272D" stroke="#000000" stroke-miterlimit="10" points="264.908,314.802 265.982,314.387 270.602,323.208 
		269.529,323.623 	"/>
	<polyline fill="#C1272D" stroke="#000000" stroke-miterlimit="10" points="273.079,322.142 268.667,313.051 270.873,312.496 
		274.984,321.347 277.394,320.219 273.031,311.662 274.949,310.92 279.561,319.005 281.811,318.499 277.394,309.974 
		279.561,309.137 283.645,317.734 285.526,316.949 281.846,308.252 283.86,307.082 287.526,316.115 289.5,314.802 284.401,306.407 
		292.484,312.888 	"/>
	<polyline fill="#C1272D" stroke="#000000" stroke-miterlimit="10" points="266.834,303.969 266.834,293.551 268.667,293.551 
		268.667,303.969 270.602,303.969 270.602,293.551 272.667,293.551 272.667,303.969 274.834,303.969 274.834,293.551 
		277.394,293.551 277.394,303.969 279.561,303.969 279.561,293.551 281.5,293.551 281.5,303.969 282.792,303.969 284.167,293.551 
		286.5,293.551 283.92,304.554 289.03,294.679 	"/>
	<line fill="#C1272D" stroke="#000000" stroke-miterlimit="10" x1="282.792" y1="306.407" x2="282.792" y2="305.554"/>
	<path fill="none" stroke="#000000" stroke-miterlimit="10" d="M309.667,301.554"/>
	<polyline fill="none" stroke="#000000" stroke-miterlimit="10" points="413.5,844.637 426.875,844.637 426.875,857.387 
		413.5,857.387 	"/>
	<polyline fill="none" stroke="#000000" stroke-miterlimit="10" points="426.875,855.554 413.5,855.554 413.5,853.387 
		426.875,853.387 426.875,851.012 413.5,851.262 413.5,848.387 426.875,848.387 426.875,846.221 413.5,846.221 	"/>
	<rect x="306.314" y="845.762" fill="none" stroke="#000000" stroke-miterlimit="10" width="13.375" height="12.75"/>
	<polyline fill="none" stroke="#000000" stroke-miterlimit="10" points="319.689,856.679 306.314,856.679 306.314,854.512 
		319.689,854.512 319.689,852.137 306.314,852.387 306.314,849.512 319.689,849.512 319.689,847.346 306.314,847.346 	"/>
	<polygon fill="#C1272D" stroke="#000000" stroke-miterlimit="10" points="254.25,621.054 254.25,609.887 256,609.887 256,621.054 
		257.875,621.054 257.625,609.887 259.25,609.887 259.25,621.054 261.125,621.054 261.125,609.887 262.938,609.887 262.938,621.054 
		264.5,621.054 264.5,609.637 266.563,609.637 266.563,621.054 267.938,621.054 	"/>
	<polygon fill="none" stroke="#000000" stroke-miterlimit="10" points="228.5,466.137 246,466.137 246.5,484.137 228.5,484.137 	"/>
	<polyline fill="#C1272D" stroke="#000000" stroke-miterlimit="10" points="229.75,466.137 229.75,484.137 231.25,484.137 
		231.25,466.137 232.625,466.137 232.625,484.137 234,484.137 234,466.137 235.75,466.137 235.75,484.137 237.5,484.137 
		237.5,466.137 239.25,466.137 239.25,484.137 240.75,484.137 240.75,466.137 242.833,466.137 242.833,484.137 244.5,484.137 
		244.5,466.137 	"/>
	<polyline fill="#C1272D" stroke="#000000" stroke-miterlimit="10" points="228.5,469.137 246.083,469.137 246.083,472.219 
		228.5,472.219 228.5,474.512 246.248,475.054 246.248,477.262 228.5,477.262 228.5,479.762 246.378,479.762 246.5,482.262 
		228.5,482.262 	"/>
	<path fill="none" stroke="#000000" stroke-miterlimit="10" d="M224.333,83.054"/>
	<rect x="212.503" y="73.221" fill="#C1272D" stroke="#000000" stroke-miterlimit="10" width="18.331" height="18"/>
	<path fill="none" stroke="#000000" stroke-miterlimit="10" d="M214,73.221v18h2.125v-18h2.208v18h1.564l-0.022-18h1.793v18h1.957
		v-18h1.792v18h1.875v-18c0,0,1.708-0.667,1.708,0s0,18,0,18"/>
	<polyline fill="#C1272D" stroke="#000000" stroke-miterlimit="10" points="212.503,88.721 230.833,88.721 230.833,85.554 
		212.503,85.554 212.503,83.054 230.833,83.054 230.833,80.388 212.503,80.388 212.503,77.888 230.833,77.888 230.833,75.721 
		212.503,75.721 	"/>
	<polyline fill="#C1272D" stroke="#000000" stroke-miterlimit="10" points="145,434.137 152.924,431.233 146.667,438.387 	"/>
	<polyline fill="#C1272D" stroke="#000000" stroke-miterlimit="10" points="146.667,426.553 152.924,431.233 145,431.233 	"/>
	<polyline fill="#C1272D" stroke="#000000" stroke-miterlimit="10" points="149.5,424.012 152.924,431.233 153.25,423.262 	"/>
	<polyline fill="#C1272D" stroke="#000000" stroke-miterlimit="10" points="159,425.262 152.924,431.233 156.25,423.262 	"/>
	<polyline fill="#C1272D" stroke="#000000" stroke-miterlimit="10" points="161.625,427.248 153.562,431.718 153.562,440.291 
		153.562,430.118 149.433,440.291 	"/>
	<line fill="#C1272D" stroke="#000000" stroke-miterlimit="10" x1="162.5" y1="431.887" x2="152.672" y2="431.887"/>
	<ellipse fill="#C1272D" stroke="#000000" stroke-miterlimit="10" cx="153.438" cy="431.982" rx="9.25" ry="9.219"/>
	<path fill="none" stroke="#000000" stroke-miterlimit="10" d="M476.001,514.262c0.409,0.055,0,8.755,0,8.755H478v-8.755
		l1.969,0.528v8.227l1.852,0.645v-8.625l1.86,0.247v8.378l1.463,0.414v-8.597"/>
	<polyline fill="none" stroke="#000000" stroke-miterlimit="10" points="476.181,517.051 486.334,518.555 486.334,520.886 
		476.181,520.053 	"/>
</g>
</svg>
