<?xml version="1.0" encoding="utf-8"?>
<!-- Generator: Adobe Illustrator 16.0.0, SVG Export Plug-In . SVG Version: 6.00 Build 0)  -->
<!DOCTYPE svg PUBLIC "-//W3C//DTD SVG 1.1//EN" "http://www.w3.org/Graphics/SVG/1.1/DTD/svg11.dtd">
<svg version="1.1" xmlns="http://www.w3.org/2000/svg" xmlns:xlink="http://www.w3.org/1999/xlink" x="0px" y="0px" viewBox="0 0 768 1024" enable-background="new 0 0 768 1024" xml:space="preserve">
<g id="Layer_1" display="none">
	
		<image display="inline" overflow="visible" width="2204" height="2946" xlink:href="MediaProjectStuff/kerros-3&amp;0.png"  transform="matrix(0.3484 0 0 0.3484 -2.1919 -2.3994)">
	</image>
	<path display="inline" fill="#FFFFFF" stroke="#000000" stroke-miterlimit="10" d="M175.5,695
		c1.209-3.604,8.563-3.958,11.263-2.312c1.813,1.104,2.662,3.321,4.225,4.379c1.848,1.252,4.801,0.633,6.975,0.707
		c-0.06,0.844-0.006,1.588-0.444,2.357c3.476-2.469-0.775-3.994-1.268-4.882"/>
	<path display="inline" fill="none" stroke="#000000" stroke-miterlimit="10" d="M172.25,686.25c-1.287-0.72-3.623-5.354,0.013-4.75
		c3.298,0.548,1.579,5.897,1.788,8.475c0.975-0.327,2.377-0.135,3.199-0.475"/>
	<path display="inline" fill="none" stroke="#000000" stroke-miterlimit="10" d="M179,685.25c0.39,2.77,3.031,5.934,3.512,1.306
		c0.421-4.056-4.139-4.2-3.772-0.8c0.326,3.027,3.434,1.578,4.259-0.232c1.23-2.698,0.796-7.65-0.448-10.226
		c-0.459,2.84,2.277,7.466,0.725,9.704c1.268,0.798,2.859,2.289,2.992,3.939c-0.019-0.23-0.024-0.461-0.018-0.691"/>
	<path display="inline" fill="none" stroke="#000000" stroke-miterlimit="10" d="M197,683.75c-1.067-1.676-3.472-4.837-3.25-6.75"/>
	<path display="inline" fill="none" stroke="#000000" stroke-miterlimit="10" d="M194,672.25c-1.158-1.716,1.666-3.859,2.698-0.561
		c0.75,2.394-0.9,4.582,2.302,5.561"/>
	<path display="inline" fill="none" stroke="#000000" stroke-miterlimit="10" d="M201.75,681.75c-0.083,0.167-0.167,0.333-0.25,0.5"
		/>
	<path display="inline" fill="none" stroke="#000000" stroke-miterlimit="10" d="M190.5,679.25c1.381,1.977,2.343,4.153,3.5,6.25"/>
	<path display="inline" fill="none" stroke="#000000" stroke-miterlimit="10" d="M190.5,689.5c0.162,0.191,0.692,0.549,1.462,0.462
		c0.285-1.976-0.246-4.317-2.693-4.256c0.081-1.214-0.155-2.888-1.519-3.273c-1.254-0.354-2.028,0.4-1.5,1.067"/>
</g>
<g id="Layer_2">
	<g id="B302">
		
			<rect id="_b302class" x="563.064" y="65.917" fill="none" stroke="#000000" stroke-miterlimit="10" width="121.01" height="124.821"/>
		<path id="b302oval" fill="none" stroke="#000000" stroke-miterlimit="10" d="M642.626,124.04c0,3.683-2.986,6.67-6.67,6.67h-30.49
			c-3.685,0-6.67-2.987-6.67-6.67l0,0c0-3.683,2.985-6.67,6.67-6.67h30.49C639.64,117.37,642.626,120.356,642.626,124.04
			L642.626,124.04z"/>
		<rect x="605.942" y="119.513" fill="none" width="26.203" height="9.052"/>
		<text id="b302text" transform="matrix(1 0 0 1 605.9424 127.6309)" font-family="'MyriadPro-Regular'" font-size="11.434">B302</text>
		<rect x="595.5" y="147" fill="none" width="63.5" height="14"/>
		<text transform="matrix(1 0 0 1 595.5 155.52)" font-family="'MyriadPro-Regular'" font-size="12">Octopus</text>
	</g>
	<g id="B303">
		
			<rect id="b303class" x="563.064" y="190.738" fill="none" stroke="#000000" stroke-miterlimit="10" width="121.01" height="119.58"/>
		<path id="b303oval" fill="none" stroke="#000000" stroke-miterlimit="10" d="M642.626,250.766c0,3.42-2.773,6.193-6.193,6.193
			h-27.632c-3.421,0-6.193-2.773-6.193-6.193l0,0c0-3.42,2.772-6.193,6.193-6.193h27.632
			C639.853,244.573,642.626,247.346,642.626,250.766L642.626,250.766z"/>
		<rect x="609.158" y="246.001" fill="none" width="26.918" height="10.957"/>
		<text id="b303text" transform="matrix(1 0 0 1 609.1582 254.1187)" font-family="'MyriadPro-Regular'" font-size="11.434">B303</text>
		<rect x="615.551" y="207" fill="none" width="37" height="14"/>
		<text transform="matrix(1 0 0 1 615.5508 215.52)" font-family="'MyriadPro-Regular'" font-size="12">Reef</text>
	</g>
	<g id="B304">
		
			<rect id="b304class_1_" x="563.064" y="310.318" fill="none" stroke="#000000" stroke-miterlimit="10" width="54.788" height="120.057"/>
		<path id="b304oval_1_" fill="none" stroke="#000000" stroke-miterlimit="10" d="M612.136,369.155c0,3.552-2.88,6.432-6.432,6.432
			h-28.109c-3.551,0-6.431-2.879-6.431-6.432l0,0c0-3.553,2.88-6.432,6.431-6.432h28.109
			C609.256,362.724,612.136,365.603,612.136,369.155L612.136,369.155z"/>
		<rect x="577.834" y="364.985" fill="none" width="25.25" height="8.337"/>
		<text id="b304text_1_" transform="matrix(1 0 0 1 577.835 373.1035)" font-family="'MyriadPro-Regular'" font-size="11.434">B304</text>
	</g>
	<g id="B305">
		
			<rect id="b305class" x="617.853" y="310.318" fill="none" stroke="#000000" stroke-miterlimit="10" width="66.222" height="32.396"/>
		<path id="b305oval" fill="none" stroke="#000000" stroke-miterlimit="10" d="M672.163,328.184c0,4.077-3.306,7.384-7.384,7.384
			h-25.727c-4.078,0-7.385-3.307-7.385-7.384l0,0c0-4.078,3.307-7.385,7.385-7.385h25.727
			C668.857,320.799,672.163,324.106,672.163,328.184L672.163,328.184z"/>
		<rect x="637.147" y="323.656" fill="none" width="26.203" height="11.435"/>
		<text id="b305text" transform="matrix(1 0 0 1 637.1465 331.7739)" font-family="'MyriadPro-Regular'" font-size="11.434">B305</text>
	</g>
	<g id="B306">
		
			<rect id="b306class_1_" x="617.853" y="342.714" fill="none" stroke="#000000" stroke-miterlimit="10" width="66.222" height="27.632"/>
		<path id="b306oval_1_" fill="none" stroke="#000000" stroke-miterlimit="10" d="M672.118,357.66c0,4.048-2.897,7.327-6.472,7.327
			h-29.367c-3.573,0-6.471-3.279-6.471-7.327l0,0c0-4.044,2.897-7.323,6.471-7.323h29.367
			C669.221,350.337,672.118,353.616,672.118,357.66L672.118,357.66z"/>
		<rect x="638.101" y="352.896" fill="none" width="24.297" height="9.528"/>
		<text id="b306text_1_" transform="matrix(1 0 0 1 638.0996 361.0137)" font-family="'MyriadPro-Regular'" font-size="11.434">B306</text>
	</g>
	<g id="B307">
		
			<rect id="b307class" x="617.853" y="370.346" fill="none" stroke="#000000" stroke-miterlimit="10" width="66.222" height="30.967"/>
		<path id="b307oval" fill="none" stroke="#000000" stroke-miterlimit="10" d="M672.163,386.068c0,3.42-2.772,6.193-6.193,6.193
			h-28.108c-3.42,0-6.193-2.773-6.193-6.193l0,0c0-3.42,2.773-6.193,6.193-6.193h28.108
			C669.391,379.875,672.163,382.647,672.163,386.068L672.163,386.068z"/>
		<rect x="639.529" y="382.256" fill="none" width="24.774" height="10.004"/>
		<text id="b307text" transform="matrix(1 0 0 1 639.5293 390.3735)" font-family="'MyriadPro-Regular'" font-size="11.434">B307</text>
	</g>
	<g id="B308">
		
			<rect id="b308class_1_" x="617.853" y="401.313" fill="none" stroke="#000000" stroke-miterlimit="10" width="66.222" height="29.062"/>
		<path id="b308oval_1_" fill="none" stroke="#000000" stroke-miterlimit="10" d="M674.546,416.32c0,3.815-3.093,6.908-6.908,6.908
			h-26.68c-3.814,0-6.907-3.093-6.907-6.908l0,0c0-3.815,3.093-6.908,6.907-6.908h26.68
			C671.453,409.412,674.546,412.505,674.546,416.32L674.546,416.32z"/>
		<rect x="640.244" y="411.674" fill="none" width="28.108" height="8.338"/>
		<text id="b308text_1_" transform="matrix(1 0 0 1 640.2432 419.7925)" font-family="'MyriadPro-Regular'" font-size="11.434">B308</text>
	</g>
	<g id="B309">
		
			<rect id="b309class" x="563.064" y="430.375" fill="none" stroke="#000000" stroke-miterlimit="10" width="121.01" height="120.533"/>
		<path id="b309oval" fill="none" stroke="#000000" stroke-miterlimit="10" d="M645.484,483.852c0,3.75-3.039,6.789-6.789,6.789
			h-28.823c-3.75,0-6.789-3.039-6.789-6.789l0,0c0-3.749,3.039-6.788,6.789-6.788h28.823
			C642.445,477.063,645.484,480.103,645.484,483.852L645.484,483.852z"/>
		<rect x="609.992" y="479.206" fill="none" width="27.155" height="11.434"/>
		<text id="b309text" transform="matrix(1 0 0 1 609.9922 487.3242)" font-family="'MyriadPro-Regular'" font-size="11.434">B309</text>
		<rect x="602.476" y="504.861" fill="none" width="40.283" height="21"/>
		<text transform="matrix(1 0 0 1 602.4756 513.3809)" font-family="'MyriadPro-Regular'" font-size="12">Lagoon</text>
	</g>
	<g id="B310">
		
			<rect id="b310class_1_" x="416.328" y="155.483" fill="none" stroke="#000000" stroke-miterlimit="10" width="110.053" height="38.113"/>
		<path id="b310oval_1_" fill="none" stroke="#000000" stroke-miterlimit="10" d="M490.173,172.634c0,4.21-3.413,7.623-7.622,7.623
			h-25.727c-4.21,0-7.623-3.413-7.623-7.623l0,0c0-4.209,3.413-7.623,7.623-7.623h25.727
			C486.76,165.011,490.173,168.424,490.173,172.634L490.173,172.634z"/>
		<rect x="457.301" y="168.226" fill="none" width="24.773" height="8.814"/>
		<text id="b310text_1_" transform="matrix(1 0 0 1 457.3008 176.3442)" font-family="'MyriadPro-Regular'" font-size="11.434">B310</text>
	</g>
	<g id="B311">
		
			<rect id="b311class" x="416.328" y="193.596" fill="none" stroke="#000000" stroke-miterlimit="10" width="110.053" height="119.104"/>
		<path id="b311oval" fill="none" stroke="#000000" stroke-miterlimit="10" d="M490.173,248.622c0,3.553-2.88,6.432-6.432,6.432
			h-28.108c-3.552,0-6.432-2.879-6.432-6.432l0,0c0-3.553,2.88-6.432,6.432-6.432h28.108
			C487.293,242.19,490.173,245.069,490.173,248.622L490.173,248.622z"/>
		<rect x="456.11" y="243.856" fill="none" width="25.964" height="9.528"/>
		<text id="b311text" transform="matrix(1 0 0 1 456.1094 251.9746)" font-family="'MyriadPro-Regular'" font-size="11.434">B311</text>
		<rect x="446" y="335" fill="none" width="53" height="15.5"/>
		<text transform="matrix(1 0 0 1 446 343.52)" font-family="'MyriadPro-Regular'" font-size="12">Stingray</text>
		<rect x="449.201" y="208" fill="none" width="50.501" height="13"/>
		<text transform="matrix(1 0 0 1 449.2012 216.52)" font-family="'MyriadPro-Regular'" font-size="12">Dolphin</text>
	</g>
	<g id="B313">
		
			<rect id="b311class_2_" x="416.328" y="312.7" fill="none" stroke="#000000" stroke-miterlimit="10" width="110.053" height="126.25"/>
		<path id="b311oval_2_" fill="none" stroke="#000000" stroke-miterlimit="10" d="M492.556,371.658c0,3.683-2.987,6.67-6.671,6.67
			h-30.013c-3.684,0-6.671-2.987-6.671-6.67l0,0c0-3.685,2.987-6.672,6.671-6.672h30.013
			C489.568,364.986,492.556,367.973,492.556,371.658L492.556,371.658z"/>
		<rect x="455.991" y="367.605" fill="none" width="26.202" height="11.435"/>
		<text id="b311text_2_" transform="matrix(1 0 0 1 455.9902 375.7231)" font-family="'MyriadPro-Regular'" font-size="11.434">B311</text>
	</g>
	<g id="B315">
		
			<rect id="b315class" x="416.328" y="438.95" fill="none" stroke="#000000" stroke-miterlimit="10" width="76.228" height="40.257"/>
		<path id="b315oval" fill="none" stroke="#000000" stroke-miterlimit="10" d="M473.975,458.483c0,3.947-3.198,7.146-7.146,7.146
			h-27.395c-3.947,0-7.146-3.199-7.146-7.146l0,0c0-3.947,3.198-7.146,7.146-7.146h27.395
			C470.776,451.337,473.975,454.536,473.975,458.483L473.975,458.483z"/>
		<rect x="440.864" y="454.194" fill="none" width="27.156" height="9.767"/>
		<text id="b315text" transform="matrix(1 0 0 1 440.8652 462.3115)" font-family="'MyriadPro-Regular'" font-size="11.434">B315</text>
	</g>
	<g id="B316">
		
			<rect id="b316class_1_" x="416.328" y="479.207" fill="none" stroke="#000000" stroke-miterlimit="10" width="60.505" height="35.017"/>
		<path id="b316oval_1_" fill="none" stroke="#000000" stroke-miterlimit="10" d="M466.353,497.43c0,3.75-3.226,6.789-7.203,6.789
			h-27.042c-3.979,0-7.203-3.039-7.203-6.789l0,0c0-3.75,3.225-6.789,7.203-6.789h27.042
			C463.127,490.641,466.353,493.68,466.353,497.43L466.353,497.43z"/>
		<rect x="432.289" y="493.975" fill="none" width="26.68" height="10.243"/>
		<text id="b316text_1_" transform="matrix(1 0 0 1 432.2881 502.0928)" font-family="'MyriadPro-Regular'" font-size="11.434">B316</text>
		<line fill="none" stroke="#000000" stroke-miterlimit="10" x1="526.381" y1="479.207" x2="526.381" y2="565.676"/>
	</g>
	<g id="B317">
		
			<rect id="b317class" x="416.328" y="514.224" fill="none" stroke="#000000" stroke-miterlimit="10" width="72.893" height="39.065"/>
		<path id="b317oval" fill="none" stroke="#000000" stroke-miterlimit="10" d="M473.975,533.519c0,4.077-3.306,7.384-7.384,7.384
			h-26.918c-4.078,0-7.384-3.307-7.384-7.384l0,0c0-4.078,3.306-7.385,7.384-7.385h26.918
			C470.669,526.134,473.975,529.44,473.975,533.519L473.975,533.519z"/>
		<rect x="440.627" y="528.753" fill="none" width="24.297" height="9.528"/>
		<text id="b317text" transform="matrix(1 0 0 1 440.627 536.8711)" font-family="'MyriadPro-Regular'" font-size="11.434">B317</text>
	</g>
	<g id="B318">
		
			<rect id="b318class_1_" x="416.328" y="553.289" fill="none" stroke="#000000" stroke-miterlimit="10" width="72.893" height="40.496"/>
		<path id="b318oval_1_" fill="none" stroke="#000000" stroke-miterlimit="10" d="M471.354,571.155c0,3.814-3.093,6.908-6.908,6.908
			h-25.25c-3.814,0-6.907-3.094-6.907-6.908l0,0c0-3.815,3.093-6.908,6.907-6.908h25.25
			C468.262,564.247,471.354,567.34,471.354,571.155L471.354,571.155z"/>
		<rect x="438.244" y="567.7" fill="none" width="27.156" height="11.672"/>
		<text id="b318text_1_" transform="matrix(1 0 0 1 438.2451 575.8174)" font-family="'MyriadPro-Regular'" font-size="11.434">B318</text>
	</g>
	<g id="B320">
		
			<rect id="b320class" x="416.328" y="593.785" fill="none" stroke="#000000" stroke-miterlimit="10" width="66.699" height="36.684"/>
		<path id="b320oval" fill="none" stroke="#000000" stroke-miterlimit="10" d="M473.618,612.127c0,3.947-3.199,7.146-7.146,7.146
			h-27.395c-3.946,0-7.146-3.198-7.146-7.146l0,0c0-3.947,3.199-7.146,7.146-7.146h27.395
			C470.419,604.98,473.618,608.18,473.618,612.127L473.618,612.127z"/>
		<rect x="438.959" y="608.553" fill="none" width="25.727" height="11.672"/>
		<text id="b320text" transform="matrix(1 0 0 1 438.959 616.6699)" font-family="'MyriadPro-Regular'" font-size="11.434">B320</text>
	</g>
	<g id="B321">
		
			<rect id="b321class_1_" x="416.328" y="630.469" fill="none" stroke="#000000" stroke-miterlimit="10" width="76.228" height="59.075"/>
		<path id="b321oval_1_" fill="none" stroke="#000000" stroke-miterlimit="10" d="M473.736,658.101c0,3.683-2.985,6.67-6.669,6.67
			h-25.25c-3.685,0-6.67-2.987-6.67-6.67l0,0c0-3.683,2.985-6.67,6.67-6.67h25.25C470.751,651.431,473.736,654.418,473.736,658.101
			L473.736,658.101z"/>
		<rect x="442.532" y="654.765" fill="none" width="23.82" height="10.481"/>
		<text id="b321text_1_" transform="matrix(1 0 0 1 442.5322 662.8828)" font-family="'MyriadPro-Regular'" font-size="11.434">B321</text>
	</g>
	<g id="B327">
		
			<rect id="b327class" x="594.984" y="707.647" fill="none" stroke="#000000" stroke-miterlimit="10" width="102.429" height="199.142"/>
		<path id="b327oval" fill="none" stroke="#000000" stroke-miterlimit="10" d="M664.541,799.357c0,4.342-3.52,7.861-7.861,7.861
			h-25.726c-4.342,0-7.861-3.52-7.861-7.861l0,0c0-4.342,3.52-7.86,7.861-7.86h25.726
			C661.021,791.497,664.541,795.016,664.541,799.357L664.541,799.357z"/>
		<rect x="628.811" y="794.354" fill="none" width="30.014" height="10.004"/>
		<text id="b327text" transform="matrix(1 0 0 1 628.8115 802.4727)" font-family="'MyriadPro-Regular'" font-size="11.434">B327</text>
		<rect x="624.787" y="821.5" fill="none" width="42.824" height="17"/>
		<text transform="matrix(1 0 0 1 624.7871 830.0195)" font-family="'MyriadPro-Regular'" font-size="12">Big dry</text>
	</g>
	<g id="B329">
		<path id="b329_x28_1_x29_oval_1_" fill="none" stroke="#000000" stroke-miterlimit="10" d="M429.192,698.967
			c0-3.888,3.811-7.041,8.514-7.041l0,0c4.703,0,8.515,3.153,8.515,7.041v26.651c0,3.886-3.812,7.038-8.515,7.038l0,0
			c-4.703,0-8.514-3.152-8.514-7.038V698.967z"/>
		
			<rect id="b329_x28_1_x29_class_1_" x="416.328" y="689.544" fill="none" stroke="#000000" stroke-miterlimit="10" width="40.496" height="44.783"/>
		
			<rect x="420.143" y="707.171" transform="matrix(0.032 -0.9995 0.9995 0.032 -287.7147 1127.5048)" fill="none" width="36.203" height="10.243"/>
		
			<text id="b329_x28_1_x29_text_1_" transform="matrix(0.032 -0.9995 0.9995 0.032 440.7129 730.4795)" font-family="'MyriadPro-Regular'" font-size="11.434">B329(1)</text>
		<rect x="468.557" y="692.401" fill="none" width="10.838" height="39.066"/>
		
			<text id="b329_x28_2_x29_text_1_" transform="matrix(0 -1 1 0 476.5908 731.3818)" font-family="'MyriadPro-Regular'" font-size="11.434">B329 (2)</text>
		
			<rect id="b329_x28_2_x29_class_1_" x="456.824" y="689.544" fill="none" stroke="#000000" stroke-miterlimit="10" width="35.731" height="44.783"/>
		<path id="b329_x28_2_x29_oval_1_" fill="none" stroke="#000000" stroke-miterlimit="10" d="M465.399,699.169
			c0-5.316,3.133-9.625,6.997-9.625l0,0c3.864,0,6.998,4.309,6.998,9.625v25.533c0,5.316-3.134,9.625-6.998,9.625l0,0
			c-3.864,0-6.997-4.309-6.997-9.625V699.169z"/>
	</g>
	<g id="B332">
		
			<rect id="b322class" x="441.896" y="900.914" fill="none" stroke="#000000" stroke-miterlimit="10" width="54.311" height="57.17"/>
		<path id="b322oval" fill="none" stroke="#000000" stroke-miterlimit="10" d="M488.584,930.929c0,3.947-3.199,7.146-7.146,7.146
			h-25.727c-3.947,0-7.146-3.198-7.146-7.146l0,0c0-3.947,3.198-7.146,7.146-7.146h25.727
			C485.385,923.782,488.584,926.981,488.584,930.929L488.584,930.929z"/>
		<rect x="454.759" y="926.005" fill="none" width="24.138" height="9.846"/>
		<text id="b332text" transform="matrix(1 0 0 1 454.7578 934.123)" font-family="'MyriadPro-Regular'" font-size="11.434">B332</text>
	</g>
	<g id="B333">
		
			<rect id="b333class_1_" x="396.478" y="900.914" fill="none" stroke="#000000" stroke-miterlimit="10" width="45.418" height="57.17"/>
		<path id="b333oval_1_" fill="none" stroke="#000000" stroke-miterlimit="10" d="M439.989,930.929c0,3.947-3.199,7.146-7.146,7.146
			h-26.679c-3.947,0-7.146-3.198-7.146-7.146l0,0c0-3.947,3.199-7.146,7.146-7.146h26.679
			C436.79,923.782,439.989,926.981,439.989,930.929L439.989,930.929z"/>
		<rect x="406.642" y="926.163" fill="none" width="25.091" height="9.529"/>
		<text id="b333text_1_" transform="matrix(1 0 0 1 406.6426 934.2812)" font-family="'MyriadPro-Regular'" font-size="11.434">B333</text>
	</g>
	<g id="B334">
		
			<rect id="b334class" x="343.754" y="900.914" fill="none" stroke="#000000" stroke-miterlimit="10" width="52.724" height="57.17"/>
		<path id="b334oval" fill="none" stroke="#000000" stroke-miterlimit="10" d="M390.442,930.929c0,3.947-3.199,7.146-7.146,7.146
			h-25.091c-3.947,0-7.146-3.198-7.146-7.146l0,0c0-3.947,3.199-7.146,7.146-7.146h25.091
			C387.243,923.782,390.442,926.981,390.442,930.929L390.442,930.929z"/>
		<rect x="356.617" y="926.243" fill="none" width="26.997" height="12.387"/>
		<text id="b334text" transform="matrix(1 0 0 1 356.6172 934.3613)" font-family="'MyriadPro-Regular'" font-size="11.434">B334</text>
	</g>
	<g id="B335">
		
			<rect id="b335class_1_" x="296.112" y="900.914" fill="none" stroke="#000000" stroke-miterlimit="10" width="47.642" height="57.17"/>
		<path id="b335oval_1_" fill="none" stroke="#000000" stroke-miterlimit="10" d="M340.578,930.929c0,3.947-3.199,7.146-7.146,7.146
			H307.07c-3.947,0-7.146-3.198-7.146-7.146l0,0c0-3.947,3.199-7.146,7.146-7.146h26.362
			C337.379,923.782,340.578,926.981,340.578,930.929L340.578,930.929z"/>
		
			<rect x="306.595" y="926.72" transform="matrix(0.9999 0.0172 -0.0172 0.9999 16.1165 -5.3806)" fill="none" width="27.314" height="11.433"/>
		<text id="b335text_1_" transform="matrix(1 0 0 1 306.6816 934.6025)" font-family="'MyriadPro-Regular'" font-size="11.434">B335</text>
	</g>
	<g id="B336">
		
			<rect id="b336class" x="130.002" y="882.174" fill="none" stroke="#000000" stroke-miterlimit="10" width="166.11" height="75.91"/>
		<path id="b336oval" fill="none" stroke="#000000" stroke-miterlimit="10" d="M231.955,921.004c0,3.728-3.022,6.75-6.75,6.75H197.1
			c-3.729,0-6.75-3.022-6.75-6.75l0,0c0-3.729,3.022-6.752,6.75-6.752h28.105C228.933,914.252,231.955,917.274,231.955,921.004
			L231.955,921.004z"/>
		<rect x="197.972" y="916.317" fill="none" width="26.361" height="9.369"/>
		<text id="b336text" transform="matrix(1 0 0 1 197.9727 924.4355)" font-family="'MyriadPro-Regular'" font-size="11.434">B336</text>
	</g>
	<g id="WC">
		<rect id="wc1_1_" x="492.556" y="438.95" fill="none" stroke="#000000" stroke-miterlimit="10" width="33.825" height="19.533"/>
		<rect id="wc2_1_" x="492.556" y="458.483" fill="none" stroke="#000000" stroke-miterlimit="10" width="33.825" height="20.724"/>
		<path id="wc2oval_3_" fill="#353535" stroke="#000000" stroke-miterlimit="10" d="M526.381,449.312
			c0,3.618-2.613,6.551-5.836,6.551h-20.486c-3.224,0-5.836-2.933-5.836-6.551l0,0c0-3.618,2.612-6.551,5.836-6.551h20.486
			C523.768,442.761,526.381,445.694,526.381,449.312L526.381,449.312z"/>
		<path id="wc2oval_2_" fill="#353535" stroke="#000000" stroke-miterlimit="10" d="M526.381,468.964
			c0,3.553-2.56,6.432-5.717,6.432h-20.725c-3.157,0-5.717-2.879-5.717-6.432l0,0c0-3.553,2.56-6.432,5.717-6.432h20.725
			C523.821,462.532,526.381,465.411,526.381,468.964L526.381,468.964z"/>
		<rect id="wc3_1_" x="489.221" y="565.676" fill="none" stroke="#000000" stroke-miterlimit="10" width="37.16" height="28.109"/>
		<path id="wc3oval_1_" fill="#353535" stroke="#000000" stroke-miterlimit="10" d="M492.556,578.183
			c0-3.224,2.612-5.837,5.836-5.837h20.247c3.224,0,5.836,2.613,5.836,5.837l0,0c0,3.223-2.612,5.836-5.836,5.836h-20.247
			C495.168,584.019,492.556,581.405,492.556,578.183L492.556,578.183z"/>
		<rect id="wc4_1_" x="492.556" y="630.469" fill="none" stroke="#000000" stroke-miterlimit="10" width="36.684" height="24.297"/>
		<path id="wc4oval_1_" fill="#3A3737" stroke="#000000" stroke-miterlimit="10" d="M492.556,642.498
			c0-3.485,2.825-6.312,6.312-6.312h20.485c3.486,0,6.312,2.827,6.312,6.312l0,0c0,3.485-2.826,6.312-6.312,6.312h-20.485
			C495.381,648.811,492.556,645.983,492.556,642.498L492.556,642.498z"/>
		<rect x="499.94" y="574.489" fill="none" width="19.057" height="9.528"/>
		
			<text id="WC1text_1_" transform="matrix(1 0 0 1 499.9404 582.6074)" fill="#FFFFFF" font-family="'MyriadPro-Regular'" font-size="11.434">WC</text>
		<rect x="500.773" y="464.199" fill="none" width="19.057" height="9.528"/>
		
			<text id="WC2text_1_" transform="matrix(1 0 0 1 500.7734 472.3164)" fill="#FFFFFF" font-family="'MyriadPro-Regular'" font-size="11.434">WC</text>
		<rect x="499.702" y="443.951" fill="none" width="19.057" height="9.528"/>
		
			<text id="WC3text_1_" transform="matrix(1 0 0 1 499.7021 452.0693)" fill="#FFFFFF" font-family="'MyriadPro-Regular'" font-size="11.434">WC</text>
		<rect x="500.773" y="639.281" fill="none" width="19.057" height="9.528"/>
		
			<text id="WC4text_1_" transform="matrix(1 0 0 1 500.7734 647.3994)" fill="#FFFFFF" font-family="'MyriadPro-Regular'" font-size="11.434">WC</text>
		<g id="Layer_29">
		</g>
		<g id="Layer_30">
		</g>
		<g id="Layer_31">
		</g>
		<g id="Layer_32">
		</g>
	</g>
	<g id="misc">
		<rect x="457.301" y="104.983" fill="none" stroke="#000000" stroke-miterlimit="10" width="69.08" height="50.5"/>
		<rect x="526.381" y="104.983" fill="none" stroke="#000000" stroke-miterlimit="10" width="36.684" height="50.5"/>
		
			<rect id="balcony1_1_" x="526.381" y="65.917" fill="none" stroke="#000000" stroke-miterlimit="10" width="36.684" height="39.066"/>
		<rect x="463.494" y="111.653" fill="none" stroke="#000000" stroke-miterlimit="10" width="36.207" height="37.637"/>
		<g id="stairs">
			<line fill="none" stroke="#000000" stroke-miterlimit="10" x1="469.092" y1="111.653" x2="469.092" y2="149.29"/>
			<line fill="none" stroke="#000000" stroke-miterlimit="10" x1="473.022" y1="111.891" x2="473.022" y2="149.528"/>
			<line fill="none" stroke="#000000" stroke-miterlimit="10" x1="476.918" y1="111.653" x2="477.701" y2="149.29"/>
			<line fill="none" stroke="#000000" stroke-miterlimit="10" x1="481.598" y1="111.653" x2="481.598" y2="149.29"/>
			<line fill="none" stroke="#000000" stroke-miterlimit="10" x1="486.361" y1="111.653" x2="486.361" y2="149.29"/>
			<line fill="none" stroke="#000000" stroke-miterlimit="10" x1="490.173" y1="111.653" x2="490.173" y2="149.29"/>
			<line fill="none" stroke="#000000" stroke-miterlimit="10" x1="495.89" y1="111.653" x2="495.89" y2="149.29"/>
			<line fill="none" stroke="#000000" stroke-miterlimit="10" x1="463.494" y1="121.181" x2="463.494" y2="119.514"/>
			<line fill="none" stroke="#000000" stroke-miterlimit="10" x1="463.494" y1="121.181" x2="499.701" y2="121.181"/>
			<line fill="none" stroke="#000000" stroke-miterlimit="10" x1="463.494" y1="130.709" x2="499.701" y2="130.709"/>
			<line fill="none" stroke="#000000" stroke-miterlimit="10" x1="463.494" y1="139.761" x2="499.701" y2="139.761"/>
		</g>
		
			<rect id="balcony2_1_" x="641.356" y="550.907" fill="none" stroke="#000000" stroke-miterlimit="10" width="42.718" height="156.74"/>
		<path id="stairs2_1_" fill="none" stroke="#000000" stroke-miterlimit="10" d="M570.848,584.019v-23.903h40.019
			c0,0,31.441,4.446,17.943,40.02c0,0-6.51,7.468-16.038,11.992c-9.528,4.523-41.924,17.15-41.924,17.15l-7.783-20.724
			l38.273-14.769c0,0,19.057-7.461,5.081-9.767H570.848z"/>
		
			<rect id="stairs3_1_" x="499.939" y="914.252" fill="none" stroke="#000000" stroke-miterlimit="10" width="35.971" height="38.43"/>
		<rect x="570.211" y="906.789" fill="none" stroke="#000000" stroke-miterlimit="10" width="127.202" height="51.295"/>
		<rect x="496.206" y="906.789" fill="none" stroke="#000000" stroke-miterlimit="10" width="74.005" height="51.295"/>
		
			<rect id="couchZone_1_" x="58.859" y="644.047" fill="none" stroke="#000000" stroke-miterlimit="10" width="357.469" height="238.127"/>
		
			<rect id="balcony3_1_" x="75.375" y="882.174" fill="none" stroke="#000000" stroke-miterlimit="10" width="54.627" height="70.508"/>
		
			<rect id="elevator" x="492.556" y="654.766" fill="none" stroke="#000000" stroke-miterlimit="10" width="36.684" height="34.778"/>
		<rect x="506.948" y="667.792" fill="none" width="7.897" height="11.584"/>
		<text transform="matrix(1 0 0 1 506.9482 676.3115)" font-family="'MyriadPro-Regular'" font-size="12">E</text>
		<polyline fill="none" stroke="#000000" stroke-miterlimit="10" points="567.096,606.998 576.088,627.223 581.483,625.09 
			572.324,604.98 577.228,603.089 586.273,623.184 590.798,621.369 581.045,601.615 585.332,599.962 594.984,619.677 
			598.799,618.12 589.752,598.256 593.905,596.653 602.532,616.577 607.71,614.389 598.977,594.696 603.312,592.943 
			612.771,612.127 617.979,609.217 607.124,591.025 610.306,588.811 623.569,605.104 		"/>
		<polyline fill="none" stroke="#000000" stroke-miterlimit="10" points="573.75,584.018 573.75,560.115 576.25,560.115 
			576.25,584.018 578.75,584.018 578.75,560.115 581,560.115 581,584.018 583.5,584.018 583.5,560.115 585.75,560.115 
			585.75,584.018 588,584.018 588,560.115 590.25,560.115 590.25,584.018 592.5,584.018 592.5,560.115 594.984,560.115 
			594.984,584.018 597.621,584.018 597.621,560.115 600.25,560.115 600.25,584.018 602,584.018 603.25,560.115 606.5,560.115 
			604,584.019 606.419,584.019 610.866,560.115 		"/>
		<polyline fill="none" stroke="#000000" stroke-miterlimit="10" points="502.5,914.252 502.5,952.682 505.5,952.682 505.5,914.252 
			508.5,914.252 508.5,952.682 511.75,952.682 511.75,914.252 514.75,914.252 514.75,952.682 517.925,952.682 517.925,914.252 
			520.75,914.252 520.75,952.682 523.5,952.682 523.5,914.252 525.75,914.252 525.75,952.682 528.5,952.682 528.5,914.252 
			530.75,914.252 530.75,952.682 533.209,952.682 533.209,914.252 		"/>
	</g>
</g>
</svg>
