<?xml version="1.0" encoding="utf-8"?>
<!-- Generator: Adobe Illustrator 16.0.0, SVG Export Plug-In . SVG Version: 6.00 Build 0)  -->
<!DOCTYPE svg PUBLIC "-//W3C//DTD SVG 1.1//EN" "http://www.w3.org/Graphics/SVG/1.1/DTD/svg11.dtd">
<svg version="1.1" xmlns="http://www.w3.org/2000/svg" xmlns:xlink="http://www.w3.org/1999/xlink" x="0px" y="0px" width="768px"
	 height="1024px" viewBox="0 0 768 1024" enable-background="new 0 0 768 1024" xml:space="preserve">
<g id="Layer_1">
	
		<image overflow="visible" width="2204" height="2946" xlink:href="../kerros-3&amp;0.png"  transform="matrix(0.6305 0 0 0.6305 73.1699 0.0059)">
	</image>
</g>
<g id="A0119">
	<rect x="542.5" y="682.25" fill="none" stroke="#000000" stroke-miterlimit="10" width="42.25" height="124"/>
	<path fill="none" stroke="#000000" stroke-miterlimit="10" d="M581.001,744.916c0,4.097-2.351,7.417-5.25,7.417h-24.167
		c-2.899,0-5.25-3.32-5.25-7.417l0,0c0-4.096,2.351-7.416,5.25-7.416h24.167C578.65,737.5,581.001,740.82,581.001,744.916
		L581.001,744.916z"/>
	<rect x="548.793" y="739" fill="none" width="35.666" height="13.5"/>
	<text transform="matrix(1 0 0 1 548.793 747.5195)" font-family="'MyriadPro-Regular'" font-size="12">0.119</text>
</g>
<g id="A0117">
	<rect x="542.5" y="557.75" fill="none" stroke="#000000" stroke-miterlimit="10" width="42.25" height="124.5"/>
	<path fill="none" stroke="#000000" stroke-miterlimit="10" d="M581.001,620.568c0,4.25-2.716,7.694-6.066,7.694h-23.286
		c-3.351,0-6.066-3.444-6.066-7.694l0,0c0-4.248,2.716-7.693,6.066-7.693h23.286C578.285,612.875,581.001,616.32,581.001,620.568
		L581.001,620.568z"/>
	<rect x="549.041" y="615.84" fill="none" width="28.5" height="10"/>
	<text transform="matrix(1 0 0 1 549.041 624.3594)" font-family="'MyriadPro-Regular'" font-size="12">0.117</text>
</g>
<g id="A0108">
	<rect x="542.5" y="475" fill="none" stroke="#000000" stroke-miterlimit="10" width="42.25" height="82.75"/>
	<path fill="none" stroke="#000000" stroke-miterlimit="10" d="M577.521,515.5c0,3.037-2.462,5.499-5.5,5.499h-20.188
		c-3.038,0-5.5-2.462-5.5-5.499l0,0c0-3.038,2.462-5.5,5.5-5.5h20.188C575.06,510,577.521,512.462,577.521,515.5L577.521,515.5z"/>
	<rect x="547.918" y="511" fill="none" width="31.5" height="9"/>
	<text transform="matrix(1 0 0 1 547.918 519.5195)" font-family="'MyriadPro-Regular'" font-size="12">0.108</text>
</g>
<g id="A0194">
	<polygon fill="none" stroke="#000000" stroke-miterlimit="10" points="616.5,391 604.75,481.5 624.5,483 636.25,393.25 	"/>
	<path fill="none" stroke="#000000" stroke-miterlimit="10" d="M622.642,420.715c3.276,0.499,5.662,2.675,5.329,4.86l-3.109,20.45
		c-0.333,2.187-3.259,3.554-6.534,3.056l0,0c-3.276-0.498-5.662-2.674-5.329-4.86l3.109-20.451
		C616.44,421.585,619.365,420.217,622.642,420.715L622.642,420.715z"/>
	
		<rect x="608.414" y="427.562" transform="matrix(0.1497 -0.9887 0.9887 0.1497 100.1477 981.1033)" fill="none" width="24.173" height="9.525"/>
	<text transform="matrix(0.1497 -0.9887 0.9887 0.1497 620.2988 444.519)" font-family="'MyriadPro-Regular'" font-size="9">0.194 </text>
</g>
<g id="A0185">
	<polygon fill="none" stroke="#000000" stroke-miterlimit="10" points="548.443,442.153 608.85,449.891 605.932,472.369 
		546.193,462.903 	"/>
	<path fill="none" stroke="#000000" stroke-miterlimit="10" d="M591.871,459.313c-0.457,2.909-3.186,4.897-6.095,4.439
		l-22.707-3.568c-2.909-0.457-4.896-3.185-4.439-6.094l0,0c0.457-2.909,3.186-4.897,6.095-4.44l22.707,3.567
		C590.341,453.676,592.328,456.405,591.871,459.313L591.871,459.313z"/>
	
		<rect x="564.688" y="452.427" transform="matrix(0.9904 0.138 -0.138 0.9904 68.6079 -75.3041)" fill="none" width="25.666" height="9.667"/>
	<text transform="matrix(0.9904 0.138 -0.138 0.9904 564.5957 457.0322)" font-family="'MyriadPro-Regular'" font-size="9">0.185</text>
</g>
<g id="A0195">
	<polygon fill="none" stroke="#000000" stroke-miterlimit="10" points="619,375.5 616.5,391 636.25,393.25 638.25,378 	"/>
	<path fill="none" stroke="#000000" stroke-miterlimit="10" d="M636.25,383.334c0,2.393-2.51,4.333-5.606,4.333h-6.037
		c-3.097,0-5.606-1.94-5.606-4.333l0,0c0-2.393,2.51-4.333,5.606-4.333h6.037C633.74,379.001,636.25,380.941,636.25,383.334
		L636.25,383.334z"/>
	<rect x="620.5" y="380.583" fill="none" width="21.667" height="7.584"/>
	<text transform="matrix(1 0 0 1 620.5 384.8428)" font-family="'MyriadPro-Regular'" font-size="6">0.195</text>
</g>
<g id="A0101">
	<rect x="452" y="557.75" fill="none" stroke="#000000" stroke-miterlimit="10" width="41.75" height="21.5"/>
	<path fill="none" stroke="#000000" stroke-miterlimit="10" d="M489.668,569c0,3.313-2.687,6-6,6h-20.667c-3.313,0-6-2.687-6-6l0,0
		c0-3.313,2.687-6,6-6h20.667C486.981,563,489.668,565.687,489.668,569L489.668,569z"/>
	<rect x="458" y="566.5" fill="none" width="33" height="12.75"/>
	<text transform="matrix(1 0 0 1 458 575.0195)" font-family="'MyriadPro-Regular'" font-size="12">0.101</text>
</g>
<g id="A0112">
	<rect x="452" y="579.25" fill="none" stroke="#000000" stroke-miterlimit="10" width="41.75" height="21.25"/>
	<path fill="none" stroke="#000000" stroke-miterlimit="10" d="M489.668,589.916c0,3.544-2.873,6.417-6.416,6.417h-19.834
		c-3.544,0-6.417-2.873-6.417-6.417l0,0c0-3.543,2.873-6.416,6.417-6.416h19.834C486.795,583.5,489.668,586.373,489.668,589.916
		L489.668,589.916z"/>
	<rect x="459" y="585.434" fill="none" width="31" height="12.466"/>
	<text transform="matrix(1 0 0 1 459 593.9531)" font-family="'MyriadPro-Regular'" font-size="12">0.112</text>
</g>
<g id="A0113">
	<path fill="none" stroke="#000000" stroke-miterlimit="10" d="M487.995,610.875c0,3.225-2.614,5.84-5.84,5.84H460.84
		c-3.226,0-5.84-2.615-5.84-5.84l0,0c0-3.226,2.614-5.84,5.84-5.84h21.315C485.381,605.035,487.995,607.649,487.995,610.875
		L487.995,610.875z"/>
	<rect x="452" y="600.5" fill="none" stroke="#000000" stroke-miterlimit="10" width="41.75" height="20.75"/>
	<rect x="456.832" y="606.732" fill="none" width="30" height="12.035"/>
	<text transform="matrix(1 0 0 1 456.832 615.252)" font-family="'MyriadPro-Regular'" font-size="12">0.113</text>
</g>
<g id="A0116">
	<rect x="452" y="621.25" fill="none" stroke="#000000" stroke-miterlimit="10" width="41.75" height="20"/>
	<path fill="none" stroke="#000000" stroke-miterlimit="10" d="M490.53,631.251c0,3.571-2.138,6.468-4.774,6.468h-25.762
		c-2.637,0-4.774-2.896-4.774-6.468l0,0c0-3.573,2.138-6.469,4.774-6.469h25.762C488.393,624.782,490.53,627.678,490.53,631.251
		L490.53,631.251z"/>
	<rect x="457.875" y="627.75" fill="none" width="33.5" height="10.75"/>
	<text transform="matrix(1 0 0 1 457.875 636.2695)" font-family="'MyriadPro-Regular'" font-size="12">0.116</text>
</g>
<g id="A0115">
	<rect x="452" y="641.25" fill="none" stroke="#000000" stroke-miterlimit="10" width="41.75" height="83.25"/>
	<path fill="none" stroke="#000000" stroke-miterlimit="10" d="M489.668,682.22c0,4.113-3.334,7.447-7.447,7.447h-17.772
		c-4.113,0-7.447-3.334-7.447-7.447l0,0c0-4.112,3.334-7.446,7.447-7.446h17.772C486.334,674.773,489.668,678.107,489.668,682.22
		L489.668,682.22z"/>
	<rect x="458.375" y="678.836" fill="none" width="29" height="13.671"/>
	<text transform="matrix(1 0 0 1 458.375 687.3555)" font-family="'MyriadPro-Regular'" font-size="12">0.115</text>
</g>
<g id="A0121">
	<rect x="452" y="724.5" fill="none" stroke="#000000" stroke-miterlimit="10" width="41.75" height="21.25"/>
	<rect x="452" y="745.75" fill="none" stroke="#000000" stroke-miterlimit="10" width="41.75" height="20.5"/>
	<path fill="none" stroke="#000000" stroke-miterlimit="10" d="M489.668,735c0,3.314-2.077,6-4.641,6h-26.387
		c-2.563,0-4.641-2.686-4.641-6l0,0c0-3.314,2.077-6,4.641-6h26.387C487.591,729,489.668,731.686,489.668,735L489.668,735z"/>
	<path fill="none" stroke="#000000" stroke-miterlimit="10" d="M492.896,756.501c0,3.438-1.754,6.228-3.919,6.228h-28.956
		c-2.164,0-3.919-2.789-3.919-6.228l0,0c0-3.44,1.755-6.229,3.919-6.229h28.956C491.143,750.271,492.896,753.061,492.896,756.501
		L492.896,756.501z"/>
	<rect x="454.125" y="729.959" fill="none" width="37.5" height="10.333"/>
	<text transform="matrix(1 0 0 1 454.125 738.4785)" font-family="'MyriadPro-Regular'" font-size="12">0.121A</text>
	<rect x="457.5" y="751.583" fill="none" width="34" height="12.5"/>
	<text transform="matrix(1 0 0 1 457.5 760.1025)" font-family="'MyriadPro-Regular'" font-size="12">0.121B</text>
</g>
<g id="A0125">
	<path fill="none" stroke="#000000" stroke-miterlimit="10" d="M474.5,827v42.5l131.75-2c0,0,0-62.75,0-63s-63.75,1.75-63.75,1.75
		v30.739h-30.25V826.5L474.5,827z"/>
	<polygon fill="none" stroke="#000000" stroke-miterlimit="10" points="542.5,806.25 533,806.25 533,826.5 512.25,826.5 
		512.25,836.989 542.5,836.989 	"/>
	<path fill="none" stroke="#000000" stroke-miterlimit="10" d="M584.251,837.671c0,3.502-3.04,6.339-6.79,6.339h-21.67
		c-3.75,0-6.79-2.837-6.79-6.339l0,0c0-3.5,3.04-6.338,6.79-6.338h21.67C581.211,831.333,584.251,834.171,584.251,837.671
		L584.251,837.671z"/>
	<rect x="551.625" y="834.355" fill="none" width="30.001" height="13.5"/>
	<text transform="matrix(1 0 0 1 551.625 842.875)" font-family="'MyriadPro-Regular'" font-size="12">0.125</text>
	<polyline fill="none" stroke="#000000" stroke-miterlimit="10" points="342.5,402.667 362,402.667 362,417.667 357,417.746 
		357,402.667 352.25,402.667 352.25,417.591 345.25,417.746 	"/>
	<line fill="none" stroke="#000000" stroke-miterlimit="10" x1="347.25" y1="402.667" x2="347.25" y2="417.667"/>
	<line fill="none" stroke="#000000" stroke-miterlimit="10" x1="379.5" y1="402.667" x2="400.999" y2="402.667"/>
	<polyline fill="none" stroke="#000000" stroke-miterlimit="10" points="396.75,402.667 396.75,417.667 393.625,417.667 
		393.625,402.667 390.25,402.667 390.25,417.746 387.625,417.746 387.625,402.667 385,402.667 385,417.667 382.375,417.667 
		382.375,402.667 	"/>
	<polyline fill="none" stroke="#000000" stroke-miterlimit="10" points="379.5,405.125 400.999,405.667 400.999,408.625 
		379.5,408.596 379.5,411.375 400.999,411.375 400.999,414 379.5,414 379.5,416.25 400.999,416.25 	"/>
	<polyline fill="none" stroke="#000000" stroke-miterlimit="10" points="342.5,405.125 362,405.125 362,407.125 342.5,407.125 
		342.5,409.25 362,409.25 362,411.25 342.5,411.25 342.5,412.875 362,412.875 362,415.25 342.5,415.25 	"/>
</g>
<g id="A0128">
	<rect x="426.5" y="796.25" fill="none" stroke="#000000" stroke-miterlimit="10" width="48" height="73.25"/>
	<path fill="none" stroke="#000000" stroke-miterlimit="10" d="M465.304,838.922c0,2.905-2.355,5.26-5.26,5.26h-21.116
		c-2.904,0-5.26-2.354-5.26-5.26l0,0c0-2.905,2.355-5.261,5.26-5.261h21.116C462.948,833.661,465.304,836.017,465.304,838.922
		L465.304,838.922z"/>
	<rect x="435.768" y="833.672" fill="none" width="27.438" height="10.5"/>
	<text transform="matrix(1 0 0 1 435.7676 842.1914)" font-family="'MyriadPro-Regular'" font-size="12">0.128</text>
</g>
<g id="A0129">
	<rect x="426.5" y="796.25" fill="none" stroke="#000000" stroke-miterlimit="10" width="38.705" height="21.086"/>
	<path fill="none" stroke="#000000" stroke-miterlimit="10" d="M463.205,807.123c0,3.522-1.467,6.377-3.277,6.377h-28.65
		c-1.811,0-3.277-2.854-3.277-6.377l0,0c0-3.519,1.467-6.373,3.277-6.373h28.65C461.738,800.75,463.205,803.604,463.205,807.123
		L463.205,807.123z"/>
	<rect x="433.986" y="802.021" fill="none" width="31" height="13"/>
	<text transform="matrix(1 0 0 1 433.9863 810.541)" font-family="'MyriadPro-Regular'" font-size="12">0.129</text>
</g>
<g id="A0148">
	<rect x="140" y="811" fill="none" stroke="#000000" stroke-miterlimit="10" width="63.5" height="61.75"/>
	<path fill="none" stroke="#000000" stroke-miterlimit="10" d="M191.667,844.182c0,3.973-3.22,7.193-7.193,7.193h-22.407
		c-3.973,0-7.193-3.221-7.193-7.193l0,0c0-3.972,3.22-7.192,7.193-7.192h22.407C188.447,836.989,191.667,840.21,191.667,844.182
		L191.667,844.182z"/>
	<rect x="158.521" y="838.182" fill="none" width="29.5" height="12"/>
	<text transform="matrix(1 0 0 1 158.5215 846.7012)" font-family="'MyriadPro-Regular'" font-size="12">0.148</text>
</g>
<g id="A0149">
	<rect x="203.5" y="830" fill="none" stroke="#000000" stroke-miterlimit="10" width="49" height="42.75"/>
	<path fill="none" stroke="#000000" stroke-miterlimit="10" d="M247.333,847.057c0,3.285-2.39,5.95-5.339,5.95h-23.989
		c-2.949,0-5.339-2.665-5.339-5.95l0,0c0-3.286,2.39-5.951,5.339-5.951h23.989C244.943,841.105,247.333,843.771,247.333,847.057
		L247.333,847.057z"/>
	<text transform="matrix(1 0 0 1 216.5 850.1816)" font-family="'MyriadPro-Regular'" font-size="12">0.149</text>
</g>
<g id="A0143">
	<rect x="140" y="729" fill="none" stroke="#000000" stroke-miterlimit="10" width="63.5" height="61.5"/>
	<rect x="140" y="790.5" fill="none" stroke="#000000" stroke-miterlimit="10" width="63.5" height="20.5"/>
	<path fill="none" d="M191.667,759.291c0,3.844-3.115,6.959-6.958,6.959h-22.875c-3.843,0-6.958-3.115-6.958-6.959l0,0
		c0-3.843,3.115-6.958,6.958-6.958h22.875C188.552,752.333,191.667,755.448,191.667,759.291L191.667,759.291z"/>
	<text transform="matrix(1 0 0 1 158.5088 760.8525)" font-family="'MyriadPro-Regular'" font-size="12">0.143</text>
	<path fill="none" stroke="#000000" stroke-miterlimit="10" d="M154.875,756.5c0-3.773,3.619-6.834,8.083-6.834h18.399
		c4.464,0,8.083,3.061,8.083,6.834l0,0c0,3.773-3.619,6.833-8.083,6.833h-18.399C158.494,763.333,154.875,760.273,154.875,756.5
		L154.875,756.5z"/>
</g>
<g id="A0134">
	<rect x="140" y="583.5" fill="none" stroke="#000000" stroke-miterlimit="10" width="62.75" height="82.5"/>
	<path fill="none" d="M196.919,625.625c0,3.106-3.348,5.625-7.478,5.625h-27.088c-4.13,0-7.478-2.519-7.478-5.625l0,0
		c0-3.106,3.348-5.625,7.478-5.625h27.088C193.571,620,196.919,622.519,196.919,625.625L196.919,625.625z"/>
	<text transform="matrix(1 0 0 1 158.4048 628.5195)" font-family="'MyriadPro-Regular'" font-size="12">0.134</text>
	<path fill="none" stroke="#000000" stroke-miterlimit="10" d="M189.441,624.857c0,3.531-2.862,6.393-6.392,6.393h-21.782
		c-3.53,0-6.392-2.861-6.392-6.393l0,0c0-3.529,2.862-6.392,6.392-6.392h21.782C186.579,618.466,189.441,621.328,189.441,624.857
		L189.441,624.857z"/>
</g>
<g id="A0133">
	<rect x="140" y="501.5" fill="none" stroke="#000000" stroke-miterlimit="10" width="62.75" height="82"/>
	<path fill="none" d="M195.919,544.334c0,3.313-3.706,6-8.277,6h-27.071c-4.571,0-8.277-2.687-8.277-6l0,0c0-3.313,3.706-6,8.277-6
		h27.071C192.213,538.334,195.919,541.021,195.919,544.334L195.919,544.334z"/>
	<text transform="matrix(1 0 0 1 156.3291 546.8535)" font-family="'MyriadPro-Regular'" font-size="12">0.133</text>
	<path fill="none" stroke="#000000" stroke-miterlimit="10" d="M191.667,543.954c0,3.104-2.516,5.62-5.62,5.62h-25.552
		c-3.104,0-5.62-2.516-5.62-5.62l0,0c0-3.104,2.516-5.62,5.62-5.62h25.552C189.151,538.334,191.667,540.851,191.667,543.954
		L191.667,543.954z"/>
</g>
<g id="A0132">
	<rect x="140" y="481" fill="none" stroke="#000000" stroke-miterlimit="10" width="62.75" height="21.25"/>
	<path fill="none" stroke="#000000" stroke-miterlimit="10" d="M190.167,490.334c0,3.682-2.832,6.667-6.324,6.667h-22.644
		c-3.493,0-6.324-2.985-6.324-6.667l0,0c0-3.682,2.832-6.667,6.324-6.667h22.644C187.336,483.667,190.167,486.652,190.167,490.334
		L190.167,490.334z"/>
	<rect x="156.021" y="485.875" fill="none" width="33" height="11.5"/>
	<text transform="matrix(1 0 0 1 156.0215 494.395)" font-family="'MyriadPro-Regular'" font-size="12">0.132</text>
</g>
<g id="A0135">
	<rect x="251.75" y="510" fill="none" stroke="#000000" stroke-miterlimit="10" width="41.75" height="92.75"/>
	<path fill="none" stroke="#000000" stroke-miterlimit="10" d="M290.045,591.666c0,3.391-2.234,6.138-4.99,6.138h-24.861
		c-2.755,0-4.99-2.747-4.99-6.138l0,0c0-3.39,2.234-6.137,4.99-6.137h24.861C287.811,585.529,290.045,588.276,290.045,591.666
		L290.045,591.666z"/>
	<rect x="256.625" y="587.5" fill="none" width="32" height="13"/>
	<text transform="matrix(1 0 0 1 256.625 596.0195)" font-family="'MyriadPro-Regular'" font-size="12">0.135</text>
</g>
<g id="A0137">
	<rect x="251.75" y="602.875" fill="none" stroke="#000000" stroke-miterlimit="10" width="41.75" height="20"/>
	<path fill="none" stroke="#000000" stroke-miterlimit="10" d="M291.082,613.788c0,3.895-2.838,7.052-6.34,7.052h-25.62
		c-3.502,0-6.34-3.157-6.34-7.052l0,0c0-3.897,2.838-7.056,6.34-7.056h25.62C288.243,606.732,291.082,609.891,291.082,613.788
		L291.082,613.788z"/>
	<rect x="256.625" y="607.893" fill="none" width="32" height="11.786"/>
	<text transform="matrix(1 0 0 1 256.625 616.4121)" font-family="'MyriadPro-Regular'" font-size="12">0.137</text>
</g>
<g id="A0138">
	<rect x="251.75" y="622.875" fill="none" stroke="#000000" stroke-miterlimit="10" width="41.75" height="21.25"/>
	<path fill="none" stroke="#000000" stroke-miterlimit="10" d="M290.414,633.5c0,4.007-3.321,7.257-7.416,7.257h-20.747
		c-4.096,0-7.416-3.25-7.416-7.257l0,0c0-4.007,3.32-7.257,7.416-7.257h20.747C287.093,626.243,290.414,629.493,290.414,633.5
		L290.414,633.5z"/>
	<rect x="256.932" y="630.359" fill="none" width="30" height="14.719"/>
	<text transform="matrix(1 0 0 1 256.9316 638.8789)" font-family="'MyriadPro-Regular'" font-size="12">0.138</text>
</g>
<g id="A0139">
	<rect x="251.75" y="644.125" fill="none" stroke="#000000" stroke-miterlimit="10" width="41.75" height="19.75"/>
	<path fill="none" stroke="#000000" stroke-miterlimit="10" d="M289.751,653.601c0,3.351-2.592,6.066-5.791,6.066h-23.252
		c-3.198,0-5.791-2.716-5.791-6.066l0,0c0-3.352,2.593-6.068,5.791-6.068h23.252C287.159,647.532,289.751,650.249,289.751,653.601
		L289.751,653.601z"/>
	<rect x="255.625" y="649.5" fill="none" width="31.5" height="13.667"/>
	<text transform="matrix(1 0 0 1 255.625 658.0195)" font-family="'MyriadPro-Regular'" font-size="12">0.139</text>
</g>
<g id="A0145">
	<rect x="251.75" y="707.25" fill="none" stroke="#000000" stroke-miterlimit="10" width="41.75" height="19.75"/>
	<rect x="251.75" y="727" fill="none" stroke="#000000" stroke-miterlimit="10" width="41.75" height="21"/>
	<rect x="251.75" y="748" fill="none" stroke="#000000" stroke-miterlimit="10" width="41.75" height="20.5"/>
	<path fill="none" stroke="#000000" stroke-miterlimit="10" d="M291.325,757.971c0,2.962-3.421,5.362-7.642,5.362h-19.95
		c-4.221,0-7.642-2.4-7.642-5.362l0,0c0-2.962,3.421-5.361,7.642-5.361h19.95C287.904,752.609,291.325,755.009,291.325,757.971
		L291.325,757.971z"/>
	<path fill="none" stroke="#000000" stroke-miterlimit="10" d="M288.667,737.5c0,3.037-2.042,5.5-4.562,5.5h-22.958
		c-2.52,0-4.562-2.463-4.562-5.5l0,0c0-3.037,2.042-5.5,4.562-5.5h22.958C286.625,732,288.667,734.463,288.667,737.5L288.667,737.5z
		"/>
	<path fill="none" stroke="#000000" stroke-miterlimit="10" d="M290.25,717.512c0,2.86-2.318,5.179-5.179,5.179h-21.778
		c-2.86,0-5.179-2.318-5.179-5.179l0,0c0-2.86,2.319-5.179,5.179-5.179h21.778C287.932,712.333,290.25,714.651,290.25,717.512
		L290.25,717.512z"/>
	<rect x="257.709" y="712.012" fill="none" width="32" height="11"/>
	<text transform="matrix(1 0 0 1 257.709 720.5312)" font-family="'MyriadPro-Regular'" font-size="12">0.145</text>
	<rect x="255.03" y="732.875" fill="none" width="38.5" height="12.25"/>
	<text transform="matrix(1 0 0 1 255.0303 741.3945)" font-family="'MyriadPro-Regular'" font-size="12">0146.A</text>
	<rect x="256.917" y="754.541" fill="none" width="35.5" height="9.5"/>
	<text transform="matrix(1 0 0 1 256.9165 763.0605)" font-family="'MyriadPro-Regular'" font-size="12">0.146B</text>
</g>
<g id="A0158">
	<rect x="169.75" y="372" fill="none" stroke="#000000" stroke-miterlimit="10" width="31.5" height="77.25"/>
	<path fill="none" stroke="#000000" stroke-miterlimit="10" d="M201.25,409.837c0,3.223-2.612,5.835-5.835,5.835h-17.83
		c-3.223,0-5.835-2.612-5.835-5.835l0,0c0-3.223,2.612-5.835,5.835-5.835h17.83C198.638,404.001,201.25,406.614,201.25,409.837
		L201.25,409.837z"/>
	<rect x="176.331" y="407.346" fill="none" width="36.25" height="9.25"/>
	<text transform="matrix(1 0 0 1 176.3311 413.7358)" font-family="'MyriadPro-Regular'" font-size="9">0.158</text>
</g>
<g id="A0155">
	<rect x="140" y="418.5" fill="none" stroke="#000000" stroke-miterlimit="10" width="29.75" height="30.75"/>
	<path fill="none" stroke="#000000" stroke-miterlimit="10" d="M169.75,434.875c0,2.969-3.255,5.375-7.271,5.375h-15.207
		c-4.016,0-7.271-2.406-7.271-5.375l0,0c0-2.969,3.255-5.375,7.271-5.375h15.207C166.495,429.5,169.75,431.906,169.75,434.875
		L169.75,434.875z"/>
	<rect x="144.583" y="432.229" fill="none" width="19.167" height="6.875"/>
	<text transform="matrix(1 0 0 1 144.5835 437.9087)" font-family="'MyriadPro-Regular'" font-size="8">0.155</text>
</g>
<g id="A0172">
	<rect x="306.75" y="369.75" fill="none" stroke="#000000" stroke-miterlimit="10" width="35.75" height="77.75"/>
	<path fill="none" stroke="#000000" stroke-miterlimit="10" d="M329.666,420.192c0,3.313-2.686,5.999-5.999,5.999l0,0
		c-3.313,0-5.999-2.686-5.999-5.999v-23.193c0-3.313,2.686-5.999,5.999-5.999l0,0c3.313,0,5.999,2.686,5.999,5.999V420.192z"/>
	<rect x="320.458" y="398.542" fill="none" width="8.333" height="20.167"/>
	<text transform="matrix(4.489659e-11 -1 1 4.489659e-11 326.1382 418.7085)" font-family="'MyriadPro-Regular'" font-size="8">0.172</text>
</g>
<g id="A0177">
	<rect x="390" y="477.25" fill="none" stroke="#000000" stroke-miterlimit="10" width="62" height="31.75"/>
	<path fill="none" stroke="#000000" stroke-miterlimit="10" d="M440,492.306c0,3.482-2.861,6.306-6.392,6.306h-22.827
		c-3.531,0-6.392-2.824-6.392-6.306l0,0c0-3.482,2.86-6.306,6.392-6.306h22.827C437.139,486,440,488.824,440,492.306L440,492.306z"
		/>
	<rect x="410.166" y="489.745" fill="none" width="21.666" height="7.667"/>
	<text transform="matrix(1 0 0 1 410.166 496.1353)" font-family="'MyriadPro-Regular'" font-size="9">0.177</text>
</g>
<g id="A0170">
	<rect x="303.5" y="478.5" fill="none" stroke="#000000" stroke-miterlimit="10" width="41.75" height="31.5"/>
	<path fill="none" stroke="#000000" stroke-miterlimit="10" d="M342.5,493.578c0,3.5-2.978,6.338-6.652,6.338h-24.454
		c-3.674,0-6.652-2.838-6.652-6.338l0,0c0-3.5,2.978-6.338,6.652-6.338h24.454C339.522,487.24,342.5,490.078,342.5,493.578
		L342.5,493.578z"/>
	<rect x="312.666" y="491.125" fill="none" width="24" height="7"/>
	<text transform="matrix(1 0 0 1 312.6655 497.5146)" font-family="'MyriadPro-Regular'" font-size="9">0.170</text>
</g>
<g id="A0162">
	<rect x="277" y="478.5" fill="none" stroke="#000000" stroke-miterlimit="10" width="26.5" height="31.5"/>
	<path fill="none" stroke="#000000" stroke-miterlimit="10" d="M296.334,503.427c0,3.078-2.495,5.573-5.573,5.573l0,0
		c-3.078,0-5.573-2.495-5.573-5.573v-17.604c0-3.078,2.495-5.573,5.573-5.573l0,0c3.078,0,5.573,2.495,5.573,5.573V503.427z"/>
	<rect x="287.834" y="482.287" fill="none" width="8.5" height="22.583"/>
	<text transform="matrix(0 -1 1 0 294.2241 504.8691)" font-family="'MyriadPro-Regular'" font-size="9">0.162</text>
</g>
<g id="A0159">
	<rect x="250.25" y="478.5" fill="none" stroke="#000000" stroke-miterlimit="10" width="26.75" height="31.5"/>
	<path fill="none" stroke="#000000" stroke-miterlimit="10" d="M269.667,503c0,3.313-2.686,6-6,6l0,0c-3.314,0-6-2.687-6-6v-16.75
		c0-3.313,2.686-6,6-6l0,0c3.314,0,6,2.687,6,6V503z"/>
	<rect x="259.417" y="483.708" fill="none" width="8.5" height="21.833"/>
	<text transform="matrix(0 -1 1 0 265.8076 505.5425)" font-family="'MyriadPro-Regular'" font-size="9">0.159</text>
</g>
<g id="A0150">
	<polygon fill="none" stroke="#000000" stroke-miterlimit="10" points="252.5,813.5 252.5,872.75 327.002,872.75 327.002,830 
		293.5,830 293.5,813.5 	"/>
	<path fill="none" d="M307.583,843.126c0,3.623-3.312,6.562-7.396,6.562h-19.875c-4.084,0-7.396-2.938-7.396-6.562l0,0
		c0-3.624,3.312-6.562,7.396-6.562h19.875C304.272,836.563,307.583,839.502,307.583,843.126L307.583,843.126z"/>
	<text transform="matrix(1 0 0 1 276.6777 845.083)" font-family="'MyriadPro-Regular'" font-size="12">0.159</text>
	<path fill="none" stroke="#000000" stroke-miterlimit="10" d="M274.667,843.969c0-4.09,3.316-7.405,7.406-7.405h19.459
		c4.09,0,7.406,3.315,7.406,7.405l0,0c0,4.091-3.315,7.406-7.406,7.406h-19.459C277.982,851.375,274.667,848.06,274.667,843.969
		L274.667,843.969z"/>
</g>
<g id="WC">
	<rect x="263.625" y="372" fill="none" stroke="#000000" stroke-miterlimit="10" width="43.125" height="23.671"/>
	<rect x="201.25" y="372" fill="none" stroke="#000000" stroke-miterlimit="10" width="41.75" height="23.671"/>
	<rect x="251.75" y="685.671" fill="none" stroke="#000000" stroke-miterlimit="10" width="41.75" height="21.579"/>
	<rect x="251.75" y="663.875" fill="none" stroke="#000000" stroke-miterlimit="10" width="41.75" height="21.796"/>
	<rect x="533" y="782.337" fill="none" stroke="#000000" stroke-miterlimit="10" width="9.5" height="28.663"/>
	<rect x="425" y="401.672" fill="none" stroke="#000000" stroke-miterlimit="10" width="30" height="14"/>
	<rect x="455" y="401.672" fill="none" stroke="#000000" stroke-miterlimit="10" width="24.666" height="14"/>
	<polygon fill="none" stroke="#000000" stroke-miterlimit="10" points="581.75,386.5 578.988,412.133 591.25,413.25 593.75,388 	"/>
	<polygon fill="none" stroke="#000000" stroke-miterlimit="10" points="575.25,438.5 578.988,412.133 591.25,413.25 587.5,440.25 	
		"/>
	<path fill="#808080" stroke="#000000" stroke-miterlimit="10" d="M236.334,385.001c0,3.313-2.686,5.999-5.999,5.999H213
		c-3.313,0-5.999-2.686-5.999-5.999l0,0c0-3.313,2.686-6,5.999-6h17.335C233.648,379.001,236.334,381.688,236.334,385.001
		L236.334,385.001z"/>
	<path fill="#808080" stroke="#000000" stroke-miterlimit="10" d="M302.104,385.001c0,3.002-3.189,5.437-7.124,5.437h-19.584
		c-3.935,0-7.125-2.434-7.125-5.437l0,0c0-3.003,3.189-5.437,7.125-5.437h19.584C298.914,379.564,302.104,381.998,302.104,385.001
		L302.104,385.001z"/>
	<path fill="#808080" stroke="#000000" stroke-miterlimit="10" d="M290.19,695.334c0,3.129-3.087,5.666-6.896,5.666h-18.03
		c-3.808,0-6.896-2.537-6.896-5.666l0,0c0-3.13,3.087-5.667,6.896-5.667h18.03C287.103,689.667,290.19,692.204,290.19,695.334
		L290.19,695.334z"/>
	<path fill="#808080" stroke="#000000" stroke-miterlimit="10" d="M290.25,675.959c0,3.475-2.817,6.291-6.292,6.291h-20
		c-3.475,0-6.292-2.816-6.292-6.291l0,0c0-3.476,2.817-6.292,6.292-6.292h20C287.433,669.667,290.25,672.483,290.25,675.959
		L290.25,675.959z"/>
	<path fill="#808080" stroke="#000000" stroke-miterlimit="10" d="M477.854,408.312c0,2.728-2.211,4.938-4.938,4.938h-11.164
		c-2.728,0-4.938-2.211-4.938-4.938l0,0c0-2.728,2.211-4.938,4.938-4.938h11.164C475.643,403.373,477.854,405.584,477.854,408.312
		L477.854,408.312z"/>
	<path fill="#808080" stroke="#000000" stroke-miterlimit="10" d="M453,407.959c0,2.532-2.716,4.585-6.066,4.585h-13.867
		c-3.351,0-6.066-2.053-6.066-4.585l0,0c0-2.533,2.716-4.586,6.066-4.586h13.867C450.284,403.373,453,405.426,453,407.959
		L453,407.959z"/>
	<path fill="#808080" stroke="#000000" stroke-miterlimit="10" d="M590.369,407c0,2.209-1.791,4-4,4l0,0c-2.209,0-4-1.791-4-4
		v-14.25c0-2.209,1.791-4,4-4l0,0c2.209,0,4,1.791,4,4V407z"/>
	<path fill="#808080" stroke="#000000" stroke-miterlimit="10" d="M586.928,432.675c-0.197,2.385-2.291,4.16-4.678,3.962l0,0
		c-2.384-0.198-4.157-2.292-3.96-4.677l1.047-12.617c0.198-2.385,2.292-4.159,4.676-3.962l0,0c2.386,0.198,4.16,2.292,3.962,4.677
		L586.928,432.675z"/>
	<rect x="277.084" y="381.917" fill="none" width="21.5" height="11.5"/>
	<text transform="matrix(1 0 0 1 277.084 388.3076)" fill="#FFFFFF" font-family="'MyriadPro-Regular'" font-size="9">WC</text>
	<rect x="217.251" y="381.918" fill="none" width="21.5" height="11.5"/>
	<text transform="matrix(1 0 0 1 217.2515 388.3086)" fill="#FFFFFF" font-family="'MyriadPro-Regular'" font-size="9">WC</text>
	<rect x="431.833" y="405.25" fill="none" width="21.5" height="11.5"/>
	<text transform="matrix(1 0 0 1 431.832 411.6401)" fill="#FFFFFF" font-family="'MyriadPro-Regular'" font-size="9">WC</text>
	<rect x="265.792" y="672.537" fill="none" width="21.5" height="11.5"/>
	<text transform="matrix(1 0 0 1 265.7915 678.9277)" fill="#FFFFFF" font-family="'MyriadPro-Regular'" font-size="9">WC</text>
	<rect x="265.792" y="691.75" fill="none" width="21.5" height="11.5"/>
	<text transform="matrix(1 0 0 1 265.791 698.1406)" fill="#FFFFFF" font-family="'MyriadPro-Regular'" font-size="9">WC</text>
	
		<rect x="575.619" y="414.862" transform="matrix(0.172 -0.9851 0.9851 0.172 71.1646 925.8922)" fill="none" width="21.5" height="11.501"/>
	
		<text transform="matrix(0.172 -0.9851 0.9851 0.172 585.1504 431.3115)" fill="#FFFFFF" font-family="'MyriadPro-Regular'" font-size="9">WC</text>
	
		<rect x="577.787" y="388.079" transform="matrix(-0.0114 -0.9999 0.9999 -0.0114 201.4434 986.818)" fill="none" width="21.5" height="11.5"/>
	
		<text transform="matrix(-0.0114 -0.9999 0.9999 -0.0114 589.2988 404.5713)" fill="#FFFFFF" font-family="'MyriadPro-Regular'" font-size="9">WC</text>
	<rect x="460.748" y="405.25" fill="none" width="21.5" height="11.5"/>
	<text transform="matrix(1 0 0 1 460.748 411.6401)" fill="#FFFFFF" font-family="'MyriadPro-Regular'" font-size="9">WC</text>
	<path fill="#808080" stroke="#000000" stroke-miterlimit="10" d="M537.75,785.201c2.697,0,4.885,2.188,4.885,4.885v13.164
		c0,2.697-2.188,4.885-4.885,4.885l0,0c-2.697,0-4.885-2.188-4.885-4.885v-13.164C532.865,787.389,535.053,785.201,537.75,785.201
		L537.75,785.201z"/>
	<rect x="533.499" y="788.25" fill="none" width="8.502" height="16"/>
	<text transform="matrix(0 -1 1 0 539.8887 804.25)" fill="#FFFFFF" font-family="'MyriadPro-Regular'" font-size="9">WC</text>
</g>
<g id="Unsorted">
	<rect x="140" y="666" fill="none" stroke="#000000" stroke-miterlimit="10" width="63.5" height="63"/>
	<rect x="252.5" y="800.75" fill="none" stroke="#000000" stroke-miterlimit="10" width="20.125" height="12.75"/>
	<rect x="274.667" y="768.5" fill="none" stroke="#000000" stroke-miterlimit="10" width="18.833" height="32.25"/>
	<rect x="426.5" y="766.25" fill="none" stroke="#000000" stroke-miterlimit="10" width="46.375" height="30"/>
	<rect x="454" y="766.25" fill="none" stroke="#000000" stroke-miterlimit="10" width="18.875" height="30"/>
	<polygon fill="none" stroke="#000000" stroke-miterlimit="10" points="412.418,510 321.083,510 321.083,550.334 321.083,557.75 
		412.418,557.75 412.418,549.574 	"/>
	<rect x="342.5" y="387.667" fill="none" stroke="#000000" stroke-miterlimit="10" width="58.499" height="30"/>
	<path fill="none" stroke="#000000" stroke-miterlimit="10" d="M465.665,228.334l-10.665,74c0,0,64.665,6,64.665,7
		s9-73.333,9-73.333L465.665,228.334z"/>
	<polyline fill="none" stroke="#000000" stroke-miterlimit="10" points="426.332,401.672 430.332,371.668 446.999,371.668 
		510.665,379.001 507.998,404.001 479.666,404.001 	"/>
	<polygon fill="none" stroke="#000000" stroke-miterlimit="10" points="455,302.334 446.999,371.668 510.665,379.001 
		519.665,309.334 	"/>
	<rect x="479.666" y="404.001" fill="none" stroke="#000000" stroke-miterlimit="10" width="27.501" height="11.67"/>
	<polygon fill="none" stroke="#000000" stroke-miterlimit="10" points="594.168,245.5 589.668,277.5 651.168,285.667 656.168,253.5 
			"/>
	<polygon fill="none" stroke="#000000" stroke-miterlimit="10" points="585.168,308.667 589.668,277.5 651.168,285.667 
		647.168,316.667 	"/>
	<polygon fill="none" stroke="#000000" stroke-miterlimit="10" points="581.668,338.333 585.168,308.667 647.168,316.667 
		643.001,346.5 	"/>
	<line fill="none" stroke="#000000" stroke-miterlimit="10" x1="548.443" y1="442.153" x2="556.498" y2="384.375"/>
	<path fill="none" stroke="#000000" stroke-miterlimit="10" d="M549.998,383.501c1,0,22,2,22,2L565.665,437"/>
	<path fill="none" stroke="#000000" stroke-miterlimit="10" d="M549.455,434.898c-0.036,0.259,25.795,3.602,25.795,3.602"/>
	<polyline fill="none" stroke="#000000" stroke-miterlimit="10" points="609.799,342.079 604.75,374.668 619,375.5 	"/>
	<rect x="452" y="509" fill="none" stroke="#000000" stroke-miterlimit="10" width="41.75" height="48.75"/>
	<rect x="452" y="477.25" fill="none" stroke="#000000" stroke-miterlimit="10" width="41.416" height="31.75"/>
	<rect x="183.5" y="206.251" fill="none" stroke="#000000" stroke-miterlimit="10" width="120.5" height="165.417"/>
	<polyline fill="none" stroke="#000000" stroke-miterlimit="10" points="169.75,372 97.5,375.5 97.5,483 140,480.25 	"/>
	<rect x="367.75" y="406.5" fill="none" width="8" height="9"/>
	<text transform="matrix(1 0 0 1 367.7495 412.8901)" font-family="'MyriadPro-Regular'" font-size="9">E</text>
	<rect x="362" y="402.667" fill="none" stroke="#000000" stroke-miterlimit="10" width="17.5" height="15"/>
	<line fill="none" stroke="#000000" stroke-miterlimit="10" x1="528.665" y1="236.001" x2="594.168" y2="245.5"/>
	<path fill="none" stroke="#000000" stroke-miterlimit="10" d="M357,585.529"/>
	<polyline fill="none" stroke="#000000" stroke-miterlimit="10" points="321.083,550.334 412.418,549.574 412.418,542.5 
		321.083,542.5 	"/>
	<line fill="none" stroke="#000000" stroke-miterlimit="10" x1="400.999" y1="401.672" x2="425" y2="401.672"/>
	<line fill="none" stroke="#000000" stroke-miterlimit="10" x1="425" y1="415.672" x2="425" y2="444.988"/>
	<line fill="none" stroke="#000000" stroke-miterlimit="10" x1="342.5" y1="447.5" x2="342.5" y2="467.5"/>
</g>
<g id="A0152">
	<polygon fill="none" stroke="#000000" stroke-miterlimit="10" points="272.625,813.5 272.625,800.75 327.002,800.75 327.002,830 
		293.5,830 293.5,813.5 	"/>
	<path fill="none" stroke="#000000" stroke-miterlimit="10" d="M324.375,808.522c0,3.784-3.511,6.853-7.842,6.853h-18.501
		c-4.331,0-7.842-3.068-7.842-6.853l0,0c0-3.785,3.511-6.854,7.842-6.854h18.501C320.864,801.669,324.375,804.737,324.375,808.522
		L324.375,808.522z"/>
	<rect x="294.438" y="802.771" fill="none" width="29" height="11.5"/>
	<text transform="matrix(1 0 0 1 294.4375 811.291)" font-family="'MyriadPro-Regular'" font-size="12">0.152</text>
</g>
</svg>
